<svg width="187" height="187" viewBox="0 0 187 187" fill="none" xmlns="http://www.w3.org/2000/svg">
<circle cx="93.5" cy="93.5" r="92" stroke="#83B252" stroke-width="3"/>
<circle cx="93.5" cy="93.5" r="42" stroke="#83B252" stroke-width="3"/>
<path d="M149.5 92.5C149.5 123.416 124.216 148.5 93 148.5C61.7836 148.5 36.5 123.416 36.5 92.5C36.5 61.5843 61.7836 36.5 93 36.5C124.216 36.5 149.5 61.5843 149.5 92.5Z" stroke="#B4C185" stroke-width="3"/>
<circle cx="93" cy="94" r="80.5" stroke="#83B252" stroke-width="3"/>
<circle cx="93.5" cy="93.5" r="69" stroke="#83B252" stroke-width="3"/>
<circle cx="93.5" cy="93.5" r="92" stroke="#83B252" stroke-width="3"/>
<circle cx="93.5" cy="93.5" r="42" stroke="#83B252" stroke-width="3"/>
<path d="M149.5 92.5C149.5 123.416 124.216 148.5 93 148.5C61.7836 148.5 36.5 123.416 36.5 92.5C36.5 61.5843 61.7836 36.5 93 36.5C124.216 36.5 149.5 61.5843 149.5 92.5Z" stroke="#B4C185" stroke-width="3"/>
<circle cx="93" cy="94" r="80.5" stroke="#B4C185" stroke-width="3"/>
<circle cx="93.5" cy="93.5" r="69" stroke="#83B252" stroke-width="3"/>
</svg>
