<svg width="231" height="137" viewBox="0 0 231 137" fill="none" xmlns="http://www.w3.org/2000/svg">
<path d="M9.62726 90.8735C8.65426 92.5285 8.86926 94.7285 10.0123 96.3085C11.3933 98.2175 13.8983 99.0124 16.1773 98.7814C15.9093 99.5004 15.8213 100.332 16.0093 101.328C16.7553 105.285 20.9132 106.592 24.4632 106.017C24.4542 106.094 24.4333 106.165 24.4283 106.243C23.9703 112.507 30.9582 115.363 35.7822 112.526C37.4002 114.269 39.8333 115.279 42.5203 114.823C42.7443 116.616 43.8962 118.195 45.5152 119.18C48.2862 120.864 51.5333 120.475 54.5303 119.66C54.5873 119.765 54.6742 119.851 54.7992 119.879C58.6092 120.736 62.5872 121.105 66.4552 120.413C66.4882 120.457 66.5162 120.507 66.5502 120.55C67.5622 121.839 68.7953 122.983 70.3193 123.641C72.8923 124.751 75.6132 124.329 77.6752 122.478C77.7332 122.426 77.7692 122.369 77.7912 122.311C79.6212 124.389 83.0413 125.091 85.6113 124.549C87.8313 124.08 90.7113 122.297 91.2253 119.946C103.832 121.001 117.574 124.379 129.311 118.024C133.297 115.866 136.866 112.607 138.752 108.428C141.196 103.014 139.958 97.2365 138.978 91.6415C137.449 82.9015 137.097 75.2784 139.626 66.6564C141.111 61.5934 142.679 56.6085 142.602 51.2835C142.474 42.3615 138.658 33.5565 132.413 27.2105C114.825 9.33846 88.0842 20.7005 66.5033 15.7245C55.7393 13.2425 46.4382 8.60345 35.4982 13.2604C25.8962 17.3474 22.5273 25.2405 19.3413 34.5295C17.8753 38.8035 16.1233 42.4525 12.9423 45.7195C11.1353 47.5745 9.04325 49.1325 7.30925 51.0645C4.33225 54.3805 2.31826 58.4225 1.33126 62.7625C-0.962744 72.8595 2.56026 83.3675 9.51926 90.8255C9.54926 90.8605 9.58826 90.8715 9.62726 90.8735ZM91.2992 119.288C91.3102 118.786 91.2223 118.266 90.9843 117.728C90.9023 117.543 90.8032 117.372 90.7012 117.205C100.043 116.503 110.202 113.835 116.819 107.063C116.962 107.212 117.265 107.083 117.185 106.863C117.167 106.815 117.141 106.776 117.123 106.729C118.46 105.31 119.658 103.731 120.652 101.942C123.138 97.4665 123.816 92.3975 122.384 87.4705C120.25 80.1275 115.589 74.4904 117.154 66.3984C118.094 61.5404 120.454 56.3105 117.949 51.5115C115.878 47.5435 111.397 45.6015 107.302 44.4655C92.4623 40.3505 74.6903 41.4495 65.5773 26.5755C65.2553 26.0505 64.4523 26.5195 64.7513 27.0585C66.0223 29.3455 67.5983 31.3045 69.3983 32.9895C63.0913 37.7435 55.2533 35.9165 47.9953 37.4565C42.4153 38.6405 38.8373 42.1645 35.5813 46.6555C33.1773 49.9705 30.9572 53.2294 27.7992 55.8804C24.8892 58.3224 21.5312 60.2665 18.8812 63.0195C15.3292 66.7095 13.2533 71.7755 15.4003 76.6325C15.3663 76.7165 15.3693 76.8045 15.4093 76.8915C12.4753 76.7775 10.2273 79.8164 11.0123 82.7384C11.0253 82.7874 11.0453 82.8314 11.0603 82.8804C8.47726 84.2134 8.32126 88.0805 10.2623 90.0325C10.0843 90.2105 9.93525 90.4065 9.79625 90.6075C1.93725 79.9975 -2.10374 65.7545 6.12726 54.0305C9.12026 49.7675 13.8013 47.0835 16.6853 42.7375C19.3443 38.7305 20.4043 33.9735 22.0373 29.5175C25.9073 18.9545 35.1013 11.7875 46.6483 12.0125C56.7983 12.2105 66.1622 17.4815 76.4082 18.0295C97.0072 19.1315 121.825 12.5175 135.587 32.6445C141.401 41.1475 142.876 51.2625 140.253 61.1415C138.906 66.2155 137.021 71.1545 136.656 76.4375C136.319 81.3065 137.078 86.1585 137.904 90.9415C139.048 97.5695 140.471 104.309 136.542 110.307C133.668 114.695 128.715 117.623 123.822 119.202C113.352 122.575 102.023 119.796 91.2992 119.288ZM37.7513 101.287C36.7563 101.536 35.8603 102.12 35.0963 103.22C33.6033 100.856 31.0243 100.271 28.7743 100.952C28.8363 100.718 28.8623 100.496 28.8673 100.281C28.8293 100.771 29.5723 100.979 29.6523 100.469C30.3383 96.1125 35.0493 94.7084 38.3183 97.4064C38.5753 97.6184 38.9113 97.2925 38.6863 97.0385C37.6353 95.8505 36.3193 95.2775 34.9943 95.1925C35.0153 94.1485 34.9132 93.1165 34.6702 92.0945C34.6122 91.8525 34.5473 91.5755 34.4753 91.2915C34.5013 91.2765 34.5273 91.2665 34.5523 91.2435C37.9073 88.0625 43.0913 90.4455 43.1463 94.9635C40.0023 95.3005 37.0323 98.0395 37.7513 101.287ZM46.8013 104.533C45.8603 103.301 44.3863 102.423 42.8113 101.908C41.2633 101.403 39.8063 101.043 38.4963 101.158C37.7243 97.9125 41.3133 95.3515 44.2413 95.9745C46.4693 96.4485 50.3443 98.9435 49.6603 101.563C48.4653 102.046 47.4222 102.939 46.8212 104.243C46.7732 104.348 46.7733 104.447 46.8013 104.533ZM62.1513 108.041C62.1453 108.149 62.1813 108.23 62.2333 108.294C61.7373 108.403 61.2743 108.544 60.8843 108.712C59.2533 109.417 57.8672 110.516 56.7992 111.857C56.2332 111.162 55.5853 110.514 54.8763 109.946C54.9163 109.889 54.9483 109.824 54.9563 109.741C55.1713 107.595 56.0033 105.275 57.9703 104.134C59.7183 103.12 61.8322 103.41 63.2612 104.763C62.6352 105.706 62.2213 106.779 62.1513 108.041ZM74.3753 110.219C74.3583 110.294 74.3623 110.362 74.3763 110.423C72.6483 110.091 70.7173 110.305 68.8063 110.809C68.4163 108.337 65.4213 107.813 62.9513 108.162C62.9643 108.124 62.9782 108.086 62.9802 108.04C63.0442 105.816 65.7283 101.419 68.3883 101.803C68.4523 101.839 68.5243 101.854 68.5993 101.853C69.3603 102.027 70.2073 102.522 70.9823 102.695C71.6053 102.834 72.2553 102.914 72.8663 103.101C74.0863 103.474 75.9033 104.993 75.9733 106.348C75.9883 106.636 76.3912 106.63 76.4162 106.348C76.5242 105.114 76.0893 104.28 75.3723 103.666C75.4463 103.592 75.5003 103.495 75.5083 103.364C75.6553 100.828 77.4763 99.4335 79.5813 98.4735C81.0793 97.7905 81.5933 97.8555 82.8963 98.7655C84.6833 100.015 87.8182 100.354 88.7352 102.492C87.6612 103.226 86.7983 104.359 86.3803 105.925C82.5983 102.704 75.6853 104.292 74.3753 110.219ZM82.6333 110.465C82.6423 110.517 82.6613 110.563 82.6723 110.614C82.5143 110.582 82.3473 110.647 82.2933 110.861C81.9163 112.352 80.6672 113.521 79.4292 114.685C78.4832 112.408 76.9603 111.169 75.1563 110.619C75.1883 110.575 75.2153 110.521 75.2293 110.455C76.8063 103.323 85.9532 103.568 88.0892 110.085C86.8912 110.73 85.8593 111.755 85.2113 113.218C84.2043 112.513 83.3753 111.65 83.0263 110.357C82.9573 110.099 82.5873 110.211 82.6333 110.465ZM106.299 112.65C103.695 113.687 100.95 114.498 98.1933 115.158C97.9733 113.058 96.8903 111.484 95.4263 110.493C95.4283 110.489 95.4322 110.487 95.4342 110.482C96.4692 108.168 99.0402 106.351 101.601 106.029C102.808 105.877 102.887 106.488 103.782 107.312C105.125 108.547 107.566 110.124 106.3 112.445C106.257 112.523 106.268 112.592 106.299 112.65ZM106.304 108.763C106.411 108.727 106.5 108.644 106.525 108.491C107.38 103.202 113.503 102.512 116.344 106.375C113.71 109.004 110.416 110.945 106.829 112.429C107.614 111.036 107.155 109.851 106.304 108.763ZM21.0513 78.7805C20.6313 78.0225 20.0003 77.5075 19.2753 77.1505C19.2953 77.0885 19.3023 77.0194 19.2713 76.9364C18.7663 75.5904 20.0553 75.1405 20.9183 75.1165C21.6183 75.0965 22.1792 75.4035 22.7562 75.7575C23.2512 76.0615 23.7252 76.4235 24.1872 76.7765C25.6312 77.8795 27.7953 80.4885 25.3963 81.8965C23.1403 82.1865 21.2152 84.0675 20.7482 86.3315C20.7692 83.8995 22.3383 81.1015 21.0513 78.7805ZM29.7952 83.7585C31.1232 82.9195 32.5783 82.7665 33.8693 83.1015C33.8773 83.2365 34.0303 83.3685 34.1633 83.2735C34.1913 83.2535 34.2103 83.2275 34.2373 83.2065C36.4333 83.9585 38.0343 86.1835 37.4443 88.9695C37.4303 89.0335 37.4592 89.0785 37.4982 89.1115C36.3632 89.2205 35.2253 89.6545 34.2283 90.5075C34.0793 90.1035 33.8963 89.7215 33.6323 89.4505C33.0043 88.8055 31.8022 88.9144 30.9802 88.9324C30.8682 88.9344 30.7543 88.9435 30.6413 88.9485C31.3043 87.2185 30.9152 85.2015 29.7952 83.7585ZM36.1353 83.5314C39.8823 80.0104 45.6573 82.2134 46.1693 87.3674C46.1783 87.4624 46.2222 87.5335 46.2822 87.5825C44.3982 87.4295 42.4783 88.1265 41.2593 90.0165C41.2553 90.0235 41.2553 90.0295 41.2513 90.0365C40.2203 89.3515 38.9723 89.0125 37.7083 89.0865C37.7163 89.0735 37.7302 89.0685 37.7352 89.0515C38.3142 86.8355 37.5393 84.8224 36.1353 83.5314ZM48.9332 97.8225C48.7932 97.6925 48.6363 97.5575 48.4733 97.4215C48.5283 97.4145 48.5843 97.3965 48.6423 97.3575C49.6853 96.6655 51.1993 95.1545 52.3793 94.8405C53.2323 94.6135 53.8333 94.9155 54.6733 95.0525C57.5233 95.5175 59.4852 96.0695 60.9932 98.5945C60.1352 99.7315 59.6723 101.19 59.9083 102.812C59.3233 102.833 58.7383 102.942 58.1883 103.161C57.5833 103.402 57.0613 103.745 56.6063 104.154C55.4423 101.571 52.6153 100.678 50.2123 101.369C50.5763 100 49.9982 98.8085 48.9332 97.8225ZM68.0943 100.749C68.0053 100.719 67.8982 100.721 67.8252 100.768C66.2372 101.787 64.6342 102.92 63.5362 104.376C62.8362 103.476 61.8013 102.982 60.7013 102.846C60.7183 102.803 60.7302 102.758 60.7302 102.707C60.7132 98.2775 64.6933 95.8075 68.6253 97.6665C68.2053 98.6245 68.0093 99.6875 68.0943 100.749ZM69.1253 101.246C68.0483 95.4705 75.4432 93.1935 78.4932 97.8105C78.6302 98.0175 78.9232 97.8385 78.8212 97.6185C78.3312 96.5625 77.5173 95.6995 76.5423 95.1145C76.6293 95.0955 76.7112 95.0435 76.7692 94.9435C78.1172 92.6275 80.2412 91.6595 82.3252 91.8225C82.3932 91.8975 82.5012 91.9075 82.5842 91.8565C84.5232 92.0965 86.3993 93.3025 87.5473 95.3325C86.0783 96.2055 85.0973 97.3965 85.7453 99.4185L85.7463 99.4205C85.5533 99.3605 85.3573 99.3034 85.1633 99.2424C84.7233 98.8054 82.9423 97.4975 82.6953 97.3785C82.3913 97.2315 82.2103 96.9595 81.8703 96.9305C80.2803 96.7985 77.5853 98.4005 76.4603 99.4025C75.3203 100.417 74.7173 101.641 74.6043 103.13C73.0133 102.259 70.7303 101.954 69.1243 101.277C69.1233 101.266 69.1273 101.257 69.1253 101.246ZM113.399 103.287V103.291C111.955 102.91 110.366 103.107 109.004 103.81C109.032 101.332 107.458 99.6555 105.384 98.8405C105.389 98.8295 105.397 98.8234 105.401 98.8114C107.355 93.3944 114.588 94.2635 115.9 99.5665C114.63 100.417 113.663 101.734 113.399 103.287ZM109.525 88.9794C107.986 89.3604 106.603 90.4324 106.094 91.9364C104.924 91.0064 103.291 90.2915 102.979 88.8415C102.936 88.6415 102.716 88.5485 102.533 88.5885C101.813 88.7445 101.072 88.9275 100.35 89.1545C100.359 89.1185 100.368 89.0825 100.366 89.0385C100.107 84.5595 107.726 81.0965 109.646 86.0625C109.695 86.1885 109.917 86.1845 109.902 86.0275C109.722 84.2065 108.622 83.2865 107.205 83.0385C107.803 81.0285 109.898 79.5315 112.028 80.0765C114.088 80.6025 115.126 82.6475 115.091 84.6315C112.504 83.6425 109.158 85.7764 109.525 88.9794ZM103.746 76.9055C103.736 76.8865 103.724 76.8705 103.714 76.8515C103.917 74.6595 105.747 71.9145 107.984 72.3485C109.929 72.7255 111.861 73.7775 113.158 75.2665C112.121 76.2305 111.443 77.6985 111.175 79.0635C111.156 79.1585 111.177 79.2375 111.215 79.3045C110.187 79.2785 109.213 79.6325 108.406 80.2245C107.188 78.5625 105.423 77.8005 103.69 77.8445C103.713 77.8005 103.728 77.7515 103.721 77.6925C103.697 77.5035 103.695 77.3025 103.702 77.0965C103.754 77.0545 103.787 76.9845 103.746 76.9055ZM103.071 77.7795C103.077 77.8205 103.093 77.8535 103.111 77.8835C101.188 78.1345 99.3873 79.3905 98.5163 81.5435C97.9493 81.3625 97.3682 81.2234 96.8002 81.0484C95.9892 80.7984 95.0342 80.1255 94.1792 80.0855C93.8492 80.0695 93.5123 80.1185 93.1733 80.2105C93.2313 80.1375 93.2643 80.0455 93.2373 79.9425C92.6333 77.6695 95.4803 76.5795 95.9973 74.5685C98.5443 74.6365 101.319 74.4185 103.063 76.4985C103.017 76.9065 103.005 77.3265 103.071 77.7795ZM44.5943 79.5704C46.3883 78.6844 48.2173 78.4385 50.1203 79.2365C52.3573 80.1745 54.2393 82.6665 52.9823 85.0985C52.9763 85.1105 52.9823 85.1215 52.9783 85.1335C51.2263 85.1515 49.4473 85.9015 48.1913 87.5235C47.8903 87.9125 48.4273 88.3154 48.7213 87.9324C51.9063 83.7864 57.7143 85.9185 58.4313 90.6975C56.7853 91.0675 55.2473 92.0645 54.2363 93.7835C54.1283 93.9665 54.2053 94.1345 54.3393 94.2245C53.9103 94.0985 53.4993 93.9325 53.1263 93.6685C53.0213 93.5945 52.8433 93.5985 52.7373 93.6685C52.4653 93.8485 52.1953 94.0305 51.9233 94.2105C52.5863 90.7275 49.7163 88.0494 46.6253 87.6264C46.7153 87.5854 46.7823 87.5015 46.7743 87.3665C46.6563 85.2435 45.6623 83.5695 44.2553 82.4905C44.2653 82.4745 44.2842 82.4705 44.2912 82.4505C44.6532 81.4325 44.7253 80.4634 44.5943 79.5704ZM60.5492 90.3055C60.5312 90.4165 60.5593 90.5115 60.6133 90.5855C60.0643 90.5305 59.5092 90.5345 58.9592 90.6125C58.8222 88.0055 57.1673 86.2355 55.1113 85.5175C56.3143 83.6815 58.2323 82.2215 60.5353 82.4845C62.8133 82.7445 64.4503 84.6725 64.3953 86.9505C62.6163 87.5705 60.8692 88.3525 60.5492 90.3055ZM65.9112 96.1935C64.1962 96.1405 62.5133 96.8875 61.3573 98.1425C60.8433 97.0365 60.0692 96.0995 59.0112 95.4205C57.6572 94.5515 55.9903 94.6605 54.5343 94.2865C54.6433 94.2905 54.7542 94.2495 54.8302 94.1315C58.0232 89.2185 64.6602 90.8555 65.9112 96.1935ZM52.5853 80.0905C52.6513 80.0625 52.7143 80.0175 52.7593 79.9335C53.7083 78.1625 55.7102 76.9965 57.7432 77.5235C59.8472 78.0685 60.7353 79.9825 61.0423 81.9375C58.3983 81.3445 55.8493 83.0185 54.4773 85.1775C54.4493 85.2215 54.4363 85.2635 54.4283 85.3055C54.1043 85.2325 53.7752 85.1824 53.4422 85.1604C54.6942 83.5884 53.8833 81.4875 52.5853 80.0905ZM60.6603 78.6685C60.7403 78.6755 60.8253 78.6555 60.9013 78.5925C63.8363 76.1845 67.7223 77.6494 68.7943 81.0704C66.9803 81.3884 65.2403 82.4165 64.0853 84.1285C63.5203 83.1815 62.6153 82.4465 61.5133 82.0755C61.7453 80.8705 61.3763 79.6515 60.6603 78.6685ZM67.3593 77.9055C67.4183 77.8875 67.4752 77.8564 67.5202 77.7984C69.7542 74.8964 73.4183 75.5825 75.2243 78.3875C73.9293 78.8115 72.7692 79.7435 72.1272 81.2305C72.1172 81.2535 72.1173 81.2754 72.1133 81.2984C71.1983 80.9924 70.2153 80.9155 69.2423 81.0235C68.9833 79.6785 68.2863 78.6275 67.3593 77.9055ZM81.3092 82.4225C80.2592 83.2335 79.2992 84.1475 78.4552 85.2155C78.3062 85.4045 78.3642 85.6335 78.4982 85.7665C75.9862 85.0665 72.9752 85.8635 71.3522 88.5155C71.2982 88.6035 71.2923 88.6885 71.3143 88.7645C69.9423 87.9965 68.4923 87.4135 67.4183 86.1645C67.4333 86.0455 67.3292 85.9344 67.2012 85.9194C67.1972 85.9134 67.1922 85.9095 67.1872 85.9045C66.9852 85.6365 66.5683 85.8355 66.6643 86.1285C66.0743 86.3885 65.3982 86.6075 64.7142 86.8405C64.7892 86.0715 64.6483 85.3294 64.3583 84.6564C64.4443 84.6474 64.5283 84.6065 64.5893 84.5145C67.5613 80.0345 73.2842 81.0355 75.6792 85.4045C75.7832 85.5955 76.1052 85.4634 76.0322 85.2554C75.3852 83.4114 74.1463 82.1874 72.6823 81.5314C74.5603 77.1614 80.2032 78.1665 81.3092 82.4225ZM83.9923 82.2105C85.9213 83.2025 88.7993 85.1325 88.3183 87.5865C88.3133 87.6115 88.3273 87.6255 88.3283 87.6475C86.7823 88.4805 85.4962 89.8735 84.9122 91.7805C84.2112 91.4345 83.4543 91.2195 82.6783 91.1485C82.6503 88.3995 80.9492 86.5745 78.8132 85.8595C78.8742 85.8435 78.9343 85.8135 78.9883 85.7475C79.9643 84.5535 82.3703 81.3765 83.9923 82.2105ZM95.1483 94.3665C95.1423 94.4235 95.1542 94.4735 95.1742 94.5175C94.5232 94.0945 93.9303 93.6055 93.5093 92.9435C93.3943 92.7625 93.1073 92.6425 92.9133 92.7875C91.7423 93.6625 89.5913 94.2245 87.9133 95.1195C87.3983 93.7915 86.5563 92.8135 85.5523 92.1515C85.5593 92.1355 85.5702 92.1255 85.5752 92.1075C87.2712 86.0035 94.1913 86.1995 97.0553 90.8195C96.0333 91.6575 95.3033 92.7825 95.1483 94.3665ZM84.7432 81.8445C84.7472 81.8335 84.7553 81.8265 84.7593 81.8135C85.8313 78.0675 89.9413 77.5935 92.5783 79.9945C92.6013 80.0595 92.6173 80.1235 92.6463 80.1895C92.6793 80.2645 92.7323 80.3065 92.7903 80.3305C90.8903 81.0415 89.0363 83.1495 88.3323 84.7785C87.4613 83.6265 85.9142 82.7285 84.7432 81.8445ZM95.3472 81.2984C97.4992 81.7964 100.479 82.4225 101.305 84.7775C101.335 84.8615 101.39 84.9165 101.453 84.9485C100.256 86.0215 99.4763 87.4485 99.6633 89.0375C99.6793 89.1735 99.7583 89.2645 99.8543 89.3185C99.0183 89.6115 98.2272 89.9805 97.5332 90.4525C96.0022 86.8575 92.0343 86.0084 88.8873 87.3764C89.1053 86.6074 88.9983 85.9365 88.6903 85.3345C88.8033 85.3095 88.9093 85.2425 88.9623 85.1105C90.0233 82.4895 92.6552 80.6754 95.3472 81.2984ZM108.05 80.5184C107.337 81.1504 106.787 81.9755 106.526 82.9125C106.52 82.9345 106.524 82.9535 106.522 82.9735C104.994 82.9295 103.237 83.5505 101.879 84.5935C101.466 83.3205 100.704 82.5235 99.4923 81.9225C99.3493 81.8515 99.2012 81.7965 99.0542 81.7375C100.595 77.7915 105.557 77.2304 108.05 80.5184ZM111.801 89.6465C114.05 90.2955 115.147 92.7905 114.77 94.9685C114.762 95.0145 114.778 95.0485 114.792 95.0825C114.714 95.4495 114.639 95.8175 114.584 96.1905C111.772 93.3935 106.38 94.0965 104.727 98.6165C103.082 98.1345 101.214 98.1485 99.5943 98.7115C99.2683 96.4885 97.2382 95.7765 95.4932 94.7205C95.6642 94.7345 95.8393 94.6575 95.8663 94.4635C96.0433 93.2085 96.6093 92.2535 97.4193 91.5115C97.4653 91.6065 97.5223 91.6905 97.5653 91.7875C97.6593 92.0005 97.9742 91.8425 97.9252 91.6355C97.8872 91.4795 97.8263 91.3485 97.7813 91.2005C98.3293 90.7775 98.9642 90.4315 99.6662 90.1545C100.419 89.8575 101.72 89.2155 102.434 89.6395C102.732 89.8165 103.266 90.7615 103.568 91.0085C104.831 92.0415 106.973 92.5165 106.767 94.6975C106.743 94.9545 107.136 94.9875 107.202 94.7565C107.518 93.6525 107.137 92.9075 106.496 92.2885C106.542 92.2665 106.59 92.2455 106.62 92.1935C107.686 90.3655 109.583 89.0075 111.801 89.6465ZM108.494 104.121C107.16 104.975 106.112 106.335 105.767 108.135C104.799 107.089 103.606 106.119 103.007 105.12C102.913 104.964 102.723 104.887 102.547 104.933C101.085 105.313 99.4803 105.782 98.0873 106.531C97.8803 105.17 97.2882 104.078 96.4762 103.258C96.4952 103.224 96.5172 103.193 96.5282 103.149C98.0252 97.3395 108.219 97.9095 108.463 104.053C108.465 104.083 108.486 104.096 108.494 104.121ZM97.6062 106.808C96.3412 107.582 95.3013 108.628 94.7973 110.118C92.9353 109.132 90.6223 108.991 88.6553 109.818C88.3453 108.386 87.7143 107.239 86.8833 106.367C86.9683 106.329 87.0403 106.258 87.0783 106.144C88.9563 100.482 96.4862 101.106 97.6062 106.808ZM89.1532 102.251C88.7282 100.801 87.7023 100.187 86.3493 99.6325C86.4823 99.5525 86.5703 99.4035 86.5183 99.2045C85.6573 95.8945 90.8042 95.1435 93.0592 93.7355C94.8872 95.7075 98.2762 96.1825 99.1232 98.8955C97.5322 99.5755 96.2483 100.814 95.7733 102.65C93.8733 101.272 91.2062 101.094 89.1532 102.251ZM68.8633 97.1715C68.0823 96.6315 67.2393 96.3295 66.3923 96.2285C66.0753 93.0785 63.7553 91.1215 61.1353 90.6575C61.1763 90.6165 61.2103 90.5664 61.2273 90.4924C61.8243 87.8354 64.9972 87.8394 66.9642 86.5704C69.0192 89.1494 75.0762 89.8245 74.0192 93.9685C73.9542 94.2215 74.3042 94.3005 74.3992 94.0735C75.0892 92.4145 74.1163 90.8495 72.8403 89.7825C72.4893 89.4885 72.1143 89.2425 71.7333 89.0115C71.8123 88.9945 71.8873 88.9485 71.9413 88.8585C74.9153 83.9175 81.3282 86.0105 82.1742 91.1115C79.8472 91.0755 77.4553 92.2455 76.1243 94.5665C76.0613 94.6765 76.0612 94.7825 76.0972 94.8725C74.7892 94.2305 73.2523 94.0695 71.8163 94.5915C70.4973 95.0725 69.4983 96.0165 68.8633 97.1715ZM48.2373 96.6655C48.0753 96.7755 48.0342 96.9435 48.0672 97.0935C47.1812 96.4015 46.1113 95.6965 45.2763 95.2655C44.6353 94.9335 44.5643 94.9395 43.8703 94.9285C43.8253 94.9275 43.7813 94.9335 43.7373 94.9335C43.7853 93.0095 42.9902 91.4504 41.7782 90.4234C41.7782 90.4234 41.7813 90.4215 41.7833 90.4205C43.5533 88.7055 45.8533 87.6565 48.2673 88.7645C50.5723 89.8225 51.4433 92.1845 51.3883 94.5665C50.3363 95.2635 49.2833 95.9575 48.2373 96.6655ZM29.0022 76.5735C28.5842 77.3805 27.8843 78.1135 26.8623 78.6725C26.3833 77.5485 25.3313 76.7065 24.3703 75.9875C23.6623 75.4565 22.8123 74.8235 21.9103 74.4965C22.5123 73.6665 22.9353 72.6865 23.2723 71.6815C23.3513 71.7135 23.4393 71.7265 23.5343 71.6935C24.6103 71.3255 25.4712 70.6954 26.1312 69.9244C28.7932 71.0904 30.0433 73.7825 29.2253 76.0585C29.2173 76.0605 29.2093 76.0605 29.2023 76.0625C28.9653 76.1195 28.9112 76.3915 29.0022 76.5735ZM29.4103 71.6505C32.5823 70.0275 35.9392 71.5725 36.9072 75.0225C36.1952 75.2645 35.4982 75.6524 34.8512 76.2124C34.7992 76.2574 34.7733 76.3065 34.7583 76.3575C34.4553 76.1455 34.0453 76.0385 33.4583 75.9545C32.3043 75.7895 31.1113 75.7585 29.9523 75.9315C30.3613 74.4765 30.1703 72.8955 29.4103 71.6505ZM43.8512 82.2165C41.4382 80.6415 38.0353 80.6905 35.5953 83.0785C35.3543 82.9075 35.1023 82.7545 34.8373 82.6235C35.9193 81.2835 35.7972 79.3425 35.4502 77.6635C35.3712 77.2785 35.2673 76.9934 35.1323 76.7684C35.1983 76.7624 35.2653 76.7435 35.3273 76.6895C39.4523 73.1145 45.2222 77.1465 43.8512 82.2165ZM29.3073 83.1375C29.2913 83.1485 29.2843 83.1635 29.2713 83.1755C28.7453 82.6755 28.1112 82.2855 27.3862 82.0625C27.0412 81.9565 26.6973 81.8975 26.3563 81.8705C26.9443 81.3195 27.2052 80.5044 27.1182 79.6174C27.1092 79.5224 27.0823 79.4345 27.0653 79.3435C27.1023 79.3375 27.1402 79.3325 27.1792 79.3135C28.3672 78.7375 29.1923 77.7845 29.6753 76.6985C31.4043 76.4965 34.4233 76.0225 34.8153 78.0325C35.1003 79.4915 35.2722 81.1925 34.3942 82.4345C32.8352 81.8315 30.9853 81.9355 29.3073 83.1375ZM20.4653 82.2105C20.2953 83.1925 20.0772 84.1855 19.8772 85.1625C19.6702 86.1715 19.5742 86.2495 18.4892 86.3815C15.9912 86.6845 13.3723 85.7615 12.1983 83.4015C10.8003 80.5925 12.9212 77.2045 16.1442 77.7465C16.4772 77.8025 16.6733 77.4774 16.5913 77.2384C19.1573 77.7434 21.0073 79.0895 20.4653 82.2105ZM16.5112 68.0675C16.6522 68.1685 16.8403 68.1854 16.9903 68.0144C18.6223 66.1434 21.1742 68.7985 23.0712 69.3745C22.6672 71.1005 21.9323 72.6795 21.3993 74.3515C20.8633 74.2395 20.3142 74.2495 19.7692 74.4955C18.8312 74.9185 18.2663 75.8615 18.4883 76.8335C17.7743 76.6075 17.0103 76.4955 16.2683 76.4615C14.9953 73.2535 15.3112 70.5005 16.5112 68.0675ZM17.2513 66.7684C18.6963 64.5334 20.8483 62.5805 23.0783 60.7805C27.4933 62.8505 28.0962 68.4314 23.5842 70.6784C23.7272 70.1694 23.8572 69.6635 23.9762 69.1765C24.0282 68.9655 23.9093 68.7215 23.6883 68.6685C21.8063 68.2155 19.2603 65.7504 17.2513 66.7684ZM23.5972 60.3575C25.0512 59.2045 26.5193 58.1154 27.8313 57.0574C32.7233 53.1134 35.2643 47.6495 39.5223 43.1665C47.8733 34.3735 61.2003 41.0145 69.7463 33.2955C75.1733 38.1965 82.5323 40.7145 89.7803 42.2035C95.8993 43.4605 102.353 43.8415 108.311 45.7875C111.555 46.8475 115.634 48.6414 117.129 51.9884C118.888 55.9264 117.79 59.8004 116.847 63.7474C115.941 67.5394 115.671 70.7845 116.395 74.2525C115.267 74.0575 114.302 74.3715 113.513 74.9685C112.725 73.8675 111.685 73.1195 110.434 72.5585C109.478 72.1295 107.773 71.2374 106.693 71.4794C105.609 71.7224 104.638 73.1785 104.036 74.0455C103.59 74.6875 103.296 75.3275 103.142 76.0025C101.493 74.0145 98.5982 73.6595 96.0672 73.9425C96.0242 73.7395 95.7133 73.7075 95.6553 73.9265C95.6493 73.9485 95.6392 73.9685 95.6322 73.9905C95.6112 73.9935 95.5882 73.9944 95.5672 73.9974C95.3262 74.0324 95.3193 74.3025 95.4473 74.4535C94.6373 76.0955 92.3543 77.4095 92.4273 79.2715C89.9083 76.4855 85.3682 77.9055 84.1832 81.3895C84.0602 81.2815 83.9373 81.1735 83.8333 81.0645C83.7233 80.9495 83.5353 80.9315 83.4003 81.0085C82.7933 81.3565 82.2223 81.7425 81.6683 82.1475C81.1983 78.9875 78.1893 77.6335 75.5813 78.2875C74.1613 74.6155 69.2312 74.4465 66.9982 77.4935C66.9702 77.5325 66.9542 77.5695 66.9462 77.6065C65.0552 76.4165 62.4203 76.4795 60.4443 78.1355C60.3873 78.1835 60.3623 78.2365 60.3493 78.2905C59.7093 77.5665 58.8783 77.0075 57.9523 76.7665C55.6123 76.1565 53.1572 77.4365 52.1102 79.5545C52.0992 79.5765 52.0993 79.5965 52.0933 79.6185C51.9333 79.4795 51.7703 79.3485 51.6043 79.2345C49.5813 77.8395 46.5593 77.5245 44.4453 78.8995C43.6103 75.9355 40.3422 74.0934 37.2652 74.9234C36.7202 71.0234 32.3533 69.0045 28.9943 71.0585C28.3793 70.3415 27.5323 69.7915 26.4253 69.5565C28.6723 66.4685 27.8752 61.4925 23.5972 60.3575ZM116.505 74.6914C116.735 75.6834 117.029 76.6914 117.431 77.7424C118.021 79.2854 118.696 80.7985 119.353 82.3085C117.295 83.8525 116.205 86.7744 117.422 89.1824C117.451 89.2404 117.496 89.2665 117.541 89.2865C116.459 89.9675 115.586 91.0035 115.147 92.2315C114.728 90.8025 113.68 89.5705 112.19 89.0585C111.529 88.8315 110.82 88.7905 110.122 88.8785C110.206 85.2355 114.103 83.7215 116.759 86.2445C116.841 86.3225 116.985 86.2195 116.919 86.1205C116.508 85.4985 115.998 85.0675 115.444 84.7845C115.453 84.7695 115.469 84.7635 115.473 84.7435C115.988 82.3815 114.373 79.8865 111.99 79.3825C111.918 79.3675 111.848 79.3725 111.777 79.3605C111.8 79.3275 111.821 79.2905 111.833 79.2435C112.43 76.9845 113.637 74.5675 116.358 74.7445C116.419 74.7495 116.466 74.7244 116.505 74.6914ZM119.551 82.7665C120.381 84.6905 121.162 86.6135 121.67 88.5935C120.366 88.2435 119.029 88.4705 117.886 89.0845C117.894 89.0495 117.911 89.0175 117.903 88.9785C117.409 86.6575 117.798 84.4125 119.551 82.7665ZM121.792 89.0755C122.317 91.3395 122.467 93.6825 121.904 96.1895C121.688 97.1535 121.415 98.0665 121.096 98.9375C119.485 98.2525 117.679 98.5074 116.213 99.3674C116.002 98.1864 115.517 97.2235 114.863 96.4705C114.873 96.4545 114.89 96.4495 114.896 96.4275C115.048 95.8795 115.173 95.3315 115.271 94.7715C115.28 94.7195 115.263 94.6785 115.244 94.6405C115.393 93.9735 115.376 93.2955 115.243 92.6425C115.402 92.7305 115.642 92.6994 115.719 92.4754C116.587 89.9244 119.228 88.6545 121.792 89.0755ZM120.974 99.2535C119.97 101.864 118.526 104.067 116.757 105.934C116.09 104.726 115.117 103.931 114.022 103.497C114.026 103.484 114.034 103.476 114.036 103.463C114.667 100.294 117.933 98.5115 120.974 99.2535ZM97.4483 115.334C95.0553 115.885 92.6642 116.333 90.3652 116.732C89.2542 115.342 87.4403 114.6 85.8713 113.644C88.9693 108.343 96.0233 109.501 97.4483 115.334ZM54.1653 109.421C52.4133 108.228 50.3453 107.558 48.1673 107.914C48.0533 107.933 47.9432 107.971 47.8302 107.995C47.9262 106.71 47.5633 105.612 46.9153 104.697C47.0673 104.831 47.3133 104.849 47.4583 104.617C49.6793 101.066 53.8843 101.089 56.3143 104.399C56.3233 104.411 56.3343 104.41 56.3443 104.419C55.0713 105.724 54.4063 107.61 54.1653 109.421ZM25.6832 96.1545C27.8442 94.8915 28.7983 91.8475 27.5293 89.6095C26.1643 87.2035 22.8672 86.5975 20.5972 88.0115C20.5172 87.6415 20.3763 87.2815 20.1653 86.9605C20.2463 86.9395 20.3283 86.9235 20.4083 86.9005C20.5593 86.8575 20.6603 86.7255 20.7043 86.5755C20.6803 86.7295 20.6563 86.8835 20.6463 87.0395C20.6163 87.4825 21.3063 87.4795 21.3353 87.0395C21.5303 84.0725 24.8713 81.4665 27.7803 82.9035C30.0373 84.0175 30.8873 86.6845 30.1653 88.9735C29.3543 89.0365 28.5473 89.1815 27.8013 89.4965C27.5353 89.6095 27.6703 90.0635 27.9483 90.0405C29.7853 89.8895 32.4252 88.8775 33.5972 90.9225C34.2712 92.0985 34.3903 93.7915 34.4383 95.1895C31.8163 95.2905 29.2973 97.2635 28.8693 100.236C28.8833 98.4855 27.1432 97.3585 25.6832 96.1545ZM25.2333 95.7684C24.6973 95.2904 24.2343 94.7895 23.9713 94.2235C23.8923 94.0535 23.6153 93.9345 23.4413 94.0075C22.6393 94.3415 21.7503 94.6675 20.8703 95.0305C20.8653 93.5795 20.2723 92.2165 19.3403 91.1155C20.2543 90.5975 20.6923 89.6155 20.6713 88.6225C20.7103 88.6175 20.7513 88.6035 20.7923 88.5765C22.7043 87.3375 25.4713 87.7135 26.8023 89.6445C28.2723 91.7775 27.2173 94.4604 25.2333 95.7684ZM18.9743 90.7275C16.8983 88.6065 13.5233 87.6725 10.9543 89.4555C9.24326 87.6895 9.57725 85.0235 11.2143 83.3365C12.4673 86.6455 16.1262 87.6975 19.4072 87.1245C19.4222 87.1675 19.4403 87.2104 19.4733 87.2514C20.3603 88.3564 19.9393 89.8505 18.9743 90.7275ZM78.8183 116.485C80.3493 114.833 82.4033 113.663 82.9063 111.369C83.4793 112.783 84.6863 113.745 85.9963 114.607C87.1563 115.37 88.5893 116.003 89.5213 117.059C90.1503 117.772 90.3862 118.518 90.3472 119.242C90.3442 119.242 90.3412 119.242 90.3382 119.241C89.9632 119.228 89.9423 119.736 90.2463 119.848C89.8973 121.171 88.6973 122.359 87.3793 123.045C83.1183 125.263 73.9713 121.717 78.8183 116.485ZM65.5663 117.382C64.7603 115.97 64.1173 114.852 62.8323 114.131C64.5283 113.2 66.5093 112.256 68.5293 111.638C68.5303 111.642 68.5312 111.645 68.5322 111.649C68.5642 111.839 68.8403 111.777 68.8503 111.606C68.8513 111.584 68.8473 111.567 68.8483 111.545C72.8283 110.4 76.9063 110.611 79.2073 114.896C77.5513 116.46 76.0113 118.049 76.7293 120.431C76.8723 120.907 77.0853 121.339 77.3453 121.734C77.2433 121.733 77.1383 121.762 77.0433 121.847C72.5293 125.908 67.7983 121.292 65.5663 117.382ZM56.3472 114.196C57.4812 111.955 59.4733 110.079 61.8593 109.236C64.0103 108.476 67.3802 108.501 68.3302 110.943C65.9032 111.645 63.5433 112.776 61.7193 113.802C61.3883 113.988 61.4993 114.441 61.8183 114.559C63.8873 115.323 64.7873 117.739 65.9143 119.606C63.2773 119.765 60.7133 119.884 58.0733 119.531C57.2643 119.423 56.5553 119.409 56.0533 119.137C56.3003 118.85 56.0723 118.289 55.6243 118.43C55.5733 118.446 55.5203 118.462 55.4683 118.478C55.4043 118.32 55.3523 118.142 55.3243 117.923C55.1773 116.795 55.8622 115.156 56.3472 114.196ZM43.4133 113.342C44.7223 106.146 53.0632 108.596 56.4672 112.292C55.1272 114.159 54.3863 116.441 54.4313 118.79C52.3073 119.401 50.0663 119.83 47.8953 119.267C45.1953 118.566 42.8743 116.304 43.4133 113.342ZM34.9403 105.309C36.1133 101.862 38.7093 101.562 41.8133 102.407C44.6233 103.173 47.3433 104.824 47.2413 108.116C47.2413 108.124 47.2482 108.126 47.2482 108.134C45.0772 108.818 43.2583 110.594 42.6563 112.81C42.5473 113.213 42.5032 113.61 42.4892 114.002C40.1832 114.235 38.0043 113.448 36.5123 112.028C36.5633 111.99 36.6183 111.961 36.6693 111.922C37.0763 111.601 36.5413 110.927 36.1193 111.21C36.0453 111.26 35.9643 111.299 35.8883 111.347C34.6453 109.776 34.1423 107.652 34.9403 105.309ZM25.2873 106.994C25.0023 101.799 31.7542 99.3005 34.7392 103.688C34.7492 103.703 34.7633 103.71 34.7743 103.723C33.1643 106.495 33.5723 109.539 35.1543 111.755C31.0983 113.724 25.5763 112.26 25.2873 106.994ZM19.2703 96.7725C20.1663 96.2915 21.2893 95.7865 22.2813 95.4965C23.4813 95.1455 22.9973 95.1465 23.8583 95.8595C25.3873 97.1255 28.6243 98.7945 27.8183 101.189C27.7983 101.248 27.7953 101.3 27.7973 101.35C26.3303 102.076 25.1303 103.369 24.6483 105.066C24.6233 105.067 24.6013 105.059 24.5743 105.064C22.0703 105.484 19.0553 105.178 17.5563 102.814C16.0803 100.486 16.9493 98.0175 19.2703 96.7725ZM11.6693 90.1405C15.1613 88.0775 20.1193 91.2575 20.4273 95.0385C20.4323 95.1035 20.4623 95.1504 20.5003 95.1864C18.9023 95.8714 17.3953 96.7125 16.5653 97.9985C16.5073 97.9595 16.4433 97.9305 16.3663 97.9275C14.4763 97.8545 12.5523 97.6295 11.1773 96.1705C9.54726 94.4395 9.45125 91.4505 11.6693 90.1405Z" fill="#432918"/>
<path d="M30.3812 131.97C33.2032 134.064 37.0422 132.874 40.0152 131.839C40.3742 132.8 40.9873 133.688 41.8713 134.41C45.5053 137.379 50.3002 135.957 54.0982 134.16C54.1522 134.135 54.1912 134.103 54.2222 134.067C54.2222 134.069 54.2232 134.07 54.2232 134.072C54.2692 134.26 54.5713 134.22 54.5613 134.026C54.4373 131.551 56.1222 129.13 55.3172 126.666C54.7972 125.076 53.3543 123.956 51.8713 123.319C48.8583 122.024 44.8692 122.388 42.2622 124.476C39.1422 119.551 30.1373 119.261 27.6653 125.157C26.7353 127.377 28.5152 130.586 30.3812 131.97ZM44.1993 124.443C47.0453 122.974 52.5333 123.045 54.2373 126.376C55.3763 128.602 53.8342 131.163 54.1312 133.56C54.0222 133.473 53.8732 133.434 53.7152 133.505C50.5132 134.944 46.5952 136.19 43.3092 134.253C39.1342 131.79 40.3153 126.447 44.1993 124.443ZM28.5582 125.213C29.6152 122.853 32.8022 121.414 35.2742 121.388C38.0282 121.36 40.1663 122.769 42.0103 124.676C41.6323 125.007 41.2862 125.375 40.9822 125.785C39.7702 127.417 39.3732 129.39 39.8142 131.182C37.4982 132.014 34.6863 133.035 32.2293 132.181C29.9103 131.375 27.4562 127.674 28.5582 125.213Z" fill="#432918"/>
<path d="M59.3502 13.4275C60.1852 13.4755 61.0172 13.5325 61.8492 13.5895C63.7382 13.6405 65.6202 13.7095 67.5042 13.8925C75.6612 13.5215 83.7962 13.6155 91.8992 12.3685C99.7182 11.1645 107.045 8.40946 114.47 5.79146C127.627 1.15346 140.729 -0.521534 154.532 2.14647C168.359 4.81947 181.158 11.3015 192.218 19.9225C202.252 27.7435 212.575 37.6005 217.615 49.5175C220.513 56.3685 221.573 63.8425 221.71 71.2365C221.773 74.6095 220.147 81.0125 223.196 82.9025C225.675 84.4395 228.213 85.1534 230.486 87.2254C230.67 87.3924 230.69 87.7665 230.486 87.9305C218.082 97.8865 202.054 93.9005 187.489 93.8445C169.499 93.7755 152.252 100.206 138.122 111.193C137.829 111.421 137.409 111.024 137.704 110.775C149.846 100.571 164.971 94.3425 180.785 93.0395C189.796 92.2965 198.701 93.7965 207.7 93.7665C212.485 93.7505 217.324 93.2614 221.859 91.6564C223.213 91.1774 228.983 89.3044 228.681 86.8934C228.439 84.9574 222.485 83.5515 220.77 83.1765C220.605 83.1405 220.453 82.9495 220.466 82.7775C221.166 74.0195 221.263 65.0584 219.082 56.4844C216.781 47.4404 211.698 39.9255 205.415 33.1575C194.369 21.2585 180.772 11.2825 165.352 5.90846C148.78 0.13346 132.025 0.673459 115.562 6.39546C107.527 9.18846 99.6832 12.1785 91.2122 13.3875C83.1282 14.5415 74.7912 14.7184 66.6442 14.2814C66.5422 14.2764 66.5072 14.2065 66.5002 14.1315C65.6612 14.0995 64.8242 14.0504 63.9892 13.9884C62.4442 13.9454 60.9002 13.8874 59.3512 13.8074C59.1072 13.7954 59.1062 13.4135 59.3502 13.4275Z" fill="#432918"/>
<path d="M110.976 69.6454C112.716 68.6024 114.637 67.8925 116.614 67.4565C116.799 67.4155 116.877 67.6905 116.692 67.7415C114.752 68.2765 112.942 69.0334 111.153 69.9494C110.953 70.0514 110.781 69.7624 110.976 69.6454Z" fill="#432918"/>
<path d="M109.606 67.2504C112.278 66.0714 115.108 65.1294 117.967 64.5284C118.086 64.5034 118.136 64.6764 118.018 64.7114C115.198 65.5364 112.461 66.4554 109.732 67.5464C109.562 67.6134 109.438 67.3244 109.606 67.2504Z" fill="#432918"/>
<path d="M106.916 65.8745C110.385 64.1265 113.972 62.5315 117.676 61.3495C117.736 61.3305 117.779 61.4275 117.719 61.4525C114.149 62.9785 110.597 64.4905 107.118 66.2205C106.889 66.3355 106.685 65.9905 106.916 65.8745Z" fill="#432918"/>
<path d="M36.2102 51.7094C38.8362 50.2464 41.4712 48.8094 44.1052 47.3674C45.0382 48.0384 45.9653 48.7154 46.8983 49.3854C43.5833 51.1314 40.2672 52.8764 36.9692 54.6504C36.6522 54.8214 36.9322 55.2884 37.2492 55.1304C40.7012 53.4114 44.1332 51.6444 47.5582 49.8634C48.6052 50.6174 49.6513 51.3724 50.6953 52.1304C47.9663 53.5574 45.2352 54.9824 42.5132 56.4224C42.1082 56.6364 42.4672 57.2484 42.8712 57.0354C45.6862 55.5564 48.4932 54.0614 51.3012 52.5694C51.7322 52.8834 52.1682 53.1914 52.5982 53.5064C52.7632 53.6274 52.9202 53.3524 52.7582 53.2334C52.3812 52.9564 52.0092 52.6724 51.6332 52.3934C52.5002 51.9324 53.3682 51.4754 54.2352 51.0144C55.1272 51.8054 56.0082 52.6114 56.8642 53.4524C53.5072 55.4224 50.2052 57.4784 46.9832 59.6364C46.7222 59.8114 46.9622 60.2324 47.2312 60.0614C52.2952 56.8444 57.4353 53.8384 62.6563 50.9964C63.5503 51.7154 64.4442 52.4354 65.3252 53.1724C62.0532 55.0244 58.8212 56.9474 55.6462 58.9684C55.3572 59.1524 55.6222 59.6114 55.9162 59.4294C59.1762 57.4074 62.4793 55.4734 65.8033 53.5804C66.8153 54.4334 67.8273 55.2854 68.8203 56.1614C66.8453 57.2764 64.8812 58.4104 62.9402 59.5794C62.7192 59.7124 62.9172 60.0514 63.1422 59.9254C66.6822 57.9474 70.2422 56.0204 73.8102 54.1124C74.2802 54.5734 74.7522 55.0304 75.2152 55.4994C75.3782 55.6644 75.6302 55.4104 75.4692 55.2464C75.0342 54.8024 74.5902 54.3684 74.1492 53.9314C75.5172 53.2004 76.8822 52.4634 78.2532 51.7404C79.0872 52.5284 79.9112 53.3284 80.7242 54.1404C78.6612 55.2474 76.6173 56.3864 74.6003 57.5704C74.3623 57.7104 74.5763 58.0764 74.8163 57.9404C76.8983 56.7634 78.9963 55.6284 81.1043 54.5204C81.8703 55.2904 82.6272 56.0714 83.3752 56.8614C82.2232 57.5354 81.0742 58.2124 79.9472 58.9244C79.7562 59.0454 79.9272 59.3394 80.1242 59.2284C81.3232 58.5504 82.5272 57.8924 83.7332 57.2374C83.9072 57.4234 84.0863 57.6034 84.2603 57.7904C84.3873 57.9274 84.5882 57.7234 84.4642 57.5864C84.3122 57.4184 84.1552 57.2554 84.0022 57.0884C85.7142 56.1604 87.4323 55.2484 89.1603 54.3624C89.9423 55.2084 90.7142 56.0704 91.4762 56.9464C86.9802 59.0984 82.5642 61.4074 78.2702 63.9074C78.0502 64.0354 78.2462 64.3664 78.4692 64.2474C82.9142 61.8724 87.3852 59.6004 91.8992 57.4334C92.2132 57.7994 92.5353 58.1544 92.8463 58.5254C92.9843 58.6904 93.2082 58.4554 93.0802 58.2914C92.8092 57.9454 92.5202 57.6124 92.2442 57.2694C93.6612 56.5914 95.0812 55.9214 96.5072 55.2644C97.2192 56.1234 97.9132 56.9994 98.5892 57.8944C91.4172 61.2724 84.4673 65.1184 77.8673 69.4524C77.5363 69.6694 77.8392 70.1984 78.1792 69.9864C84.9802 65.7444 91.9203 61.9354 99.0533 58.5024C99.1153 58.5864 99.1822 58.6674 99.2442 58.7514C99.3922 58.9534 99.7342 58.7574 99.5842 58.5524C99.5282 58.4764 99.4692 58.4044 99.4132 58.3294C101.023 57.5584 102.64 56.7994 104.27 56.0664C105.037 57.0684 105.771 58.1024 106.481 59.1604C103.473 60.4304 100.491 61.7544 97.5682 63.1724C97.3492 63.2794 97.5412 63.5864 97.7562 63.4944C100.765 62.2034 103.768 60.9064 106.772 59.6114C107.195 60.2534 107.623 60.8904 108.025 61.5534C108.041 61.5794 108.063 61.5894 108.085 61.5974C106.341 62.4104 104.633 63.3064 102.977 64.3064C102.795 64.4164 102.96 64.7004 103.144 64.5914C106.246 62.7624 109.438 61.2334 112.752 59.9624C113.063 60.3234 113.379 60.6794 113.688 61.0424C113.777 61.1474 113.919 60.9974 113.837 60.8934C113.567 60.5484 113.283 60.2124 113.01 59.8684C113.806 59.5664 114.602 59.2664 115.414 58.9954C115.938 59.6774 116.471 60.3494 116.981 61.0444C117.073 61.1704 117.285 61.0514 117.193 60.9204C116.714 60.2344 116.206 59.5704 115.71 58.8964C116.296 58.7044 116.884 58.5184 117.478 58.3424C117.798 58.7734 118.123 59.1964 118.441 59.6304C118.53 59.7514 118.73 59.6434 118.647 59.5094C118.381 59.0814 118.101 58.6604 117.824 58.2384C118.002 58.1864 118.177 58.1294 118.356 58.0794C118.452 58.0524 118.411 57.9064 118.315 57.9304C118.118 57.9794 117.924 58.0384 117.728 58.0894C117.181 57.2614 116.618 56.4434 116.033 55.6384C116.457 55.4614 116.879 55.2794 117.303 55.1034C117.576 55.4714 117.843 55.8464 118.126 56.2044C118.198 56.2954 118.332 56.1784 118.281 56.0854C118.073 55.7084 117.844 55.3404 117.625 54.9694C118.086 54.7784 118.545 54.5814 119.006 54.3924C119.137 54.3384 119.083 54.1234 118.946 54.1754C118.46 54.3584 117.974 54.5514 117.488 54.7364C116.814 53.6064 116.104 52.4924 115.366 51.3934C116.014 51.1434 116.654 50.8834 117.306 50.6384C117.532 50.5534 117.438 50.1924 117.205 50.2724C116.505 50.5114 115.812 50.7744 115.114 51.0224C114.466 50.0634 113.812 49.1104 113.163 48.1624C113.421 48.0644 113.675 47.9604 113.933 47.8624C114.105 47.7974 114.032 47.5214 113.856 47.5844C113.566 47.6894 113.278 47.8014 112.988 47.9074C112.926 47.8164 112.863 47.7254 112.801 47.6344C112.647 47.4084 112.279 47.6174 112.431 47.8504C112.477 47.9204 112.523 47.9924 112.568 48.0634C111.866 48.3214 111.166 48.5924 110.466 48.8564C109.525 47.8324 108.558 46.8364 107.576 45.8654C107.945 45.7194 108.309 45.5664 108.679 45.4224C108.895 45.3384 108.804 44.9884 108.582 45.0694C106.43 45.8624 104.291 46.7044 102.164 47.5804C101.462 46.8664 100.764 46.1464 100.049 45.4494C100.915 45.0754 101.77 44.6844 102.641 44.3194C102.792 44.2564 102.73 44.0074 102.572 44.0684C101.626 44.4324 100.685 44.8114 99.7442 45.1914C99.6582 45.1654 99.5812 45.2004 99.5382 45.2734C98.3922 45.7374 97.2512 46.2154 96.1142 46.7024C95.1102 45.8254 94.0752 44.9814 93.0072 44.1744C93.9242 43.7284 94.8312 43.2654 95.7522 42.8264C95.9572 42.7284 95.7782 42.4284 95.5752 42.5224C94.5962 42.9744 93.6202 43.4344 92.6442 43.8944C91.5082 43.0514 90.3492 42.2344 89.1452 41.4744C89.1182 41.4574 89.0952 41.4684 89.0692 41.4624C89.0232 41.4014 88.9442 41.3584 88.8562 41.3974C87.4462 42.0164 86.0423 42.6474 84.6433 43.2894C83.7693 42.6214 82.8813 41.9684 81.9753 41.3354C82.7573 40.9794 83.5352 40.6184 84.3222 40.2684C84.4562 40.2084 84.3582 39.9774 84.2222 40.0304C82.0162 40.8994 79.8292 41.8274 77.6512 42.7834C76.5782 41.9304 75.4893 41.1024 74.3803 40.2984C74.9353 40.0034 75.4902 39.7064 76.0452 39.4114C76.3132 39.2684 76.0753 38.8644 75.8073 39.0044C75.1863 39.3294 74.5642 39.6524 73.9422 39.9774C72.8182 39.1734 71.6803 38.3924 70.5223 37.6414C71.6933 37.0034 72.8673 36.3694 74.0353 35.7284C74.3183 35.5734 74.0672 35.1484 73.7832 35.2974C72.5052 35.9654 71.2262 36.6324 69.9472 37.2994C69.8492 37.2844 69.7693 37.3274 69.7293 37.4134C68.0743 38.2764 66.4193 39.1404 64.7643 40.0034C64.6703 39.9364 64.5792 39.8654 64.4852 39.7984C64.2192 39.6084 63.9652 40.0484 64.2302 40.2354C64.2432 40.2444 64.2552 40.2534 64.2672 40.2624C63.0012 40.9224 61.7362 41.5874 60.4702 42.2484C59.4662 41.5134 58.4502 40.7924 57.4212 40.0884C60.9192 38.2244 64.4283 36.3794 67.9713 34.5884C68.2343 34.4554 68.0032 34.0644 67.7402 34.1934C64.0962 35.9874 60.4622 37.8184 56.8482 39.6924C56.7302 39.6124 56.6153 39.5294 56.4973 39.4504C56.2563 39.2884 56.0312 39.6784 56.2702 39.8384C56.3132 39.8674 56.3542 39.8974 56.3962 39.9254C54.8222 40.7434 53.2542 41.5734 51.6892 42.4104C51.6822 42.4124 51.6772 42.4174 51.6702 42.4204C50.1752 43.2204 48.6862 44.0314 47.2012 44.8504C46.2052 44.1574 45.1932 43.4864 44.1572 42.8504C47.1722 41.4734 50.1782 40.0694 53.1502 38.6194C53.4272 38.4844 53.1842 38.0944 52.9122 38.2124C48.5412 40.1144 44.1803 42.0984 39.8853 44.1664C39.5513 44.3274 39.8433 44.8034 40.1733 44.6584C41.3823 44.1254 42.5842 43.5664 43.7882 43.0174C43.7752 43.1034 43.7902 43.1914 43.8842 43.2514C44.8382 43.8594 45.7692 44.4924 46.6962 45.1314C45.7822 45.6374 44.8782 46.1574 43.9682 46.6704C43.9042 46.6224 43.8392 46.5744 43.7752 46.5264C43.5312 46.3434 43.2912 46.7374 43.5072 46.9304C40.9782 48.3624 38.4612 49.8134 35.9772 51.3154C35.7282 51.4674 35.9532 51.8534 36.2102 51.7094ZM51.9762 43.0394C52.9782 43.7264 53.9673 44.4314 54.9543 45.1384C53.5143 45.8924 52.0762 46.6504 50.6372 47.4064C49.7272 46.6834 48.8003 45.9824 47.8543 45.3064C49.2293 44.5544 50.5982 43.7864 51.9762 43.0394ZM60.0342 42.4774C58.4692 43.2934 56.9082 44.1154 55.3442 44.9344C54.3632 44.2214 53.3772 43.5144 52.3782 42.8214C53.9122 41.9904 55.4392 41.1484 56.9782 40.3264C58.0092 41.0284 59.0272 41.7474 60.0342 42.4774ZM60.6872 42.9524C61.7262 43.7164 62.7553 44.4914 63.7683 45.2864C62.2043 46.1014 60.6412 46.9194 59.0772 47.7354C58.0702 46.9604 57.0642 46.1834 56.0392 45.4304C57.5902 44.6064 59.1402 43.7824 60.6872 42.9524ZM64.8742 40.7034C65.9452 41.4704 67.0022 42.2554 68.0472 43.0544C66.7592 43.7264 65.4712 44.3984 64.1832 45.0704C63.1752 44.2704 62.1532 43.4894 61.1192 42.7214C62.3702 42.0484 63.6242 41.3794 64.8742 40.7034ZM67.3562 47.6884C66.4732 46.9364 65.5802 46.1964 64.6752 45.4704C65.9582 44.7864 67.2412 44.1044 68.5242 43.4204C69.4862 44.1634 70.4382 44.9174 71.3782 45.6874C70.0292 46.3374 68.6902 47.0084 67.3562 47.6884ZM71.9312 46.1354C72.7732 46.8324 73.6062 47.5414 74.4302 48.2594C73.0822 48.9494 71.7432 49.6584 70.4072 50.3724C69.5942 49.6324 68.7723 48.9044 67.9413 48.1874C69.2683 47.5004 70.5922 46.8044 71.9312 46.1354ZM73.3983 40.2634C71.7713 41.1134 70.1433 41.9614 68.5143 42.8104C67.4763 42.0054 66.4253 41.2144 65.3593 40.4404C66.9273 39.5914 68.4982 38.7454 70.0632 37.8934C71.1952 38.6674 72.3053 39.4584 73.3983 40.2634ZM77.0302 43.0614C75.2852 43.8344 73.5542 44.6434 71.8302 45.4694C70.8942 44.6914 69.9452 43.9274 68.9852 43.1754C70.6012 42.3144 72.2163 41.4524 73.8333 40.5924C74.9173 41.3984 75.9822 42.2224 77.0302 43.0614ZM79.9692 45.4974C78.2502 46.3264 76.5463 47.1854 74.8463 48.0524C74.0313 47.3294 73.2072 46.6154 72.3732 45.9144C74.0672 45.0724 75.7662 44.2394 77.4802 43.4274C78.3202 44.1064 79.1522 44.7954 79.9692 45.4974ZM84.2232 43.4874C83.0012 44.0504 81.7842 44.6224 80.5712 45.2034C79.7572 44.5014 78.9322 43.8144 78.0952 43.1404C79.2432 42.5994 80.3922 42.0594 81.5492 41.5314C81.5582 41.5394 81.5562 41.5514 81.5672 41.5594C82.4702 42.1834 83.3532 42.8274 84.2232 43.4874ZM87.6792 46.2894C86.4012 46.9104 85.1332 47.5514 83.8612 48.1854C82.8972 47.2694 81.9152 46.3754 80.9132 45.5014C82.1212 44.9074 83.3342 44.3214 84.5522 43.7454C85.6212 44.5654 86.6602 45.4164 87.6792 46.2894ZM88.0812 46.6344C89.0022 47.4344 89.9063 48.2524 90.7853 49.0964C89.4283 49.7274 88.0772 50.3744 86.7352 51.0364C85.9302 50.2024 85.1112 49.3824 84.2752 48.5784C85.5422 47.9284 86.8082 47.2734 88.0812 46.6344ZM92.1102 44.1454C90.7612 44.7814 89.4232 45.4444 88.0802 46.0954C87.0682 45.2224 86.0342 44.3724 84.9742 43.5514C86.2492 42.9514 87.5293 42.3584 88.8163 41.7794C88.8333 41.8234 88.8493 41.8684 88.8983 41.9004C89.9993 42.6184 91.0652 43.3714 92.1102 44.1454ZM95.5902 46.9334C94.1112 47.5724 92.6462 48.2414 91.1832 48.9174C90.3032 48.0674 89.3982 47.2434 88.4772 46.4364C89.8112 45.7674 91.1402 45.0894 92.4832 44.4334C93.5502 45.2354 94.5842 46.0714 95.5902 46.9334ZM98.1832 49.2844C96.6542 49.9614 95.1362 50.6634 93.6292 51.3884C92.9612 50.6784 92.2762 49.9854 91.5812 49.3034C93.0422 48.6154 94.5042 47.9324 95.9782 47.2694C96.7312 47.9244 97.4662 48.5964 98.1832 49.2844ZM101.715 47.7644C100.694 48.1884 99.6772 48.6254 98.6642 49.0694C97.9602 48.3734 97.2392 47.6954 96.4982 47.0364C97.5562 46.5624 98.6072 46.0764 99.6742 45.6144C100.36 46.3284 101.036 47.0474 101.715 47.7644ZM104.814 51.0764C103.786 51.4904 102.762 51.9144 101.739 52.3424C100.902 51.3754 100.031 50.4404 99.1322 49.5324C100.125 49.0814 101.111 48.6184 102.112 48.1834C103.019 49.1434 103.919 50.1084 104.814 51.0764ZM104.996 47.0514C105.925 47.9934 106.831 48.9514 107.729 49.9164C106.92 50.2314 106.115 50.5574 105.309 50.8804C104.406 49.9034 103.495 48.9364 102.568 47.9854C103.365 47.6414 104.15 47.2764 104.953 46.9434C104.951 46.9784 104.962 47.0174 104.996 47.0514ZM113.337 56.3624C112.541 56.6754 111.747 56.9984 110.952 57.3184C110.104 56.2924 109.234 55.2844 108.359 54.2794C109.153 53.9414 109.943 53.5984 110.742 53.2694C111.625 54.2844 112.487 55.3184 113.337 56.3624ZM111.125 53.1104C111.711 52.8704 112.291 52.6214 112.88 52.3864C113.726 53.4314 114.556 54.4904 115.378 55.5574C114.812 55.7764 114.248 56.0044 113.683 56.2264C112.85 55.1714 112.002 54.1294 111.125 53.1104ZM107.944 53.7974C107.18 52.9274 106.404 52.0704 105.621 51.2174C106.419 50.8824 107.215 50.5454 108.017 50.2184C108.811 51.0764 109.582 51.9514 110.352 52.8294C109.546 53.1424 108.747 53.4734 107.944 53.7974ZM110.059 49.0114C109.407 49.2584 108.758 49.5164 108.107 49.7684C107.161 48.7724 106.201 47.7894 105.209 46.8364C105.917 46.5434 106.621 46.2474 107.334 45.9624C108.264 46.9674 109.171 47.9834 110.059 49.0114ZM112.542 51.9794C111.939 52.2044 111.341 52.4474 110.74 52.6784C109.971 51.7964 109.201 50.9154 108.399 50.0634C109.033 49.8064 109.664 49.5434 110.301 49.2904C111.062 50.1774 111.805 51.0764 112.542 51.9794ZM114.605 51.2054C114.079 51.3944 113.558 51.6004 113.034 51.7944C112.279 50.8884 111.505 49.9984 110.712 49.1284C111.388 48.8624 112.061 48.5884 112.741 48.3274C113.358 49.2844 113.978 50.2454 114.605 51.2054ZM115.84 55.3774C115.045 54.2944 114.223 53.2294 113.368 52.1904C113.866 51.9934 114.357 51.7864 114.857 51.5924C115.59 52.7074 116.347 53.8034 117.133 54.8744C116.702 55.0384 116.271 55.2114 115.84 55.3774ZM113.932 56.5344C114.485 56.3004 115.035 56.0584 115.589 55.8254C116.187 56.6054 116.775 57.3974 117.364 58.1874C116.763 58.3494 116.166 58.5234 115.571 58.7044C115.032 57.9764 114.491 57.2484 113.932 56.5344ZM111.249 57.6854C112.032 57.3504 112.813 57.0104 113.598 56.6774C114.163 57.3764 114.715 58.0884 115.266 58.8014C114.444 59.0574 113.635 59.3474 112.826 59.6404C112.305 58.9854 111.781 58.3334 111.249 57.6854ZM107.026 59.5044C108.319 58.9474 109.611 58.3874 110.906 57.8334C111.458 58.4634 112.006 59.0984 112.554 59.7344C111.086 60.2734 109.645 60.8804 108.226 61.5374C108.238 61.5094 108.241 61.4774 108.221 61.4424C107.84 60.7824 107.429 60.1464 107.026 59.5044ZM104.604 55.9214C105.702 55.4294 106.803 54.9424 107.912 54.4684C108.808 55.4624 109.702 56.4584 110.586 57.4644C109.302 57.9824 108.022 58.5124 106.746 59.0494C106.062 57.9834 105.352 56.9384 104.604 55.9214ZM104.193 55.3664C103.52 54.4734 102.825 53.5994 102.103 52.7484C103.114 52.3074 104.116 51.8504 105.133 51.4214C105.918 52.2724 106.702 53.1264 107.479 53.9844C106.378 54.4324 105.285 54.8974 104.193 55.3664ZM96.8803 55.0984C98.4793 54.3644 100.08 53.6344 101.693 52.9274C102.432 53.7674 103.147 54.6304 103.841 55.5144C102.2 56.2244 100.573 56.9674 98.9533 57.7254C98.2793 56.8324 97.5883 55.9574 96.8803 55.0984ZM96.4902 54.6294C95.7102 53.6994 94.9122 52.7864 94.0902 51.8974C95.6052 51.1644 97.1283 50.4464 98.6603 49.7454C99.5743 50.6424 100.461 51.5644 101.316 52.5184C99.6983 53.2004 98.0922 53.9114 96.4902 54.6294ZM89.5972 54.1374C90.9652 53.4394 92.3373 52.7504 93.7163 52.0804C94.5373 52.9634 95.3332 53.8704 96.1122 54.7944C94.6802 55.4394 93.2552 56.1014 91.8382 56.7764C91.1082 55.8834 90.3612 55.0034 89.5972 54.1374ZM89.1572 53.6424C88.4922 52.8994 87.8183 52.1654 87.1303 51.4444C88.4793 50.7794 89.8332 50.1254 91.1942 49.4824C91.8942 50.1654 92.5812 50.8614 93.2542 51.5714C91.8762 52.2394 90.5132 52.9344 89.1572 53.6424ZM81.4262 54.3554C83.1492 53.4534 84.8782 52.5634 86.6182 51.7004C87.3242 52.4154 88.0223 53.1434 88.7123 53.8804C87.0013 54.7834 85.3133 55.7284 83.6433 56.7004C82.9133 55.9084 82.1742 55.1264 81.4262 54.3554ZM78.6122 51.5514C80.3122 50.6564 82.0042 49.7444 83.7132 48.8654C84.5592 49.6614 85.3933 50.4724 86.2163 51.2974C84.4793 52.1604 82.7602 53.0584 81.0502 53.9714C80.2482 53.1534 79.4362 52.3464 78.6122 51.5514ZM78.1422 51.0974C77.1862 50.1844 76.2193 49.2824 75.2343 48.4014C76.9213 47.5204 78.6102 46.6454 80.3172 45.8004C81.3242 46.6724 82.3153 47.5624 83.2903 48.4694C81.5673 49.3324 79.8512 50.2084 78.1422 51.0974ZM73.6832 53.4674C72.7452 52.5474 71.7952 51.6414 70.8302 50.7534C72.1592 50.0294 73.4902 49.3104 74.8312 48.6074C75.8292 49.4844 76.8082 50.3814 77.7792 51.2904C76.4072 52.0064 75.0432 52.7324 73.6832 53.4674ZM66.0703 53.4304C67.5333 52.5994 68.9892 51.7554 70.4642 50.9494C71.4382 51.8344 72.3972 52.7354 73.3442 53.6524C71.9022 54.4344 70.4702 55.2344 69.0422 56.0394C69.0382 56.0334 69.0402 56.0274 69.0342 56.0214C68.0592 55.1404 67.0643 54.2874 66.0703 53.4304ZM62.9702 50.8304C64.4902 50.0054 66.0152 49.1884 67.5492 48.3904C68.3882 49.1054 69.2172 49.8304 70.0372 50.5684C68.5482 51.3674 67.0702 52.1874 65.5982 53.0184C64.7312 52.2764 63.8512 51.5524 62.9702 50.8304ZM62.3622 50.3344C61.4582 49.6004 60.5492 48.8714 59.6292 48.1574C61.1752 47.3344 62.7212 46.5124 64.2662 45.6894C65.1752 46.4104 66.0722 47.1464 66.9602 47.8934C65.4172 48.6844 63.8862 49.5024 62.3622 50.3344ZM54.6162 50.8134C56.1702 49.9874 57.7283 49.1694 59.2813 48.3424C60.2103 49.0524 61.1303 49.7744 62.0443 50.5034C60.4023 51.4034 58.7782 52.3334 57.1632 53.2774C57.1552 53.2634 57.1592 53.2494 57.1462 53.2364C56.3222 52.4084 55.4762 51.6034 54.6162 50.8134ZM54.1062 50.3424C53.1862 49.5124 52.2432 48.7094 51.2832 47.9274C52.7412 47.1624 54.2032 46.4064 55.6572 45.6354C56.6902 46.3834 57.7063 47.1524 58.7213 47.9224C57.1813 48.7244 55.6452 49.5374 54.1062 50.3424ZM47.9642 49.6534C48.9202 49.1554 49.8782 48.6634 50.8322 48.1634C51.8122 48.9334 52.7742 49.7274 53.7162 50.5474C52.8232 51.0144 51.9333 51.4844 51.0403 51.9514C50.0123 51.1874 48.9882 50.4204 47.9642 49.6534ZM44.5652 47.1154C45.4982 46.6054 46.4282 46.0874 47.3612 45.5774C48.3142 46.2474 49.2432 46.9454 50.1642 47.6544C49.2112 48.1544 48.2642 48.6654 47.3122 49.1674C46.3982 48.4814 45.4792 47.8014 44.5652 47.1154Z" fill="#432918"/>
<path d="M138.181 89.6245C138.868 89.1165 139.563 88.6295 140.26 88.1455C140.682 89.7735 141.029 91.4085 141.307 93.0555C140.412 93.6815 139.524 94.3174 138.649 94.9724C138.506 95.0794 138.643 95.3225 138.791 95.2155C139.642 94.5985 140.499 93.9935 141.36 93.3955C141.581 94.7555 141.756 96.1245 141.874 97.5075C141.25 98.0185 140.635 98.5385 140.035 99.0765C139.967 99.1375 140.06 99.2585 140.133 99.2035C140.72 98.7585 141.312 98.3395 141.902 97.9085C141.984 98.9565 142.036 100.013 142.056 101.078C141.152 101.739 140.256 102.409 139.381 103.104C139.312 103.159 139.403 103.274 139.475 103.225C140.341 102.634 141.203 102.04 142.066 101.447C142.067 101.53 142.073 101.612 142.073 101.696C142.073 101.741 142.142 101.741 142.143 101.696C142.146 101.594 142.143 101.493 142.146 101.392C142.638 101.054 143.132 100.716 143.625 100.378C143.531 101.339 143.42 102.302 143.278 103.268C142.05 104.163 140.835 105.077 139.641 106.022C139.447 106.176 139.722 106.452 139.914 106.295C144.963 102.171 150.29 98.4915 155.96 95.2755C155.995 95.2555 155.964 95.2015 155.928 95.2205C151.588 97.6165 147.411 100.262 143.409 103.169C143.581 102.192 143.716 101.215 143.83 100.238C144.234 99.9614 144.638 99.6844 145.042 99.4074C145.026 99.5044 145.016 99.6004 144.999 99.6964C144.989 99.7534 145.076 99.7785 145.087 99.7205C145.11 99.5915 145.127 99.4625 145.149 99.3325C147.931 97.4245 150.733 95.5485 153.574 93.7205C153.495 94.0485 153.429 94.3745 153.342 94.7025C153.32 94.7855 153.447 94.8205 153.471 94.7375C153.582 94.3575 153.668 93.9755 153.768 93.5945C154.453 93.1545 155.127 92.7004 155.819 92.2694C155.953 92.1854 155.831 91.9744 155.695 92.0574C155.085 92.4264 154.482 92.8155 153.874 93.1895C154.191 91.9355 154.459 90.6764 154.656 89.4114C160.14 86.1984 165.871 83.4364 172.083 81.2614C172.21 81.2164 172.156 81.0134 172.027 81.0584C166.115 83.1034 160.271 85.6494 154.743 88.7394C154.933 87.3674 155.07 85.9924 155.117 84.6134C155.426 84.4364 155.725 84.2464 156.035 84.0714C156.161 84.0004 156.048 83.8064 155.921 83.8774C155.651 84.0274 155.388 84.1915 155.119 84.3435C155.162 82.7735 155.115 81.2015 154.972 79.6295C156.818 78.7785 158.69 77.9665 160.621 77.2415C160.785 77.1805 160.714 76.9155 160.548 76.9775C158.648 77.6815 156.785 78.4685 154.941 79.2935C154.777 77.6375 154.514 75.9825 154.141 74.3315C154.094 74.1235 153.778 74.2124 153.822 74.4194C154.183 76.1074 154.443 77.7794 154.609 79.4424C153.767 79.8234 152.93 80.2174 152.1 80.6224C152.023 79.8694 151.956 79.1164 151.856 78.3634C151.827 78.1444 151.529 78.1874 151.559 78.4034C151.667 79.1884 151.745 79.9725 151.831 80.7575C149.549 81.8795 147.313 83.0905 145.145 84.4185C145.12 84.2845 145.103 84.1494 145.077 84.0144C145.059 83.9204 144.919 83.9614 144.935 84.0534C144.96 84.2054 144.978 84.3555 145.003 84.5075C144.453 84.8465 143.921 85.2135 143.378 85.5645C143.305 85.1515 143.242 84.7385 143.159 84.3265C143.123 84.1445 142.846 84.2224 142.881 84.4034C142.968 84.8484 143.036 85.2925 143.112 85.7375C142.246 86.3025 141.386 86.8784 140.538 87.4724C140.196 86.2094 139.809 84.9545 139.351 83.7155C139.266 83.4855 138.899 83.5795 138.978 83.8185C139.415 85.1285 139.803 86.4395 140.153 87.7545C139.419 88.2755 138.689 88.8025 137.977 89.3565C137.825 89.4765 138.028 89.7365 138.181 89.6245ZM145.584 90.1434C145.072 90.4794 144.569 90.8284 144.061 91.1694C143.948 89.4444 143.741 87.7214 143.453 86.0014C143.992 85.6534 144.524 85.2914 145.067 84.9544C145.33 86.6924 145.507 88.4204 145.584 90.1434ZM144.088 91.5265C144.591 91.1865 145.09 90.8414 145.595 90.5054C145.646 91.8804 145.633 93.2544 145.558 94.6314C145.082 94.9824 144.621 95.3504 144.152 95.7094C144.185 94.3144 144.17 92.9195 144.088 91.5265ZM151.875 81.1345C152.045 82.7635 152.176 84.3945 152.248 86.0265C150.065 87.3115 147.9 88.6255 145.781 90.0125C145.707 88.2925 145.516 86.5744 145.219 84.8594C147.385 83.5194 149.605 82.2845 151.875 81.1345ZM152.319 90.1495C150.052 91.5045 147.846 92.9525 145.724 94.5085C145.813 93.1305 145.837 91.7525 145.79 90.3755C147.91 88.9705 150.072 87.6304 152.257 86.3214C152.308 87.5954 152.327 88.8715 152.319 90.1495ZM154.811 84.5245C154.025 84.9705 153.252 85.4385 152.472 85.8955C152.418 84.2615 152.299 82.6285 152.14 80.9965C152.966 80.5815 153.798 80.1774 154.638 79.7864C154.784 81.3714 154.845 82.9485 154.811 84.5245ZM154.472 88.8984C153.806 89.2734 153.147 89.6594 152.491 90.0494C152.517 88.7614 152.514 87.4745 152.476 86.1895C153.251 85.7265 154.017 85.2535 154.8 84.8025C154.762 86.1675 154.645 87.5324 154.472 88.8984ZM145.236 98.7954C145.431 97.5944 145.578 96.3904 145.675 95.1864C147.854 93.6644 150.067 92.2384 152.305 90.8604C152.293 91.5854 152.293 92.3094 152.262 93.0364C152.258 93.1184 152.384 93.1174 152.388 93.0364C152.431 92.2764 152.444 91.5194 152.466 90.7614C153.11 90.3664 153.745 89.9544 154.394 89.5714C154.215 90.8174 153.962 92.0665 153.669 93.3195C150.821 95.0755 147.991 96.8814 145.236 98.7954ZM143.882 99.7585C144.005 98.5975 144.101 97.4355 144.143 96.2745C144.602 95.9485 145.059 95.6174 145.519 95.2954C145.436 96.4844 145.302 97.6775 145.121 98.8755C144.704 99.1655 144.295 99.4655 143.882 99.7585ZM142.112 97.7554C142.701 97.3254 143.288 96.8844 143.879 96.4624C143.847 97.6094 143.771 98.7594 143.668 99.9114C143.159 100.273 142.656 100.642 142.152 101.009C142.172 99.9225 142.159 98.8364 142.112 97.7554ZM141.696 93.1645C142.398 92.6785 143.1 92.1955 143.806 91.7165C143.888 93.1135 143.915 94.5105 143.889 95.9095C143.285 96.3745 142.688 96.8475 142.097 97.3275C142.024 95.9325 141.888 94.5445 141.696 93.1645ZM140.649 87.8684C141.49 87.2914 142.336 86.7284 143.187 86.1744C143.468 87.9054 143.672 89.6314 143.785 91.3554C143.07 91.8374 142.36 92.3265 141.652 92.8185C141.409 91.1535 141.076 89.5024 140.649 87.8684Z" fill="#432918"/>
<path d="M140.273 83.5805C144.351 80.9745 148.474 78.4354 152.576 75.8684C152.684 75.8004 152.782 75.9705 152.675 76.0385C148.587 78.6295 144.516 81.2525 140.404 83.8055C140.261 83.8935 140.132 83.6705 140.273 83.5805Z" fill="#432918"/>
<path d="M138.984 80.6454C143.569 77.4434 148.355 74.5644 153.326 72.0024C153.358 71.9854 153.387 72.0344 153.354 72.0504C148.383 74.6374 143.646 77.5684 139.105 80.8514C138.981 80.9414 138.858 80.7334 138.984 80.6454Z" fill="#432918"/>
<path d="M139.987 73.9744C145.802 69.7594 152.062 66.2034 158.554 63.1434C158.774 63.0394 158.967 63.3664 158.746 63.4714C152.223 66.5484 146.108 70.2014 140.165 74.2784C139.976 74.4074 139.807 74.1054 139.987 73.9744Z" fill="#432918"/>
<path d="M143.284 67.5964C146.805 65.3234 150.461 63.3144 154.277 61.5794C154.408 61.5204 154.522 61.7134 154.39 61.7734C150.585 63.5244 146.929 65.5425 143.429 67.8455C143.274 67.9475 143.128 67.6964 143.284 67.5964Z" fill="#432918"/>
<path d="M143.213 62.4834C147.249 59.6624 151.679 57.3644 156.152 55.3254C156.376 55.2234 156.573 55.5544 156.347 55.6594C151.842 57.7444 147.637 60.2334 143.419 62.8354C143.192 62.9754 143.001 62.6314 143.213 62.4834Z" fill="#432918"/>
<path d="M139.8 34.7725C139.806 34.7885 139.797 34.8014 139.808 34.8174C140.444 35.7974 141.057 36.7894 141.639 37.7914C141.536 37.8604 141.429 37.9265 141.326 37.9965C141.137 38.1245 141.304 38.4205 141.507 38.3065C141.613 38.2465 141.718 38.1815 141.824 38.1205C142.42 39.1615 142.978 40.2154 143.493 41.2814C142.989 41.6214 142.489 41.9665 141.996 42.3225C141.812 42.4555 141.981 42.7605 142.177 42.6325C142.677 42.3065 143.182 41.9995 143.685 41.6815C144.311 43.0105 144.864 44.3605 145.326 45.7315C145.207 45.8075 145.086 45.8795 144.968 45.9555C144.763 46.0865 144.949 46.4105 145.16 46.2835C145.257 46.2255 145.352 46.1634 145.449 46.1054C146.22 48.4824 146.716 50.9235 146.828 53.4385C146.101 53.9475 145.38 54.4634 144.668 54.9924C144.486 55.1274 144.657 55.4355 144.849 55.3025C145.478 54.8655 146.144 54.3814 146.836 53.8734C146.89 55.8744 146.715 57.9195 146.234 60.0175C146.187 60.2205 146.498 60.3065 146.546 60.1035C147.073 57.8965 147.271 55.7275 147.209 53.5985C148.308 52.7885 149.489 51.9295 150.697 51.0815C151.081 52.1865 151.449 53.3015 151.784 54.4355C151.825 54.5745 152.038 54.5155 152.001 54.3755C151.691 53.2025 151.338 52.0444 150.966 50.8934C151.316 50.6504 151.655 50.4015 152.011 50.1635C152.342 51.7325 152.556 53.3504 152.626 55.0404C152.632 55.1894 152.855 55.1904 152.858 55.0404C152.898 53.3034 152.725 51.5885 152.396 49.9085C155.644 47.7725 159.103 45.9875 162.347 45.8665C162.564 45.8585 162.564 45.5214 162.347 45.5284C159.341 45.6244 156.919 47.1314 154.377 48.6174C153.705 49.0104 153.046 49.4265 152.381 49.8325C152.205 48.9515 151.985 48.0814 151.713 47.2264C154.152 45.7424 156.68 44.4145 159.328 43.2835C159.438 43.2365 159.356 43.0455 159.247 43.0905C156.603 44.1875 154.071 45.4815 151.624 46.9275C151.202 45.6615 150.671 44.4344 150.046 43.2514C151.099 42.5874 152.15 41.9194 153.2 41.2524C153.606 42.0644 153.997 42.8864 154.359 43.7294C154.436 43.9094 154.741 43.7774 154.674 43.5964C154.346 42.7154 153.973 41.8575 153.577 41.0135C153.647 40.9695 153.717 40.9244 153.787 40.8804C153.955 40.7734 153.802 40.5094 153.631 40.6134C153.569 40.6514 153.507 40.6895 153.445 40.7275C152.859 39.5055 152.21 38.3184 151.49 37.1744C152.974 36.4054 154.482 35.6774 156.029 35.0054C156.257 34.9064 156.06 34.5745 155.834 34.6715C154.284 35.3365 152.755 36.0504 151.247 36.8074C150.046 34.9474 148.684 33.1894 147.173 31.5454C146.937 31.2884 146.553 31.6734 146.79 31.9284C148.284 33.5344 149.603 35.2425 150.781 37.0395C149.196 37.8485 147.639 38.7085 146.117 39.6295C145.552 38.6025 144.948 37.5945 144.325 36.5985C145.677 35.7525 147.017 34.8854 148.322 34.0014C148.441 33.9204 148.336 33.7354 148.208 33.8074C146.834 34.5854 145.459 35.4035 144.099 36.2415C143.898 35.9245 143.705 35.6015 143.497 35.2875C143.356 35.0735 143.012 35.2704 143.151 35.4894C143.355 35.8114 143.546 36.1384 143.745 36.4624C143.176 36.8164 142.599 37.1635 142.043 37.5295C141.486 36.5835 140.896 35.6515 140.283 34.7335C143.207 32.8425 146.135 31.0115 149.111 29.2015C149.327 29.0705 149.138 28.7634 148.916 28.8674C145.741 30.3594 142.579 32.3295 139.827 34.5045C139.729 34.5775 139.742 34.6885 139.8 34.7725ZM147.154 39.5635C148.031 40.7335 148.798 41.9295 149.459 43.1555C149.056 43.4025 148.658 43.6565 148.256 43.9045C147.661 42.6015 147.027 41.3164 146.345 40.0544C146.615 39.8934 146.882 39.7225 147.154 39.5635ZM149.869 42.9024C149.189 41.6634 148.4 40.4785 147.509 39.3615C148.668 38.6875 149.843 38.0414 151.03 37.4164C151.762 38.5604 152.431 39.7454 153.053 40.9624C151.991 41.6074 150.929 42.2534 149.869 42.9024ZM151.201 47.1784C150.777 47.4334 150.36 47.7025 149.94 47.9655C149.469 46.7155 148.968 45.4775 148.421 44.2595C148.824 44.0075 149.23 43.7615 149.632 43.5085C150.253 44.7005 150.777 45.9214 151.201 47.1784ZM150.057 48.2774C150.469 48.0114 150.878 47.7395 151.295 47.4815C151.569 48.3275 151.8 49.1895 151.989 50.0685C151.629 50.2905 151.274 50.5195 150.917 50.7445C150.646 49.9155 150.36 49.0934 150.057 48.2774ZM146.919 50.4315C147.838 49.7445 148.783 49.1055 149.738 48.4815C150.052 49.2865 150.352 50.0985 150.639 50.9175C149.478 51.6505 148.325 52.3945 147.197 53.1765C147.155 52.2545 147.057 51.3395 146.919 50.4315ZM145.841 45.8594C146.581 45.4094 147.315 44.9464 148.051 44.4884C148.607 45.6984 149.123 46.9265 149.614 48.1685C148.683 48.7595 147.76 49.3654 146.862 50.0144C146.628 48.6084 146.276 47.2244 145.841 45.8594ZM144.093 41.4215C144.709 41.0345 145.333 40.6654 145.955 40.2904C146.637 41.5564 147.277 42.8384 147.883 44.1364C147.162 44.5834 146.439 45.0275 145.722 45.4815C145.266 44.1065 144.716 42.7525 144.093 41.4215ZM142.238 37.8764C142.817 37.5384 143.387 37.1734 143.961 36.8174C144.573 37.8264 145.167 38.8404 145.729 39.8674C145.116 40.2434 144.499 40.6134 143.899 41.0104C143.388 39.9514 142.833 38.9064 142.238 37.8764Z" fill="#432918"/>
<path d="M136.55 31.9254C139.5 29.2984 142.749 27.0825 146.31 25.3615C147.553 24.7605 150.868 22.5444 152.107 23.8904C152.258 24.0544 152.03 24.2795 151.863 24.1345C150.464 22.9115 145.249 26.3795 143.838 27.1985C141.343 28.6465 139.039 30.3505 136.848 32.2245C136.643 32.3985 136.345 32.1074 136.55 31.9254Z" fill="#432918"/>
<path d="M133.964 27.6304C136.759 26.0984 139.537 24.5515 142.27 22.9095C142.422 22.8185 142.557 23.0515 142.408 23.1465C139.721 24.8525 136.981 26.4904 134.166 27.9764C133.939 28.0964 133.737 27.7544 133.964 27.6304Z" fill="#432918"/>
<path d="M129.251 24.5404C134.435 21.0254 140.059 18.2724 145.948 16.1614C146.106 16.1044 146.173 16.3554 146.017 16.4124C140.122 18.5824 134.688 21.4304 129.449 24.8804C129.237 25.0214 129.043 24.6824 129.251 24.5404Z" fill="#432918"/>
<path d="M126.637 20.9514C128.832 19.3734 131.146 18.0224 133.614 16.9194C133.732 16.8664 133.837 17.0405 133.717 17.0955C131.263 18.2265 128.95 19.5925 126.797 21.2245C126.636 21.3465 126.472 21.0704 126.637 20.9514Z" fill="#432918"/>
<path d="M122.977 18.3095C125.822 16.5775 128.716 14.9025 131.61 13.2535C131.708 13.1975 131.795 13.3455 131.699 13.4055C128.864 15.1555 126.007 16.8915 123.123 18.5595C122.961 18.6515 122.818 18.4055 122.977 18.3095Z" fill="#432918"/>
<path d="M101.013 16.7075C103.104 16.0955 105.167 15.4375 107.21 14.7405C106.031 14.5785 104.855 14.4024 103.674 14.2554C103.443 14.2264 103.442 13.8584 103.674 13.8894C105.076 14.0764 106.471 14.2995 107.868 14.5115C109.613 13.9065 111.338 13.2564 113.055 12.5844C111.041 12.5974 109.026 12.6104 107.012 12.6234C106.686 12.6254 106.686 12.1154 107.012 12.1174C109.382 12.1324 111.752 12.1475 114.122 12.1635C117.048 10.9895 119.943 9.72544 122.811 8.32944C122.98 8.24644 123.13 8.49645 122.96 8.58445C120.48 9.87545 117.947 11.0665 115.377 12.1715L116.346 12.1775C116.595 12.1795 116.595 12.5625 116.346 12.5645C115.7 12.5685 115.054 12.5725 114.408 12.5765C112.632 13.3205 110.843 14.0335 109.03 14.6845C111.384 15.0525 113.733 15.4545 116.076 15.8915C119.455 14.4185 122.756 12.8484 125.963 10.9544C126.018 10.9224 126.067 11.0065 126.013 11.0395C123.054 12.8505 119.995 14.5705 116.826 16.0245C117.017 16.0605 117.209 16.0894 117.399 16.1264C117.519 16.1494 117.468 16.3305 117.348 16.3095C117.068 16.2605 116.787 16.2205 116.507 16.1725C115.283 16.7255 114.044 17.2415 112.786 17.7015C112.553 17.7865 112.466 17.4275 112.685 17.3355C113.704 16.9095 114.714 16.4795 115.719 16.0435C113.285 15.6295 110.845 15.2504 108.401 14.9034C106.009 15.7454 103.59 16.5134 101.144 17.1824C100.838 17.2664 100.709 16.7965 101.013 16.7075Z" fill="#432918"/>
<path d="M85.6352 16.9154C95.5742 15.3844 104.963 12.4764 113.959 7.94543C114.068 7.89043 114.164 8.05243 114.055 8.10943C105.17 12.7734 95.6942 15.9155 85.7422 17.3025C85.4912 17.3365 85.3792 16.9544 85.6352 16.9154Z" fill="#432918"/>
<path d="M218.841 73.3715C218.831 73.1775 219.138 73.1765 219.143 73.3715C219.22 76.0425 218.77 78.5855 217.78 81.0695C217.747 81.1525 217.612 81.1174 217.644 81.0324C218.572 78.5594 218.971 76.0105 218.841 73.3715Z" fill="#432918"/>
<path d="M217.511 74.0364C217.511 73.8194 217.852 73.8194 217.849 74.0364C217.822 76.0764 217.569 78.0764 217.109 80.0634C217.079 80.1914 216.886 80.1375 216.912 80.0095C217.319 78.0355 217.51 76.0514 217.511 74.0364Z" fill="#432918"/>
<path d="M72.0594 29.0085C73.4364 31.1255 75.1454 32.7364 77.4654 33.7754C77.5734 33.8234 77.4964 34.0104 77.3844 33.9684C75.0424 33.0904 72.9304 31.4195 71.7254 29.2035C71.6064 28.9835 71.9244 28.7995 72.0594 29.0085Z" fill="#432918"/>
<path d="M74.1703 28.5494C75.3023 29.8864 76.5804 31.0174 78.0554 31.9644C78.2194 32.0694 78.0754 32.3174 77.9024 32.2254C76.3214 31.3824 74.9474 30.2114 73.8614 28.7874C73.7274 28.6114 74.0263 28.3784 74.1703 28.5494Z" fill="#432918"/>
<path d="M22.5113 35.2704C23.5603 33.2234 25.0274 31.2844 26.8294 29.8404C26.9634 29.7324 27.1524 29.9074 27.0234 30.0344C25.3534 31.6744 23.9643 33.4015 22.8753 35.4835C22.7493 35.7245 22.3873 35.5114 22.5113 35.2704Z" fill="#432918"/>
<path d="M23.5653 36.9714C24.5203 35.3914 25.7363 34.0124 27.1443 32.8204C27.3053 32.6844 27.5393 32.9135 27.3783 33.0545C26.0123 34.2525 24.8703 35.6325 23.8993 37.1675C23.7663 37.3765 23.4353 37.1854 23.5653 36.9714Z" fill="#432918"/>
<path d="M24.8343 68.2655C25.4773 67.0475 25.5683 65.7224 25.2003 64.4064C25.1203 64.1214 25.5503 64.0064 25.6413 64.2854C26.1023 65.6984 25.8813 67.1685 25.1143 68.4295C25.0043 68.6065 24.7373 68.4495 24.8343 68.2655Z" fill="#432918"/>
<path d="M23.8933 65.0364C23.8883 65.9254 23.8743 66.8145 23.8513 67.7035C23.8453 67.9255 23.5123 67.9255 23.5073 67.7035C23.4843 66.8145 23.4693 65.9264 23.4653 65.0364C23.4633 64.7604 23.8953 64.7604 23.8933 65.0364Z" fill="#432918"/>
<path d="M25.7422 74.4814C26.7392 74.8634 27.4632 75.9924 27.1152 77.0664C27.0712 77.2014 26.8372 77.1884 26.8532 77.0314C26.9432 76.1124 26.5512 75.2004 25.6382 74.8614C25.4012 74.7734 25.5052 74.3904 25.7422 74.4814Z" fill="#432918"/>
<path d="M17.0403 79.4654C17.0753 79.4704 17.0773 79.5244 17.0403 79.5214C15.8073 79.4334 14.5893 80.2864 14.1223 81.4004C14.0663 81.5334 13.8493 81.4844 13.8983 81.3384C14.3603 79.9674 15.6483 79.2814 17.0403 79.4654Z" fill="#432918"/>
<path d="M15.0122 79.1614C15.2392 79.1604 15.2372 79.5015 15.0122 79.5135C13.8492 79.5705 12.9692 80.5615 12.9312 81.7025C12.9222 81.9565 12.5512 81.9555 12.5372 81.7025C12.4632 80.3295 13.6672 79.1674 15.0122 79.1614Z" fill="#432918"/>
<path d="M15.3393 91.8954C15.4093 91.8904 15.4273 92.0094 15.3563 92.0194C14.1083 92.2064 13.1053 93.1754 12.9113 94.4254C12.8773 94.6414 12.5353 94.5534 12.5793 94.3334C12.8473 92.9944 13.9733 91.9844 15.3393 91.8954Z" fill="#432918"/>
<path d="M13.6482 91.2444C13.8142 91.1764 13.9272 91.4504 13.7702 91.5334C12.6062 92.1504 11.8382 93.1424 11.5302 94.4244C11.4602 94.7164 11.0212 94.5924 11.0822 94.3014C11.3732 92.9294 12.3562 91.7764 13.6482 91.2444Z" fill="#432918"/>
<path d="M23.3443 103.554C24.5613 103.61 25.6253 102.598 25.5663 101.368C25.5583 101.196 25.8223 101.198 25.8333 101.368C25.9243 102.731 24.7193 103.978 23.3443 103.871C23.1443 103.855 23.1393 103.545 23.3443 103.554Z" fill="#432918"/>
<path d="M22.6183 102.479C23.5063 102.295 24.1403 101.749 24.5853 100.975C24.6743 100.821 24.9473 100.924 24.8813 101.1C24.5283 102.029 23.6913 102.674 22.7333 102.893C22.4633 102.955 22.3493 102.535 22.6183 102.479Z" fill="#432918"/>
<path d="M31.7064 104.468C31.7334 104.46 31.7484 104.442 31.7604 104.423C32.1734 104.533 32.5874 104.639 32.9984 104.754C33.0644 104.772 33.0904 104.673 33.0264 104.652C32.3324 104.43 31.6344 104.217 30.9384 104.001C30.8924 103.987 30.8254 104.018 30.8184 104.069C30.7284 104.663 31.2954 104.591 31.7064 104.468Z" fill="#432918"/>
<path d="M29.3032 104.892C30.4832 104.716 31.6402 105.027 32.5002 105.872C32.5642 105.934 32.4782 106.055 32.4022 105.999C31.5262 105.345 30.4882 105.046 29.4022 105.251C29.1652 105.296 29.0692 104.927 29.3032 104.892Z" fill="#432918"/>
<path d="M37.1923 109.929C37.9663 110.949 38.8883 111.762 40.0543 112.307C40.1653 112.359 40.0853 112.553 39.9703 112.506C38.7353 112.009 37.6353 111.216 36.8643 110.12C36.7213 109.918 37.0473 109.739 37.1923 109.929Z" fill="#432918"/>
<path d="M38.5242 109.654C38.7712 110.397 39.3132 110.968 40.0432 111.251C40.2092 111.315 40.1422 111.582 39.9682 111.522C39.1132 111.226 38.4812 110.599 38.1642 109.753C38.0822 109.53 38.4492 109.425 38.5242 109.654Z" fill="#432918"/>
<path d="M47.2552 111.224C48.2902 110.568 49.4942 110.386 50.6762 110.711C50.7242 110.724 50.7042 110.796 50.6552 110.786C49.4952 110.526 48.3512 110.753 47.3782 111.437C47.2512 111.527 47.1202 111.309 47.2552 111.224Z" fill="#432918"/>
<path d="M47.5133 112.87C48.4433 111.875 49.6513 111.29 51.0083 111.177C51.1763 111.163 51.2173 111.449 51.0483 111.474C49.7923 111.656 48.6883 112.255 47.8613 113.218C47.6563 113.457 47.2963 113.103 47.5133 112.87Z" fill="#432918"/>
<path d="M59.3453 118.148C60.4563 118.152 61.5673 118.155 62.6783 118.158C62.9493 118.159 62.9503 118.579 62.6783 118.58C61.5673 118.584 60.4563 118.587 59.3453 118.59C59.0603 118.592 59.0603 118.147 59.3453 118.148Z" fill="#432918"/>
<path d="M58.2813 117.469C59.3943 117.248 60.5093 117.042 61.6253 116.839C61.8673 116.795 61.9733 117.157 61.7283 117.212C60.6223 117.457 59.5173 117.697 58.4073 117.923C58.1103 117.984 57.9843 117.528 58.2813 117.469Z" fill="#432918"/>
<path d="M32.2341 125.581C33.3241 124.24 35.0721 123.641 36.7561 124.054C36.9131 124.093 36.8851 124.365 36.7171 124.344C35.1191 124.14 33.6221 124.684 32.5581 125.904C32.3621 126.129 32.0521 125.806 32.2341 125.581Z" fill="#432918"/>
<path d="M32.1904 123.879C32.8294 123.188 33.7313 122.778 34.6793 122.842C34.9003 122.857 34.9023 123.174 34.6793 123.187C33.8243 123.235 33.0883 123.561 32.5283 124.217C32.3303 124.45 31.9804 124.106 32.1904 123.879Z" fill="#432918"/>
<path d="M70.7133 121.581C72.1533 121.903 73.5344 122.079 75.0094 121.946C75.0964 121.938 75.0924 122.069 75.0094 122.08C73.5604 122.269 72.0494 122.26 70.6294 121.887C70.4314 121.835 70.5153 121.537 70.7133 121.581Z" fill="#432918"/>
<path d="M70.4284 119.873C71.2704 120.513 72.2414 120.752 73.2674 120.435C73.5334 120.353 73.6413 120.761 73.3813 120.849C72.2673 121.227 71.0334 121.026 70.1354 120.254C69.9284 120.077 70.2074 119.706 70.4284 119.873Z" fill="#432918"/>
<path d="M86.9033 120.931C87.6843 120.16 88.0033 119.174 87.8073 118.094C87.7503 117.782 88.2153 117.644 88.2883 117.961C88.5613 119.149 88.1203 120.434 87.1563 121.184C86.9803 121.322 86.7333 121.098 86.9033 120.931Z" fill="#432918"/>
<path d="M86.7702 116.967C86.8802 116.7 87.3192 116.813 87.2112 117.088C86.8572 117.986 86.4532 118.865 86.0652 119.749C85.9942 119.912 85.7142 119.795 85.7762 119.627C86.1012 118.739 86.4112 117.843 86.7702 116.967Z" fill="#432918"/>
<path d="M108.958 114.187C111.583 113.65 113.707 112.497 115.687 110.707C115.828 110.579 116.023 110.774 115.896 110.916C114.14 112.867 111.65 114.163 109.078 114.621C108.796 114.671 108.672 114.245 108.958 114.187Z" fill="#432918"/>
<path d="M108.684 115.556C110.676 115.332 112.48 114.847 114.231 113.846C114.369 113.767 114.489 113.975 114.355 114.058C112.642 115.126 110.709 115.854 108.684 115.991C108.4 116.011 108.411 115.586 108.684 115.556Z" fill="#432918"/>
<path d="M98.5353 110.287C99.2743 109.241 100.391 108.605 101.676 108.563C101.801 108.559 101.794 108.739 101.676 108.753C100.52 108.888 99.4992 109.502 98.8692 110.482C98.7342 110.693 98.3923 110.489 98.5353 110.287Z" fill="#432918"/>
<path d="M96.8992 109.638C97.5072 108.826 98.3632 108.261 99.3112 107.916C99.4532 107.864 99.5092 108.086 99.3732 108.14C98.4692 108.499 97.7522 109.08 97.1092 109.8C97.0102 109.911 96.8082 109.76 96.8992 109.638Z" fill="#432918"/>
<path d="M93.4772 103.836C94.3042 104.465 95.0592 105.186 95.8252 105.886C95.9882 106.034 95.7512 106.261 95.5862 106.125C94.7992 105.472 93.9892 104.835 93.2632 104.112C93.1272 103.976 93.3142 103.712 93.4772 103.836Z" fill="#432918"/>
<path d="M92.4682 105.187C93.1062 104.548 94.2602 106.106 94.5812 106.486C94.7422 106.677 94.4882 106.943 94.3032 106.765C94.2092 106.675 93.5452 106.109 93.0842 105.753C92.8242 106.239 92.0532 105.602 92.4682 105.187Z" fill="#432918"/>
<path d="M99.5333 102.619C100.468 101.27 102.126 100.676 103.719 100.892C103.89 100.915 103.851 101.215 103.678 101.196C102.124 101.027 100.812 101.673 99.8143 102.837C99.6833 102.989 99.4163 102.787 99.5333 102.619Z" fill="#432918"/>
<path d="M98.0902 101.894C98.6412 100.805 99.7903 100.148 101.01 100.261C101.183 100.277 101.19 100.537 101.01 100.535C99.9203 100.523 98.9522 101.144 98.5152 102.142C98.3902 102.427 97.9452 102.18 98.0902 101.894Z" fill="#432918"/>
<path d="M112.433 96.5515C113.414 97.1715 114.29 98.1494 114.602 99.2904C114.651 99.4704 114.383 99.5944 114.293 99.4204C113.773 98.4054 113.182 97.5635 112.216 96.9215C111.988 96.7705 112.197 96.4035 112.433 96.5515Z" fill="#432918"/>
<path d="M111.509 96.5414C112.206 97.2184 112.693 98.0214 112.986 98.9464C113.079 99.2414 112.641 99.3464 112.532 99.0714C112.211 98.2684 111.725 97.5464 111.116 96.9334C110.864 96.6804 111.252 96.2924 111.509 96.5414Z" fill="#432918"/>
<path d="M115.346 86.5195C115.562 86.5295 115.564 86.8615 115.346 86.8575C114.255 86.8365 113.292 87.4785 112.843 88.4655C112.758 88.6515 112.43 88.5164 112.509 88.3244C112.983 87.1734 114.098 86.4605 115.346 86.5195Z" fill="#432918"/>
<path d="M111.546 87.5685C112.17 86.7715 113.004 86.1965 113.984 85.9335C114.157 85.8875 114.221 86.1385 114.057 86.1975C113.178 86.5185 112.417 87.0545 111.861 87.8105C111.691 88.0435 111.367 87.7985 111.546 87.5685Z" fill="#432918"/>
<path d="M108.457 73.1785C109.499 73.6305 110.487 74.2535 111.481 74.8025C111.731 74.9405 111.509 75.3185 111.257 75.1855C110.255 74.6525 109.194 74.1645 108.247 73.5375C108.02 73.3855 108.216 73.0735 108.457 73.1785Z" fill="#432918"/>
<path d="M108.161 75.5544C108.254 75.6654 108.37 75.6584 108.458 75.5974C108.514 75.6444 108.571 75.6905 108.627 75.7375C108.826 75.9055 109.024 76.0735 109.234 76.2285C109.441 76.3815 109.677 76.0514 109.502 75.8804C109.258 75.6424 109.018 75.4035 108.764 75.1765C108.613 75.0405 108.332 74.7065 108.095 74.7325C107.968 74.7465 107.881 74.8064 107.836 74.9294C107.754 75.1534 108.038 75.4074 108.161 75.5544Z" fill="#432918"/>
<path d="M101.858 81.2784C102.307 80.5184 103.131 80.0854 104.013 80.1744C104.248 80.1984 104.254 80.5665 104.013 80.5475C103.264 80.4875 102.591 80.8355 102.222 81.4915C102.089 81.7285 101.72 81.5134 101.858 81.2784Z" fill="#432918"/>
<path d="M97.0182 83.9405C98.4832 83.9185 99.6811 85.3485 99.3571 86.7845C99.3171 86.9625 99.0151 86.9285 99.0321 86.7405C99.1421 85.5635 98.2182 84.4514 97.0182 84.4324C96.7012 84.4274 96.7002 83.9455 97.0182 83.9405Z" fill="#432918"/>
<path d="M85.0053 84.5394C86.2403 84.6364 86.9943 86.2184 86.2113 87.2114C86.0833 87.3734 85.8593 87.1674 85.9403 87.0024C86.3433 86.1824 85.8293 85.2084 84.9353 85.0564C84.6443 85.0084 84.7093 84.5164 85.0053 84.5394Z" fill="#432918"/>
<path d="M78.4232 88.5595C79.1672 89.0915 79.3832 90.0505 78.9482 90.8565C78.8482 91.0405 78.5172 90.9125 78.6012 90.7105C78.8682 90.0655 78.6562 89.3854 78.1122 88.9634C77.8842 88.7854 78.1862 88.3895 78.4232 88.5595Z" fill="#432918"/>
<path d="M76.8062 89.1494C77.4612 89.5574 77.7492 90.3395 77.4942 91.0725C77.4132 91.3055 77.0452 91.2095 77.1212 90.9695C77.2982 90.4085 77.0922 89.8314 76.5902 89.5194C76.3562 89.3744 76.5712 89.0034 76.8062 89.1494Z" fill="#432918"/>
<path d="M78.5444 94.4874C79.4854 93.8314 80.5443 93.4624 81.6883 93.3824C81.8263 93.3724 81.8193 93.5764 81.6883 93.5934C80.6193 93.7274 79.6323 94.1324 78.7833 94.7964C78.5603 94.9714 78.3094 94.6514 78.5444 94.4874Z" fill="#432918"/>
<path d="M76.0042 97.7525C76.2262 97.7315 76.2812 98.1135 76.0572 98.1465C74.8232 98.3285 73.9392 99.2524 73.6862 100.454C73.6132 100.8 73.1122 100.647 73.1642 100.31C73.3792 98.9105 74.6282 97.8815 76.0042 97.7525Z" fill="#432918"/>
<path d="M74.6701 106.484C74.8481 106.465 74.8831 106.753 74.7121 106.795C73.3871 107.117 72.4311 107.897 71.8881 109.152C71.7951 109.366 71.4281 109.213 71.5091 108.992C71.9931 107.666 73.2601 106.636 74.6701 106.484Z" fill="#432918"/>
<path d="M65.3072 98.5525C65.4522 98.5215 65.5152 98.7425 65.3682 98.7765C64.4972 98.9805 63.8062 99.5704 63.4902 100.411C63.4262 100.58 63.1522 100.504 63.2192 100.336C63.5832 99.4195 64.3392 98.7605 65.3072 98.5525Z" fill="#432918"/>
<path d="M63.5913 97.8804C63.7563 97.8084 63.9033 98.0365 63.7373 98.1295C62.8773 98.6085 62.3233 99.2895 61.8673 100.145C61.7593 100.348 61.4023 100.208 61.4883 99.9854C61.8553 99.0314 62.6623 98.2824 63.5913 97.8804Z" fill="#432918"/>
<path d="M60.6953 92.3034C61.8843 92.7294 62.8483 93.5315 63.5143 94.6025C63.5743 94.6995 63.4233 94.7854 63.3623 94.6914C62.7073 93.6784 61.7643 92.9345 60.6403 92.5005C60.5203 92.4535 60.5703 92.2584 60.6953 92.3034Z" fill="#432918"/>
<path d="M60.1252 92.5114C61.0262 93.0844 61.7943 93.8014 62.4413 94.6504C62.5273 94.7634 62.3332 94.9144 62.2422 94.8034C61.5932 94.0094 60.8252 93.3454 59.9512 92.8094C59.7622 92.6934 59.9382 92.3924 60.1252 92.5114Z" fill="#432918"/>
<path d="M62.6413 85.9064C62.8303 85.8754 62.9144 86.1595 62.7214 86.1985C61.8624 86.3685 61.1624 86.9275 60.8324 87.7445C60.7434 87.9645 60.3813 87.8665 60.4733 87.6455C60.8583 86.7195 61.6463 86.0704 62.6413 85.9064Z" fill="#432918"/>
<path d="M65.1972 81.7914C65.8512 81.3294 66.5251 80.8944 67.1921 80.4514C67.4231 80.2974 67.6332 80.6664 67.4082 80.8214C66.7492 81.2774 66.0961 81.7434 65.4241 82.1794C65.1781 82.3394 64.9642 81.9554 65.1972 81.7914Z" fill="#432918"/>
<path d="M51.6583 81.2804C51.9093 81.9344 52.1293 82.6034 52.3263 83.2754C52.3993 83.5244 52.0043 83.7064 51.8953 83.4564C51.6063 82.7934 51.3363 82.1184 51.1023 81.4334C50.9813 81.0784 51.5283 80.9404 51.6583 81.2804Z" fill="#432918"/>
<path d="M49.1712 80.8885C50.0052 81.5535 50.5682 82.6274 50.6112 83.6964C50.6202 83.9234 50.2572 83.9775 50.2102 83.7505C50.0002 82.7375 49.5662 81.9564 48.7722 81.2854C48.4942 81.0504 48.8932 80.6675 49.1712 80.8885Z" fill="#432918"/>
<path d="M49.6202 91.6274C49.8902 92.3884 50.0862 93.1784 50.3022 93.9554C50.3872 94.2624 49.9252 94.3865 49.8272 94.0865C49.5782 93.3185 49.3062 92.5515 49.1112 91.7675C49.0282 91.4345 49.5072 91.3104 49.6202 91.6274Z" fill="#432918"/>
<path d="M40.7741 98.5664C41.3051 97.5564 42.5912 96.9594 43.7082 97.2704C43.8672 97.3144 43.8422 97.5814 43.6682 97.5674C42.6072 97.4804 41.7012 97.8564 41.0892 98.7504C40.9582 98.9444 40.6641 98.7774 40.7741 98.5664Z" fill="#432918"/>
<path d="M39.4073 94.2165C39.6893 93.7605 40.1393 93.5214 40.6753 93.5444C40.9273 93.5554 40.9303 93.9394 40.6753 93.9384C40.2883 93.9374 39.9884 94.1064 39.7844 94.4364C39.6364 94.6744 39.2593 94.4555 39.4073 94.2165Z" fill="#432918"/>
<path d="M37.6282 93.9364C38.2552 93.4554 38.8462 92.9474 39.3842 92.3694C39.4862 92.2604 39.6701 92.2924 39.7431 92.4154C39.8811 92.6484 40.1902 92.7824 40.4102 92.9214C40.5242 92.9944 40.4232 93.1695 40.3032 93.1035C40.1182 93.0005 39.8061 92.7395 39.5801 92.8285C39.3941 92.9015 39.1311 93.2805 38.9851 93.4145C38.6271 93.7425 38.2501 94.0414 37.8471 94.3114C37.6101 94.4724 37.4122 94.1024 37.6282 93.9364Z" fill="#432918"/>
<path d="M34.1831 85.1975C35.0151 85.8455 35.4241 87.0205 35.5021 88.0365C35.5141 88.2005 35.2341 88.2415 35.2121 88.0755C35.0681 87.0085 34.5601 86.2935 33.8791 85.5005C33.6961 85.2865 33.9681 85.0295 34.1831 85.1975Z" fill="#432918"/>
<path d="M37.1972 77.7824C38.2002 77.2424 39.3182 77.1394 40.4022 77.4924C40.6932 77.5874 40.5722 78.0415 40.2752 77.9535C39.3182 77.6695 38.3452 77.7704 37.4662 78.2434C37.1642 78.4064 36.8942 77.9454 37.1972 77.7824Z" fill="#432918"/>
</svg>
