<svg width="227" height="174" viewBox="0 0 227 174" fill="none" xmlns="http://www.w3.org/2000/svg">
<path d="M161.915 39.5728C155.741 33.1448 149.628 21.8188 144.97 16.2518C131.348 -0.0281734 116.719 -3.60916 97.9735 7.12384C83.8615 15.2048 74.7325 33.6088 61.2495 43.4608C53.4475 49.1618 44.6264 51.6708 36.5274 56.5638C21.8984 65.4028 10.0005 82.4918 5.76845 101.515C1.31645 121.53 6.13145 141.378 17.2745 154.591C28.3444 167.718 49.1615 177.561 65.8535 171.569C74.2245 168.564 81.3105 160.941 89.1905 155.907C101.843 147.822 116.111 146.693 129.531 147.792C142.951 148.89 156.088 152.028 169.665 151.767C183.242 151.507 197.779 147.393 208.835 136.004C220.736 123.744 226.995 103.548 224.243 86.2808C223.113 79.1908 220.585 72.4288 216.9 67.1018C212.416 60.6218 204.694 55.8008 197.711 54.3598C182.816 51.2878 169.967 47.9548 161.915 39.5728Z" stroke="#E6E7E8" stroke-miterlimit="10"/>
<path d="M69.3926 133.307C76.2596 139.148 83.4406 149.593 88.6756 154.673C103.989 169.531 119.364 172.431 137.887 161.754C151.832 153.716 159.838 136.139 172.998 126.457C180.612 120.855 189.524 118.218 197.507 113.365C211.927 104.599 222.893 88.1689 225.798 70.1669C228.854 51.2269 222.357 32.7369 209.84 20.6799C197.404 8.70187 175.161 0.116883 158.392 6.27588C149.983 9.36388 143.255 16.7489 135.51 21.7279C123.072 29.7229 108.432 31.2369 94.4956 30.6319C80.5596 30.0269 66.7586 27.4969 52.7656 28.1719C38.7726 28.8469 24.0836 33.1729 13.5486 44.2209C2.20758 56.1139 -2.69844 75.2829 1.46957 91.4139C3.18157 98.0369 6.30956 104.308 10.5246 109.195C15.6506 115.139 23.9916 119.422 31.3116 120.554C46.9176 122.967 60.4366 125.69 69.3926 133.307Z" fill="#E6E7E8"/>
<path d="M14.0816 117.976C16.7096 132.27 22.1166 146.364 31.4246 154.754C45.0956 167.078 63.6836 164.415 79.5476 157.854C95.4126 151.293 110.801 141.281 127.437 140.302C141.585 139.47 155.421 145.273 169.491 147.373C179.523 148.87 190.922 149.021 199.536 141.619C207.613 134.679 213.911 124.22 216.936 112.266C221.234 95.2799 218.8 72.7599 209.81 58.8219C200.448 44.3059 183.599 40.9979 169.9 40.5889C147.122 39.9089 126.067 41.8009 105.182 27.8249C95.3336 21.2349 85.0726 15.3199 74.1206 12.6459C54.3606 7.82087 37.3196 15.0049 27.4916 32.7029C19.8226 46.5129 15.2126 63.1499 13.1956 78.7449C11.5166 91.7319 11.7236 105.15 14.0816 117.976Z" fill="url(#paint0_linear_485_2)"/>
<path d="M77.2265 128.349C84.7275 131.98 93.3865 139.309 99.2235 142.588C116.294 152.178 131.178 152.018 146.448 140.284C157.944 131.451 162.11 115.822 172.564 105.778C178.613 99.9668 186.43 96.3568 192.963 91.0948C204.765 81.5898 211.907 66.4108 211.235 51.2718C210.528 35.3448 200.997 21.3508 187.058 13.5838C173.21 5.86782 150.854 2.52381 136.372 10.2898C129.11 14.1838 124.222 21.3018 117.933 26.6278C107.834 35.1798 94.4655 38.8138 81.3545 40.6058C68.2435 42.3988 54.8975 42.6018 41.9735 45.4468C29.0495 48.2918 16.1625 54.2238 8.41246 64.9498C0.0694637 76.4968 -0.906544 92.9128 6.01046 105.368C8.85046 110.481 12.9465 115.076 17.7945 118.365C23.6915 122.366 32.2755 124.486 39.3145 124.207C54.3245 123.614 67.4435 123.614 77.2265 128.349Z" fill="url(#paint1_linear_485_2)"/>
<path d="M150.281 37.6018C144.456 31.5878 138.678 20.9999 134.282 15.7929C121.426 0.564859 107.648 -2.81015 90.0266 7.17085C76.7606 14.6849 68.2076 31.8488 55.5366 41.0188C48.2056 46.3248 39.9076 48.6488 32.2956 53.1998C18.5446 61.4208 7.38163 77.3509 3.43863 95.1029C-0.709374 113.78 3.86462 132.321 14.3816 144.681C24.8296 156.96 44.4436 166.194 60.1426 160.635C68.0146 157.847 74.6696 150.746 82.0746 146.062C93.9666 138.541 107.395 137.517 120.029 138.571C132.663 139.625 145.035 142.582 157.813 142.368C170.592 142.154 184.266 138.344 194.648 127.734C205.824 116.313 211.672 97.4699 209.045 81.3428C207.966 74.7218 205.573 68.4028 202.092 63.4208C197.858 57.3608 190.579 52.8448 184.003 51.4838C169.979 48.5838 157.877 45.4448 150.281 37.6018Z" stroke="#F9FBFC" stroke-miterlimit="10"/>
<path d="M139.658 27.0778C132.619 22.9858 124.586 14.8948 119.122 11.2238C103.142 0.486832 88.9586 0.270837 74.0686 12.4658C62.8586 21.6458 58.4316 38.3098 48.1786 48.8168C42.2456 54.8958 34.6936 58.5658 28.3166 64.0428C16.7956 73.9358 9.54665 90.0398 9.74265 106.304C9.94865 123.415 18.6176 138.681 31.6676 147.379C44.6326 156.02 65.8306 160.191 79.8536 152.234C86.8856 148.244 91.7506 140.732 97.8976 135.181C107.769 126.266 120.611 122.715 133.153 121.133C145.695 119.551 158.414 119.68 170.808 116.964C183.202 114.247 195.652 108.217 203.35 96.9068C211.637 84.7328 213.048 67.1398 206.824 53.5948C204.269 48.0328 200.502 42.9958 195.98 39.3398C190.479 34.8928 182.365 32.3948 175.652 32.5098C161.335 32.7558 148.838 32.4138 139.658 27.0778Z" stroke="url(#paint2_linear_485_2)" stroke-width="2" stroke-miterlimit="10"/>
<path d="M28.3286 45.4678C32.6668 45.4678 36.1836 41.951 36.1836 37.6128C36.1836 33.2746 32.6668 29.7578 28.3286 29.7578C23.9904 29.7578 20.4736 33.2746 20.4736 37.6128C20.4736 41.951 23.9904 45.4678 28.3286 45.4678Z" fill="url(#paint3_linear_485_2)"/>
<path d="M222.927 59.7598C222.927 61.9288 221.169 63.6878 218.999 63.6878C216.83 63.6878 215.071 61.9298 215.071 59.7598C215.071 57.5898 216.83 55.8318 218.999 55.8318C221.169 55.8318 222.927 57.5908 222.927 59.7598Z" fill="url(#paint4_linear_485_2)"/>
<path d="M98.9046 153.388C101.074 153.388 102.833 151.629 102.833 149.46C102.833 147.29 101.074 145.532 98.9046 145.532C96.7352 145.532 94.9766 147.29 94.9766 149.46C94.9766 151.629 96.7352 153.388 98.9046 153.388Z" fill="url(#paint5_linear_485_2)"/>
<defs>
<linearGradient id="paint0_linear_485_2" x1="129.749" y1="24.2347" x2="98.5898" y2="173.388" gradientUnits="userSpaceOnUse">
<stop stop-color="#DCEFC7"/>
<stop offset="1" stop-color="#BCE079"/>
</linearGradient>
<linearGradient id="paint1_linear_485_2" x1="78.0762" y1="20.574" x2="147.253" y2="140.383" gradientUnits="userSpaceOnUse">
<stop stop-color="#E4F3DA"/>
<stop offset="1" stop-color="#BCE079"/>
</linearGradient>
<linearGradient id="paint2_linear_485_2" x1="8.92939" y1="80.1025" x2="211.541" y2="80.7307" gradientUnits="userSpaceOnUse">
<stop stop-color="#BCE079"/>
<stop offset="1" stop-color="#DDEFC9"/>
</linearGradient>
<linearGradient id="paint3_linear_485_2" x1="24.4001" y1="30.8084" x2="32.2568" y2="44.4165" gradientUnits="userSpaceOnUse">
<stop stop-color="#DCEFC8"/>
<stop offset="1" stop-color="#BCE079"/>
</linearGradient>
<linearGradient id="paint4_linear_485_2" x1="217.035" y1="56.3576" x2="220.964" y2="63.1616" gradientUnits="userSpaceOnUse">
<stop stop-color="#FFC92B"/>
<stop offset="0.0001" stop-color="#DCEFC6"/>
<stop offset="1" stop-color="#BCE079"/>
</linearGradient>
<linearGradient id="paint5_linear_485_2" x1="96.9404" y1="146.058" x2="100.869" y2="152.862" gradientUnits="userSpaceOnUse">
<stop stop-color="#D8EDBF"/>
<stop offset="1" stop-color="#BCE079"/>
</linearGradient>
</defs>
</svg>
