<svg width="221" height="207" viewBox="0 0 221 207" fill="none" xmlns="http://www.w3.org/2000/svg">
<path d="M30.3623 140.632C38.3603 144.94 47.8253 145.09 55.5613 149.956C65.2443 156.046 70.1893 168.066 75.1343 179.007C80.0803 189.948 86.7333 201.559 97.4273 204.895C108.692 208.409 120.258 201.272 128.393 192.408C136.528 183.544 142.939 172.626 152.449 165.565C162.849 157.843 175.802 155.565 187.791 151.242C199.781 146.919 212.051 139.163 215.794 125.971C219.88 111.574 211.85 95.2411 200.144 86.7311C188.438 78.2211 173.969 76.0231 160.08 75.5051C151.815 75.1971 142.738 75.0881 136.369 69.1451C129.814 63.0291 128.368 52.8341 124.618 44.3791C117.969 29.3861 102.57 19.4321 87.5423 20.4131C72.5143 21.3941 58.8263 33.2461 54.5853 48.9501C52.2613 57.5571 52.4023 67.3991 47.4173 74.4661C44.0113 79.2941 38.7173 82.0161 33.5073 84.2491C28.2973 86.4831 22.8533 88.4691 18.5453 92.3401C4.65129 104.825 16.4153 133.121 30.3623 140.632Z" stroke="#E6E7E8" stroke-miterlimit="10"/>
<path d="M190.82 126.194C177.872 107.677 173.311 84.8311 178.204 62.9751C180.663 51.9941 177.457 40.0711 168.614 31.5541C155.387 18.8151 134.336 18.3311 120.528 30.0851L120.52 30.0771C101.061 46.5941 74.8664 53.5601 49.4324 49.0171C49.3904 49.0091 49.3314 49.0011 49.2884 48.9931C40.4224 47.3981 30.9174 49.9311 24.0744 56.5931C14.4034 66.0081 13.2784 80.5251 20.6504 91.1291C31.7514 107.134 36.6574 126.399 34.5334 145.56C33.3644 156.089 36.9644 167.022 45.3174 175.066C55.5914 184.96 70.3264 187.872 83.2204 183.81C83.3304 183.769 83.4314 183.736 83.5324 183.703C102.168 177.999 122.274 178.715 140.423 185.729C140.575 185.778 140.727 185.843 140.871 185.9V185.893C155.888 191.797 173.738 188.845 185.882 177.023C200.113 163.165 201.742 141.783 190.82 126.194Z" fill="#E6E7E8"/>
<path d="M179.78 118.38C168.18 101.247 164.093 80.1081 168.478 59.8851C170.681 49.7241 167.809 38.6921 159.886 30.8121C148.036 19.0251 129.176 18.5771 116.805 29.4531L116.797 29.4461C99.3633 44.7281 75.8953 51.1731 53.1083 46.9691C53.0703 46.9621 53.0172 46.9541 52.9792 46.9471C45.0362 45.4711 36.5203 47.8151 30.3893 53.9791C21.7243 62.6901 20.7173 76.1221 27.3223 85.9341C37.2673 100.743 41.6632 118.568 39.7603 136.298C38.7122 146.04 41.9382 156.156 49.4212 163.599C58.6253 172.754 71.8273 175.448 83.3783 171.689C83.4762 171.651 83.5672 171.62 83.6572 171.59C100.354 166.313 118.367 166.975 134.626 173.465C134.762 173.51 134.898 173.57 135.027 173.623V173.616C148.481 179.079 164.473 176.347 175.353 165.409C188.106 152.588 189.565 132.804 179.78 118.38Z" fill="url(#paint0_linear_473_83)"/>
<path d="M27.2643 121.268C34.5123 126.148 43.7863 127.496 50.6983 132.841C59.3503 139.531 62.5133 150.917 65.8293 161.339C69.1453 171.761 74.0443 183.001 84.0763 187.357C94.6453 191.946 107.008 187.045 116.246 180.159C125.484 173.273 133.318 164.329 143.651 159.233C154.952 153.66 167.993 153.283 180.377 150.954C192.76 148.625 205.903 143.261 211.437 131.941C217.477 119.587 211.891 103.946 201.594 94.8311C191.296 85.7161 177.396 81.8941 163.829 79.6491C155.756 78.3131 146.856 77.0511 141.439 70.9181C135.863 64.6061 135.878 55.3011 133.386 47.2561C128.967 32.9911 115.247 22.1111 100.35 21.0611C85.4533 20.0111 70.3413 28.8571 63.9653 42.3611C60.4703 49.7621 59.2233 58.5851 53.3323 64.2671C49.3073 68.1491 43.7253 69.9041 38.2933 71.2341C32.8613 72.5641 27.2353 73.6421 22.4603 76.5521C7.05632 85.9391 14.6253 112.76 27.2643 121.268Z" fill="url(#paint1_linear_473_83)"/>
<path d="M19.7663 134.398C28.2223 138.483 38.2933 138.503 46.4623 143.135C56.6873 148.932 61.7893 160.563 66.9073 171.144C72.0253 181.725 78.9523 192.935 90.2893 196.039C102.232 199.309 114.637 192.209 123.414 183.474C132.191 174.739 139.16 164.029 149.376 157.031C160.548 149.378 174.364 146.988 187.183 142.621C200.001 138.254 213.164 130.542 217.325 117.655C221.866 103.591 213.537 87.8031 201.192 79.6781C188.847 71.5521 173.476 69.6071 158.7 69.2881C149.908 69.0981 140.248 69.1141 133.549 63.4161C126.654 57.5511 125.251 47.6501 121.373 39.4721C114.496 24.9701 98.2403 15.4901 82.2323 16.6451C66.2243 17.8001 51.4973 29.5171 46.7743 44.8561C44.1853 53.2631 44.2053 62.8391 38.8043 69.7821C35.1143 74.5261 29.4433 77.2451 23.8683 79.4881C18.2933 81.7311 12.4723 83.7371 7.83631 87.5611C-7.1197 99.8971 5.0233 127.275 19.7663 134.398Z" stroke="url(#paint2_linear_473_83)" stroke-width="2" stroke-miterlimit="10"/>
<path d="M21.4632 130.641C30.0012 135.302 40.0952 135.481 48.3542 140.743C58.6922 147.329 63.9862 160.303 69.2812 172.113C74.5752 183.924 81.6922 196.459 93.1032 200.076C105.124 203.887 117.446 196.209 126.106 186.662C134.766 177.115 141.585 165.35 151.714 157.751C162.792 149.44 176.602 147.006 189.381 142.364C202.16 137.722 215.232 129.378 219.202 115.156C223.534 99.6341 214.941 82.0021 202.441 72.8021C189.941 63.6011 174.506 61.2051 159.692 60.6221C150.877 60.2751 141.196 60.1411 134.393 53.7201C127.392 47.1111 125.831 36.1131 121.816 26.9851C114.698 10.8011 98.2572 0.0371315 82.2322 1.06813C66.2072 2.09913 51.6292 14.8601 47.1342 31.7911C44.6702 41.0711 44.8392 51.6871 39.5352 59.3011C35.9112 64.5031 30.2702 67.4291 24.7172 69.8291C19.1642 72.2291 13.3622 74.3621 8.77521 78.5291C-6.02179 91.9731 6.57621 122.515 21.4632 130.641Z" stroke="black" stroke-miterlimit="10"/>
<path d="M178.307 55.4941C182.646 55.4941 186.162 51.9773 186.162 47.6391C186.162 43.3009 182.646 39.7841 178.307 39.7841C173.969 39.7841 170.452 43.3009 170.452 47.6391C170.452 51.9773 173.969 55.4941 178.307 55.4941Z" fill="url(#paint3_linear_473_83)"/>
<path d="M33.3284 155.42C33.3284 157.589 31.5694 159.348 29.4004 159.348C27.2314 159.348 25.4724 157.59 25.4724 155.42C25.4724 153.251 27.2304 151.492 29.4004 151.492C31.5704 151.492 33.3284 153.251 33.3284 155.42Z" fill="url(#paint4_linear_473_83)"/>
<defs>
<linearGradient id="paint0_linear_473_83" x1="192.471" y1="123.571" x2="21.7065" y2="72.5255" gradientUnits="userSpaceOnUse">
<stop stop-color="#BCE079"/>
<stop offset="1" stop-color="#E3F3D8"/>
</linearGradient>
<linearGradient id="paint1_linear_473_83" x1="26.9186" y1="64.6044" x2="194.633" y2="161.226" gradientUnits="userSpaceOnUse">
<stop stop-color="#ECF7EC"/>
<stop offset="1" stop-color="#BCE079"/>
</linearGradient>
<linearGradient id="paint2_linear_473_83" x1="-0.000695439" y1="106.7" x2="219.58" y2="106.7" gradientUnits="userSpaceOnUse">
<stop stop-color="#BCE079"/>
<stop offset="1" stop-color="#BCE079"/>
</linearGradient>
<linearGradient id="paint3_linear_473_83" x1="170.452" y1="47.6387" x2="186.163" y2="47.6387" gradientUnits="userSpaceOnUse">
<stop stop-color="#BFE181"/>
<stop offset="1" stop-color="#CAE79C"/>
</linearGradient>
<linearGradient id="paint4_linear_473_83" x1="25.4733" y1="155.42" x2="33.3286" y2="155.42" gradientUnits="userSpaceOnUse">
<stop stop-color="#E8F5E2"/>
<stop offset="1" stop-color="#BEE17E"/>
</linearGradient>
</defs>
</svg>
