<svg width="193" height="201" viewBox="0 0 193 201" fill="none" xmlns="http://www.w3.org/2000/svg">
<path d="M97.6897 171.847C116.965 164.784 140.506 169.392 160.644 170.163C168.143 170.45 176.576 170.629 182.719 165.632C188.954 160.56 191.476 151.78 192.012 144.075C193.018 129.624 188.157 114.849 178.769 103.817C164.894 87.5137 140.274 80.2107 131.085 60.0957C123.624 43.7617 127.853 23.0387 109.687 13.0457C97.8007 6.50768 81.6657 7.79167 69.8947 13.9167C58.9647 19.6047 51.6617 29.4077 48.4327 41.2037C46.6307 47.7867 47.3017 54.3157 46.5357 61.0687C45.6507 68.8727 43.7087 76.5567 40.7577 83.8357C36.6757 93.9037 30.7417 103.101 25.9617 112.857C19.1347 126.79 17.1747 141.12 18.5367 156.496C19.6377 168.921 21.9557 186.819 33.7787 193.828C55.0737 206.453 79.0387 178.682 97.6897 171.847Z" stroke="#E6E7E8" stroke-miterlimit="10"/>
<path d="M28.9926 84.1937C28.8616 90.8757 27.8316 97.4967 25.4956 103.965C19.4956 120.584 10.6786 136.484 3.6176 152.731C0.596601 159.683 0.683606 167.103 4.88561 173.658C9.49561 180.85 17.4316 185.293 25.5586 187.921C34.9236 190.95 44.9446 191.893 54.7176 190.757C65.0526 189.555 72.5226 185.449 81.1796 179.931C94.2656 171.59 107.474 160.608 123.697 159.94C142.271 159.175 160.48 171.336 177.164 157.827C188.08 148.989 193.159 133.017 191.892 119.337C190.877 108.38 185.826 98.1177 177.166 90.5727C170.537 84.7977 162.633 82.2467 154.911 78.3557C147.026 74.3817 140.344 68.5087 134.448 62.2267C126.453 53.7087 119.613 44.2437 111.172 36.1167C96.6676 22.1517 75.3166 9.98967 54.3966 9.38467C40.8306 8.99167 28.1926 14.7497 24.7246 27.7337C21.3576 40.3407 25.2016 53.1747 27.3976 65.7157C28.4766 71.8777 29.1126 78.0617 28.9926 84.1937Z" fill="#E6E7E8"/>
<path d="M16.2616 152.21C18.9156 153.933 21.8436 155.332 25.0086 156.349C34.2176 159.308 44.0676 159.977 53.1716 163.247C58.8446 165.284 64.1466 168.335 68.7826 172.184C73.6866 176.255 77.1136 181.686 82.3136 185.409C110.412 205.524 136.666 172.94 145.053 148.989C150.21 134.262 152.833 118.799 157.624 103.958C162.216 89.7317 166.622 73.3637 161.144 58.7497C149.944 28.8697 113.881 26.2957 87.0476 29.3257C60.0646 32.3737 30.7856 40.1837 19.2776 67.6257C16.2016 74.9607 14.7826 82.8627 12.5896 90.5077C9.2306 102.219 -0.667384 110.99 0.0356157 123.57C0.706616 135.572 6.6996 146 16.2616 152.21Z" fill="url(#paint0_linear_473_92)"/>
<path d="M30.2547 90.7307C31.8117 106.078 25.6207 120.689 20.8827 134.939C18.6897 141.535 17.3627 148.296 15.5127 154.909C13.6777 161.467 14.6677 168.06 19.2147 173.378C24.2027 179.212 31.8137 182.191 39.3707 183.531C48.0797 185.076 57.1157 184.684 65.6757 182.471C74.7277 180.131 80.8727 175.558 87.9007 169.583C98.5237 160.551 108.932 149.154 123.291 146.565C139.731 143.601 157.436 152.186 170.626 138.113C179.256 128.905 181.814 114.066 179.004 102.047C176.926 93.1597 171.999 85.7287 164.905 80.0507C156.969 73.6987 146.826 72.1427 137.67 68.2707C131.164 65.5197 125.258 61.5527 119.82 57.0757C114.331 52.5567 109.795 46.8447 104.3 42.4157C93.6057 33.7967 80.1447 27.0597 66.8127 23.6977C54.2607 20.5327 35.2997 17.9207 25.1597 28.0637C8.87768 44.3497 28.3897 72.3467 30.2547 90.7307Z" fill="url(#paint1_linear_473_92)"/>
<path d="M94.2925 161.574C111.335 150.129 135.296 149.006 155.04 144.964C162.392 143.459 170.626 141.627 175.404 135.312C180.254 128.902 180.615 119.775 179.303 112.163C176.843 97.8867 168.607 84.6917 156.864 76.2097C139.51 63.6747 113.859 62.4377 100.149 45.0857C89.0165 30.9957 88.1955 9.86169 68.1735 4.47569C55.0735 0.952692 39.7075 6.03769 29.7315 14.7867C20.4675 22.9107 15.7065 34.1697 15.3755 46.3957C15.1905 53.2187 17.3955 59.4007 18.2575 66.1417C19.2545 73.9317 19.1955 81.8577 18.0605 89.6287C16.4905 100.378 12.9135 110.724 10.5915 121.336C7.27453 136.493 8.77853 150.878 13.7595 165.489C17.7835 177.295 24.2935 194.129 37.4435 198.124C61.1295 205.323 77.8025 172.648 94.2925 161.574Z" stroke="url(#paint2_linear_473_92)" stroke-width="2" stroke-miterlimit="10"/>
<path d="M86.8506 164.434C106.785 157.203 131.024 161.633 151.786 162.244C159.517 162.472 168.212 162.583 174.587 157.527C181.058 152.395 183.728 143.577 184.342 135.852C185.494 121.363 180.6 106.597 171.006 95.6167C156.828 79.3907 131.496 72.2697 122.181 52.1877C114.617 35.8807 119.144 15.0817 100.49 5.21268C88.2846 -1.24432 71.6346 0.171681 59.4476 6.40368C48.1306 12.1897 40.5216 22.0717 37.0966 33.9177C35.1856 40.5287 35.8256 47.0657 34.9816 53.8387C34.0066 61.6647 31.9426 69.3807 28.8416 76.6977C24.5526 86.8187 18.3586 96.0827 13.3516 105.896C6.20059 119.912 4.06459 134.287 5.34659 149.684C6.38259 162.125 8.63057 180.042 20.7666 186.971C42.6266 199.45 67.5636 171.431 86.8506 164.434Z" stroke="black" stroke-miterlimit="10"/>
<path d="M122.855 188.246C127.193 188.246 130.71 184.729 130.71 180.391C130.71 176.052 127.193 172.536 122.855 172.536C118.516 172.536 115 176.052 115 180.391C115 184.729 118.516 188.246 122.855 188.246Z" fill="url(#paint3_linear_473_92)"/>
<path d="M144.687 43.8267C144.687 45.9957 142.929 47.7547 140.759 47.7547C138.59 47.7547 136.831 45.9967 136.831 43.8267C136.831 41.6577 138.589 39.8987 140.759 39.8987C142.929 39.8987 144.687 41.6567 144.687 43.8267Z" fill="url(#paint4_linear_473_92)"/>
<defs>
<linearGradient id="paint0_linear_473_92" x1="45.7475" y1="172.318" x2="139.531" y2="34.7298" gradientUnits="userSpaceOnUse">
<stop stop-color="#C7E1EB"/>
<stop offset="1" stop-color="#66ACC7"/>
</linearGradient>
<linearGradient id="paint1_linear_473_92" x1="109.553" y1="165.899" x2="51.8301" y2="15.8367" gradientUnits="userSpaceOnUse">
<stop stop-color="#DFEEF4"/>
<stop offset="1" stop-color="#57A4C2"/>
</linearGradient>
<linearGradient id="paint2_linear_473_92" x1="7.82043" y1="101.25" x2="180.955" y2="101.25" gradientUnits="userSpaceOnUse">
<stop stop-color="#70B1CA"/>
<stop offset="1" stop-color="#00B4C6"/>
</linearGradient>
<linearGradient id="paint3_linear_473_92" x1="114.999" y1="180.39" x2="130.71" y2="180.39" gradientUnits="userSpaceOnUse">
<stop stop-color="#C1DEE9"/>
<stop offset="1" stop-color="#3491B4"/>
</linearGradient>
<linearGradient id="paint4_linear_473_92" x1="136.831" y1="43.8263" x2="144.687" y2="43.8263" gradientUnits="userSpaceOnUse">
<stop stop-color="#1857BD"/>
<stop offset="1" stop-color="#00B4C6"/>
</linearGradient>
</defs>
</svg>
