<svg width="1920" height="628" viewBox="0 0 1920 628" fill="none" xmlns="http://www.w3.org/2000/svg">
<path d="M1923.52 558C1957 449 1923.52 144 1923.52 144C1923.52 144 1621 -68.4165 1421.5 56.4998C1222 181.416 1002 76.4998 1002 76.4998C1002 76.4998 706.88 -65.5027 562 40.4999C417.12 146.502 0.296612 -88.5002 0.296631 40.4997L0.296629 579.265C0.296629 579.265 334.5 688 481.103 579.265C627.705 470.53 1002 558 1002 558C1002 558 1230.43 688.53 1442.71 579.265C1655 470 1890.04 667 1923.52 558Z" fill="#ECF7EC"/>
</svg>
