<svg width="195" height="111" viewBox="0 0 195 111" fill="none" xmlns="http://www.w3.org/2000/svg">
<path d="M65.3799 41.723C67.5199 49.609 82.0409 50.15 88.3649 51.402C100.84 53.871 113.292 57.236 124.568 63.253C135.202 68.928 143.522 76.662 150.315 86.564C155.479 94.091 161.217 102.625 170.877 104.46C178.828 105.97 185.557 101.157 188.307 93.823C191.958 84.087 187.814 73.881 183.629 65.043C183.491 64.752 183.038 64.917 183.156 65.225C187.193 75.729 192.564 89.274 183.765 98.995C182.478 100.417 181.134 101.461 179.756 102.195C180.469 99.54 179.19 97.504 177.121 96.246C179.414 94.462 179.379 91.083 177.574 89.043C181.445 87.858 182.872 82.913 180.06 79.901C178.907 78.666 177.315 78.165 175.791 78.305C177.012 74.877 171.023 72.881 169.449 70.856C169.174 70.501 168.661 70.8 168.73 71.163C168.373 71.273 168.007 71.415 167.64 71.571C166.738 67.485 161.807 65.953 158.647 68.79C158.549 68.878 158.521 68.989 158.532 69.095C157.197 67.659 155.384 66.337 154.868 65.052C154.694 64.62 154.082 64.816 154.107 65.216C153.707 65.499 153.279 65.718 152.843 65.915C151.237 59.645 142.929 59.141 139.558 64.169C137.594 63.559 135.046 63.566 133.705 62.501C133.573 62.396 133.335 62.363 133.2 62.486C132.244 63.361 131.297 64.247 130.424 65.204C126.385 62.649 122.115 60.451 117.719 58.594C109.226 55.007 100.283 52.594 91.2719 50.717C86.5309 49.729 81.6939 49.071 77.0099 47.827C74.8569 47.255 72.1349 46.733 70.2649 45.452C64.2839 41.356 66.4799 36.731 69.9159 33.038C73.4779 29.211 78.1569 25.302 82.9669 23.234C88.8399 20.709 94.5749 22.133 100.385 23.947C110.311 27.045 120.162 30.405 130.015 33.726C146.826 39.393 164.197 45.384 177.24 57.943C177.564 58.255 177.999 57.715 177.681 57.405C159.296 39.459 131.926 33.22 108.237 25.414C98.8989 22.337 89.6109 18.045 80.2139 23.188C74.7919 26.157 63.3079 34.086 65.3799 41.723ZM152.41 66.105C150.905 66.722 149.318 67.123 148.192 68.411C146.674 66.374 144.251 65.928 142.159 66.636C141.936 65.497 141.214 64.847 140.267 64.428C143.667 59.574 150.045 60.988 152.41 66.105ZM159.077 73.397C159.071 73.413 159.08 73.427 159.077 73.443C158.186 73.38 157.282 73.526 156.461 73.904C155.553 74.323 154.827 74.973 154.287 75.75C152.678 73.635 150.099 72.901 147.786 73.463C147.316 71.358 148.115 69.085 150.026 67.943C151.451 67.09 153.068 66.855 154.321 65.75C155.704 68.384 160.361 69.99 159.077 73.397ZM159.674 82.905C158.378 80.87 156.204 79.858 154.045 79.885C153.809 77.691 154.856 75.431 156.993 74.562C159.067 73.718 161.149 74.505 162.725 75.899C162.222 77.055 162.14 78.351 162.766 79.736C161.386 80.378 160.355 81.506 159.674 82.905ZM164.426 80.04C168.392 79.195 173.849 82.699 171.835 87.06C169.776 87.207 167.792 88.107 166.683 89.816C165.563 88.995 164.242 88.365 163.129 87.95C161.585 87.375 160.673 86.907 159.458 87.113C159.82 83.91 160.801 80.813 164.426 80.04ZM167.169 71.778C165.48 72.584 163.839 73.843 162.966 75.401C162.119 74.359 160.866 73.714 159.543 73.511C160.533 72.024 159.91 70.678 158.829 69.422C158.901 69.429 158.977 69.411 159.052 69.347C162.029 66.806 166.081 68.176 167.169 71.778ZM175.271 78.372C173.607 78.69 172.1 79.789 171.442 81.561C171.438 81.572 171.44 81.582 171.436 81.594C170.06 80.246 167.989 79.346 166.161 79.185C165.175 79.098 164.303 79.211 163.517 79.453C161.994 75.448 166.031 73.132 169.045 71.622C170.899 73.731 176.097 75.103 175.271 78.372ZM177.203 88.642C177.197 88.645 177.197 88.651 177.191 88.654C176.942 88.429 176.675 88.22 176.375 88.046C175.202 87.364 173.768 87.027 172.338 87.044C173.44 85.164 173.007 83.425 171.862 82.058C171.955 82.038 172.043 81.979 172.099 81.863C173.564 78.847 177.582 77.925 179.768 80.816C182.005 83.775 180.195 87.217 177.203 88.642ZM176.753 96.019C174.448 94.778 171.312 94.447 168.775 95.249C169.667 93.288 168.799 91.64 167.356 90.362C167.378 90.339 167.403 90.322 167.422 90.292C169.091 87.616 173.303 87.403 175.85 88.781C178.728 90.34 178.648 93.753 176.753 96.019ZM165.213 100.616C165.236 100.574 165.257 100.528 165.266 100.471C166.473 92.968 180.778 94.679 178.898 102.616C174.384 104.578 169.565 103.302 165.213 100.616ZM155.004 91.039C156.752 88.229 159.815 87.569 162.805 88.655C165.644 89.685 169.625 91.792 168.188 95.457C166.241 96.242 164.75 97.76 164.451 100.131C160.755 97.681 157.448 94.268 155.004 91.039ZM149.383 83.229C150.546 81.771 152.051 80.932 153.602 80.723C153.71 80.75 153.824 80.738 153.917 80.691C155.917 80.534 157.963 81.424 159.432 83.43C158.943 84.625 158.682 85.974 158.641 87.348C158.473 87.41 158.307 87.471 158.123 87.557C156.662 88.245 155.369 89.054 154.475 90.329C154.428 90.264 154.375 90.197 154.328 90.132C152.662 87.801 151.044 85.488 149.383 83.229ZM144.394 76.937C145.179 75.782 146.189 74.974 147.286 74.514C147.506 74.704 147.879 74.566 147.946 74.284C150.016 73.699 152.299 74.315 153.979 76.252C153.368 77.358 153.101 78.659 153.245 79.944C151.574 80.169 149.979 81.024 148.887 82.551C147.453 80.622 145.973 78.744 144.394 76.937ZM138.864 71.404C138.927 71.353 138.981 71.285 139.004 71.187C140.045 66.776 144.857 65.939 147.838 68.842C146.842 70.284 146.54 72.05 146.974 73.718C145.742 74.2 144.634 75.07 143.864 76.333C142.32 74.609 140.668 72.96 138.864 71.404ZM131.027 65.577C131.808 64.738 132.801 63.501 133.674 63.529C134.083 63.542 134.816 64.077 135.305 64.203C136.463 64.501 137.91 64.522 139.151 64.859C139.104 65.185 139.588 65.368 139.817 65.082C140.604 65.408 141.251 65.935 141.593 66.86C140.011 67.58 138.7 68.983 138.267 70.891C135.967 68.969 133.544 67.201 131.027 65.577Z" fill="#432918"/>
<path d="M10.3419 30.505C17.7219 35.379 26.3849 38.153 34.9119 40.212C39.8149 41.396 45.1899 42.469 49.2549 45.663C53.6559 49.121 54.9409 54.232 56.5449 59.32C59.1579 67.611 64.4439 71.964 72.1929 75.496C82.1159 80.019 92.2859 84.073 102.442 88.038C123.131 96.114 144.188 103.68 165.628 109.521C165.824 109.574 165.972 109.439 166.027 109.273C168.74 110.162 171.677 110.487 174.847 110.041C183.144 108.873 191.449 103.316 193.908 95.026C196.511 86.251 193.432 74.77 190.133 66.492C181.695 45.318 155.863 38.523 136.733 30.92C125.274 26.366 113.869 21.228 102.059 17.643C90.8519 14.24 81.5919 15.854 71.2769 21.199C71.2659 21.205 71.2599 21.214 71.2499 21.22C58.1889 21.778 47.3899 17.738 36.9869 10.022C29.8659 4.73999 21.9889 -0.886002 12.6129 1.001C6.33389 2.265 0.820877 7.13698 0.0748771 13.722C-0.750123 20.998 4.71789 26.79 10.3419 30.505ZM1.33188 13.245C2.36688 6.47999 8.88189 2.31699 15.2809 1.86599C20.3999 1.50499 25.2349 3.611 29.4739 6.26C36.0529 10.373 41.7069 15.734 48.9349 18.783C56.0749 21.795 63.8019 22.955 71.4949 22.026C71.7349 21.997 71.8419 21.82 71.8439 21.638C78.3339 19.084 84.7569 16.188 91.9079 16.666C97.8609 17.064 103.644 19.201 109.191 21.248C120.083 25.267 130.818 29.747 141.608 34.03C160.38 41.482 183.532 48.584 190.263 69.994C193.639 80.733 196.96 94.706 187.349 103.226C178.103 111.422 165.239 110.801 156.724 102.126C149.691 94.961 145.715 85.373 138.982 77.912C133.686 72.044 127.228 67.319 120.262 63.619C111.915 59.186 102.871 56.24 93.6939 54.083C88.2219 52.797 82.6879 51.799 77.1419 50.89C70.9619 49.877 63.7009 49.097 60.9839 42.52C60.7159 41.872 59.6979 42.262 59.9669 42.912C61.7639 47.254 65.3889 49.481 69.8169 50.659C76.3399 52.393 83.2499 52.917 89.8589 54.322C103.83 57.293 117.709 61.919 129.288 70.517C139.209 77.884 144.64 87.97 151.732 97.73C154.698 101.812 158.289 105.449 162.509 107.738C141.895 101.008 121.352 94.233 101.156 86.287C92.0649 82.71 83.0099 79.008 74.0749 75.053C69.4299 72.997 64.3919 70.68 61.2069 66.55C58.4469 62.971 57.5519 58.536 56.1229 54.353C50.8019 38.775 32.3389 39.736 19.4259 34.056C11.1809 30.429 -0.306119 23.954 1.33188 13.245Z" fill="#432918"/>
<path d="M87.8548 24.501C87.8698 24.326 88.1688 24.333 88.1678 24.512C88.1358 29.612 88.0158 34.721 87.7508 39.815C87.7208 40.39 86.8478 40.229 86.8708 39.664C87.0728 34.604 87.4208 29.545 87.8548 24.501Z" fill="#432918"/>
<path d="M86.768 69.512C87.991 72.691 89.386 75.772 91.04 78.752C91.139 78.931 90.882 79.123 90.778 78.942C89.067 75.965 87.5669 72.886 86.3479 69.674C86.2449 69.403 86.664 69.242 86.768 69.512Z" fill="#432918"/>
<path d="M89.6318 79.992C91.8798 80.768 94.1319 81.536 96.3849 82.298C97.1949 83.717 98.0108 85.133 98.8468 86.536C98.9178 86.656 99.1258 86.542 99.0608 86.42C98.3708 85.104 97.6638 83.797 96.9508 82.492C98.6868 83.078 100.426 83.654 102.164 84.232C102.378 84.597 102.584 84.966 102.803 85.327C101.426 84.718 100.046 84.121 98.6728 83.49C98.4498 83.387 98.2959 83.728 98.5149 83.835C100.093 84.606 101.684 85.354 103.282 86.093C103.614 86.628 103.939 87.167 104.283 87.694C104.369 87.825 104.551 87.684 104.477 87.554C104.246 87.147 104.026 86.739 103.799 86.331C105.671 87.191 107.554 88.031 109.45 88.845C109.648 89.129 109.842 89.416 110.045 89.696C110.147 89.836 110.354 89.683 110.261 89.539C110.16 89.382 110.069 89.222 109.969 89.065C111.481 89.711 113.002 90.341 114.528 90.957C114.73 91.289 114.924 91.625 115.13 91.954C115.172 92.02 115.263 91.949 115.227 91.884C115.074 91.609 114.927 91.333 114.775 91.057C116.525 91.76 118.283 92.445 120.05 93.109C120.134 93.227 120.212 93.349 120.297 93.466C120.372 93.569 120.526 93.456 120.457 93.35C120.431 93.311 120.407 93.27 120.382 93.231C121.88 93.791 123.383 94.335 124.892 94.866C125.09 95.192 125.282 95.522 125.482 95.846C125.559 95.971 125.779 95.852 125.709 95.723C125.583 95.49 125.464 95.256 125.339 95.024C128.581 96.157 131.847 97.221 135.133 98.214C135.198 98.341 135.259 98.47 135.325 98.597C135.384 98.711 135.572 98.644 135.515 98.524C135.48 98.449 135.446 98.373 135.41 98.297C137.041 98.788 138.676 99.264 140.316 99.719C140.342 99.756 140.366 99.795 140.393 99.831C140.448 99.907 140.536 99.855 140.543 99.783C143.657 100.644 146.785 101.435 149.922 102.163C150.286 102.554 150.648 102.946 151.023 103.326C151.071 103.375 151.152 103.296 151.109 103.245C150.837 102.914 150.57 102.582 150.3 102.25C152.087 102.661 153.876 103.058 155.668 103.425C155.807 103.453 155.84 103.243 155.705 103.21C153.749 102.733 151.808 102.228 149.868 101.719C148.861 100.47 147.881 99.21 146.918 97.939C147.847 98.199 148.775 98.465 149.706 98.721C149.847 98.76 149.881 98.539 149.744 98.499C148.714 98.2 147.689 97.889 146.66 97.588C145.353 95.85 144.098 94.079 142.898 92.262C143.978 92.521 145.057 92.787 146.138 93.041C146.32 93.084 146.366 92.8 146.187 92.757C145.004 92.471 143.827 92.169 142.647 91.875C141.807 90.588 140.989 89.282 140.218 87.933C140.066 87.667 139.677 87.949 139.831 88.214C140.513 89.391 141.228 90.553 141.96 91.704C140.913 91.441 139.863 91.185 138.817 90.916C138.334 89.956 137.873 88.986 137.431 88.004C137.604 88.05 137.777 88.098 137.95 88.144C138.113 88.187 138.154 87.931 137.994 87.887C137.758 87.823 137.523 87.755 137.287 87.69C136.763 86.509 136.271 85.308 135.824 84.076C135.733 83.825 135.347 83.974 135.437 84.225C135.836 85.337 136.267 86.443 136.733 87.536C135.85 87.295 134.97 87.044 134.087 86.8C132.921 84.125 131.852 81.392 130.92 78.533C130.836 78.277 130.46 78.429 130.533 78.682C131.286 81.326 132.196 83.969 133.246 86.566C132.081 86.242 130.915 85.922 129.751 85.594C129.221 84.343 128.699 83.088 128.188 81.828C128.081 81.564 127.669 81.722 127.774 81.987C128.235 83.144 128.711 84.294 129.197 85.44C127.96 85.09 126.722 84.738 125.486 84.383C124.374 82.044 123.263 79.704 122.144 77.37C122.018 77.107 121.591 77.268 121.717 77.534C122.781 79.764 123.854 81.992 124.924 84.22C122.934 83.648 120.946 83.071 118.959 82.487C118.464 81.465 117.977 80.437 117.49 79.41C118.806 79.745 120.122 80.084 121.443 80.402C121.695 80.463 121.759 80.069 121.511 80.007C120.085 79.65 118.665 79.272 117.245 78.895C116.494 77.301 115.753 75.7 115.036 74.081C114.921 73.822 114.516 73.974 114.622 74.24C115.223 75.738 115.86 77.225 116.518 78.705C113.547 77.908 110.59 77.062 107.645 76.178C106.989 74.569 106.357 72.946 105.775 71.295C105.676 71.013 105.24 71.181 105.342 71.462C105.895 72.994 106.489 74.509 107.104 76.014C104.113 75.111 101.131 74.178 98.1638 73.189C97.8058 73.069 97.5578 73.607 97.9178 73.726C99.4278 74.223 100.944 74.697 102.461 75.169C102.365 75.22 102.294 75.321 102.346 75.453C102.652 76.235 102.986 77.006 103.323 77.776C101.798 77.306 100.273 76.835 98.7488 76.361C96.7808 72.075 95.0418 67.692 93.5948 63.113C93.4818 62.754 92.9398 62.966 93.0498 63.323C94.4008 67.687 96.0368 71.966 97.9508 76.114C97.2998 75.911 96.6479 75.713 95.9969 75.51C95.7249 75.425 95.5328 75.83 95.8088 75.919C96.6108 76.178 97.4178 76.42 98.2198 76.675C98.6598 77.613 99.0968 78.553 99.5678 79.476C97.8218 78.915 96.0758 78.347 94.3318 77.776C93.4978 76.286 92.6599 74.799 91.8249 73.311C91.6919 73.074 91.3528 73.324 91.4828 73.559C92.2308 74.9 92.9868 76.239 93.7358 77.58C92.7508 77.257 91.7658 76.938 90.7828 76.612C90.5328 76.529 90.3558 76.899 90.6098 76.989C91.7618 77.399 92.9208 77.789 94.0768 78.188C94.7688 79.426 95.4538 80.666 96.1548 81.899C94.0118 81.19 91.8628 80.498 89.7238 79.778C89.5888 79.734 89.4898 79.943 89.6318 79.992ZM103.57 78.353C103.998 79.306 104.449 80.249 104.919 81.181C103.392 80.701 101.868 80.212 100.344 79.724C99.8868 78.797 99.4558 77.861 99.0208 76.926C100.535 77.407 102.051 77.884 103.57 78.353ZM132.796 93.475C131.623 93.121 130.453 92.757 129.28 92.4C128.651 91.038 128.005 89.683 127.365 88.326C128.533 88.638 129.7 88.951 130.869 89.256C131.5 90.667 132.13 92.079 132.796 93.475ZM131.391 89.394C132.546 89.694 133.703 89.985 134.86 90.279C135.583 91.815 136.356 93.326 137.194 94.793C135.881 94.401 134.568 94.011 133.257 93.616C132.622 92.214 132.007 90.804 131.391 89.394ZM128.812 92.257C126.856 91.662 124.899 91.067 122.946 90.464C122.274 89.168 121.611 87.87 120.956 86.568C122.912 87.117 124.871 87.658 126.833 88.185C127.491 89.543 128.143 90.905 128.812 92.257ZM122.241 90.249C120.759 89.791 119.277 89.332 117.796 88.869C117.138 87.65 116.541 86.404 115.974 85.144C117.367 85.55 118.761 85.951 120.158 86.345C120.833 87.658 121.528 88.959 122.241 90.249ZM117.285 88.707C115.776 88.235 114.271 87.75 112.763 87.273C112.145 86.078 111.548 84.875 110.965 83.666C112.456 84.117 113.951 84.551 115.445 84.988C116.01 86.252 116.612 87.497 117.285 88.707ZM110.623 82.949C110.174 82.005 109.735 81.056 109.308 80.101C110.881 80.573 112.456 81.04 114.032 81.502C114.374 82.45 114.743 83.386 115.139 84.31C113.633 83.859 112.126 83.409 110.623 82.949ZM112.335 87.138C110.882 86.677 109.428 86.221 107.976 85.756C107.277 84.559 106.617 83.344 105.976 82.119C107.467 82.588 108.959 83.054 110.454 83.508C111.058 84.73 111.682 85.941 112.335 87.138ZM105.599 81.392C105.122 80.458 104.665 79.513 104.223 78.558C105.74 79.025 107.259 79.487 108.78 79.944C109.21 80.899 109.653 81.848 110.11 82.79C108.605 82.329 107.101 81.863 105.599 81.392ZM107.376 76.648C107.754 77.558 108.129 78.47 108.529 79.37C107.006 78.907 105.483 78.442 103.962 77.975C103.561 77.087 103.168 76.194 102.804 75.282C102.803 75.28 102.802 75.281 102.801 75.279C104.322 75.75 105.848 76.202 107.376 76.648ZM118.148 82.252C116.88 81.878 115.614 81.499 114.348 81.121C114.045 80.286 113.75 79.447 113.486 78.589C113.413 78.35 113.056 78.491 113.125 78.728C113.347 79.487 113.601 80.231 113.86 80.974C112.259 80.495 110.659 80.015 109.061 79.53C108.663 78.63 108.291 77.717 107.914 76.806C110.851 77.657 113.8 78.466 116.762 79.227C117.215 80.239 117.67 81.25 118.148 82.252ZM119.838 85.7C118.447 85.295 117.059 84.883 115.671 84.469C115.268 83.542 114.889 82.602 114.533 81.65C115.819 82.025 117.104 82.402 118.392 82.771C118.863 83.752 119.345 84.729 119.838 85.7ZM126.559 87.621C124.583 87.068 122.61 86.503 120.64 85.931C120.155 84.96 119.69 83.979 119.214 83.003C121.189 83.567 123.166 84.124 125.145 84.674C125.617 85.655 126.085 86.639 126.559 87.621ZM130.636 88.746C129.457 88.425 128.28 88.099 127.104 87.771C126.64 86.789 126.169 85.811 125.703 84.83C126.926 85.169 128.15 85.505 129.374 85.838C129.788 86.81 130.208 87.78 130.636 88.746ZM134.647 89.821C133.487 89.514 132.327 89.208 131.17 88.893C130.749 87.926 130.335 86.956 129.922 85.986C131.076 86.3 132.231 86.608 133.386 86.917C133.785 87.893 134.204 88.862 134.647 89.821ZM138.236 90.764C137.344 90.534 136.455 90.296 135.565 90.062C135.109 89.096 134.667 88.124 134.236 87.146C135.117 87.381 135.996 87.623 136.878 87.856C137.302 88.837 137.752 89.81 138.236 90.764ZM141.365 96.025C140.251 95.695 139.136 95.37 138.023 95.038C137.24 93.534 136.494 92.026 135.771 90.509C136.665 90.734 137.559 90.965 138.454 91.186C139.322 92.861 140.284 94.486 141.365 96.025ZM145.877 97.358C144.455 96.941 143.035 96.519 141.615 96.099C140.706 94.518 139.849 92.934 139.032 91.332C140.091 91.593 141.151 91.842 142.211 92.097C143.367 93.894 144.581 95.658 145.877 97.358ZM140.145 99.012C139.495 97.827 138.866 96.648 138.248 95.469C140.883 96.234 143.521 96.986 146.162 97.727C147.19 99.057 148.26 100.353 149.387 101.596C146.287 100.777 143.206 99.917 140.145 99.012ZM135.017 97.448C134.494 96.325 133.978 95.199 133.466 94.072C134.794 94.465 136.125 94.852 137.455 95.239C138.182 96.487 138.938 97.714 139.753 98.893C138.169 98.423 136.591 97.942 135.017 97.448ZM130.99 96.145C130.501 95.055 130 93.971 129.501 92.886C130.674 93.239 131.847 93.591 133.021 93.939C133.57 95.082 134.127 96.221 134.701 97.352C133.46 96.961 132.226 96.551 130.99 96.145ZM123.21 90.969C125.158 91.569 127.108 92.165 129.06 92.753C129.606 93.854 130.151 94.955 130.707 96.051C128.74 95.403 126.778 94.739 124.825 94.052C124.277 93.026 123.746 91.997 123.21 90.969ZM119.753 92.235C119.163 91.293 118.608 90.338 118.075 89.374C119.558 89.84 121.044 90.3 122.529 90.759C123.109 91.796 123.681 92.839 124.286 93.859C122.774 93.324 121.259 92.794 119.753 92.235ZM114.264 90.118C113.841 89.338 113.426 88.556 113.017 87.772C114.534 88.257 116.052 88.737 117.572 89.215C118.128 90.187 118.715 91.144 119.342 92.08C117.643 91.446 115.954 90.783 114.264 90.118ZM108.261 86.233C109.709 86.704 111.156 87.177 112.606 87.641C113.043 88.432 113.49 89.218 113.951 89.997C112.432 89.397 110.919 88.775 109.407 88.15C109.011 87.516 108.64 86.873 108.261 86.233ZM102.768 84.432C104.384 84.967 106.002 85.497 107.62 86.025C108.007 86.652 108.385 87.284 108.795 87.896C106.988 87.144 105.185 86.375 103.387 85.585C103.177 85.202 102.975 84.816 102.768 84.432ZM100.688 80.416C102.222 80.919 103.756 81.421 105.295 81.908C105.936 83.141 106.602 84.36 107.321 85.548C105.726 85.036 104.132 84.523 102.539 84.005C101.901 82.814 101.289 81.617 100.688 80.416ZM94.6808 78.398C96.4268 78.999 98.1768 79.589 99.9308 80.168C100.567 81.391 101.221 82.605 101.912 83.798C100.182 83.235 98.4569 82.659 96.7299 82.089C96.0539 80.856 95.3678 79.627 94.6808 78.398Z" fill="#432918"/>
<path d="M13.8759 9.54902C14.3739 8.53202 15.0059 7.62502 15.7389 6.82102C17.0999 7.35302 18.4449 7.91002 19.7779 8.48902C19.0969 9.27902 18.5139 10.15 18.0229 11.068C17.2159 10.683 16.4079 10.298 15.6009 9.913C15.1829 9.714 14.8829 10.371 15.3019 10.565C16.1059 10.937 16.9099 11.309 17.7139 11.68C17.4649 12.206 17.2369 12.74 17.0579 13.291C16.9429 13.645 17.4719 13.891 17.5879 13.534C17.7729 12.969 17.9979 12.439 18.2419 11.924C20.1679 12.815 22.0949 13.706 24.0219 14.596C23.5849 15.403 23.1989 16.24 22.9019 17.115C22.7939 17.432 23.2609 17.656 23.3809 17.335C23.7099 16.455 24.1099 15.631 24.5509 14.841C25.2209 15.151 25.8899 15.46 26.5599 15.77C26.8939 15.924 27.1279 15.41 26.7979 15.252C26.1449 14.941 25.4919 14.629 24.8389 14.318C25.3839 13.414 25.9989 12.57 26.6829 11.786C27.9209 12.438 29.1419 13.126 30.3539 13.837C28.3739 15.247 26.6059 16.951 25.2099 18.914C25.0219 19.178 25.3889 19.487 25.6009 19.235C27.2399 17.282 28.9949 15.615 30.9429 14.182C31.8179 14.704 32.6869 15.241 33.5499 15.797C32.2969 16.73 31.2559 17.948 30.5219 19.391C30.3859 19.659 30.8069 19.849 30.9439 19.585C31.6919 18.142 32.7119 16.942 33.9439 16.025C34.1079 16.089 34.2749 15.955 34.2609 15.814C35.4319 15.009 36.7719 14.438 38.2489 14.159C38.4419 14.123 38.4179 13.822 38.2189 13.851C37.5919 13.942 36.9909 14.106 36.4039 14.304C36.4159 14.247 36.4089 14.187 36.3489 14.138C35.5509 13.493 34.7389 12.869 33.9199 12.257C34.5719 11.898 35.2399 11.552 35.9419 11.237C36.1549 11.141 36.0319 10.811 35.8109 10.896C35.0199 11.197 34.2459 11.555 33.4839 11.941C32.1719 10.977 30.8349 10.052 29.4679 9.17801C30.3339 8.52401 31.2629 7.93 32.2589 7.405C32.4109 7.325 32.3279 7.08099 32.1599 7.14899C31.0329 7.60499 29.9769 8.19401 28.9989 8.88901C27.3179 7.83201 25.5939 6.84701 23.8289 5.93201C24.5209 5.52701 25.2409 5.15101 26.0109 4.83201C26.2159 4.74701 26.0959 4.461 25.8899 4.517C24.9519 4.77 24.0619 5.149 23.2269 5.62C22.0669 5.033 20.8919 4.475 19.6959 3.952C19.9639 3.831 20.2329 3.70999 20.5119 3.60599C20.7469 3.51899 20.6079 3.169 20.3729 3.245C19.9509 3.38 19.5439 3.54201 19.1469 3.72001C18.6229 3.49601 18.1029 3.267 17.5719 3.056C17.2279 2.919 16.9869 3.43999 17.3309 3.57999C17.7109 3.73499 18.0839 3.90202 18.4609 4.06202C17.4379 4.60402 16.5129 5.29201 15.6959 6.09601C15.0649 5.86201 14.4349 5.62599 13.7979 5.40799C13.4219 5.27999 13.1559 5.83599 13.5369 5.97699C14.0959 6.18399 14.6489 6.40002 15.2029 6.61402C14.4799 7.41602 13.8519 8.314 13.3489 9.305C13.1839 9.639 13.7129 9.88202 13.8759 9.54902ZM31.3569 13.866C32.0519 13.376 32.7709 12.915 33.5219 12.485C34.3899 13.109 35.2489 13.747 36.0929 14.412C35.3299 14.698 34.6139 15.079 33.9459 15.53C33.0909 14.962 32.2279 14.409 31.3569 13.866ZM27.0799 11.348C27.6919 10.692 28.3489 10.077 29.0569 9.51001C30.4169 10.347 31.7489 11.233 33.0579 12.159C32.2809 12.572 31.5249 13.028 30.7949 13.523C29.5709 12.773 28.3349 12.043 27.0799 11.348ZM26.5549 11.061C24.6859 10.043 22.7799 9.09599 20.8429 8.21799C21.5659 7.49399 22.3649 6.84301 23.2449 6.27601C25.0629 7.19001 26.8409 8.171 28.5789 9.223C27.8519 9.777 27.1789 10.396 26.5549 11.061ZM20.3489 8.73902C22.3119 9.60502 24.2469 10.524 26.1489 11.51C25.4579 12.301 24.8439 13.158 24.3099 14.065C22.3909 13.15 20.4719 12.235 18.5529 11.32C19.0599 10.378 19.6549 9.51302 20.3489 8.73902ZM16.2459 6.297C17.0619 5.508 17.9859 4.83499 19.0079 4.29599C20.2369 4.82799 21.4519 5.384 22.6469 5.973C21.7749 6.532 20.9799 7.20802 20.2619 7.95902C18.9379 7.37102 17.6009 6.812 16.2459 6.297Z" fill="#432918"/>
<path d="M9.90881 7.996C11.1038 5.159 13.5448 2.90199 16.5648 2.17099C16.8078 2.11199 16.9598 2.45701 16.7088 2.54501C13.8628 3.54501 11.6518 5.452 10.4708 8.254C10.3168 8.621 9.75381 8.363 9.90881 7.996Z" fill="#432918"/>
<path d="M91.595 37.534C91.56 37.871 92.0799 37.961 92.1149 37.624C92.2999 35.851 92.465 34.076 92.635 32.301C93.47 32.451 94.2979 32.617 95.1239 32.787C94.8449 34.398 94.475 35.997 93.97 37.59C93.889 37.844 94.242 37.948 94.316 37.697C94.789 36.103 95.1599 34.482 95.4309 32.846C95.9359 32.951 96.4359 33.068 96.9379 33.181C96.6949 34.606 96.4099 36.025 96.0849 37.438C95.6889 37.373 95.294 37.3 94.898 37.238C94.472 37.171 94.36 37.835 94.785 37.896C97.612 38.306 100.426 38.781 103.232 39.301C103.003 40.03 102.776 40.759 102.533 41.485C102.428 41.797 102.899 42.011 102.999 41.699C103.245 40.931 103.473 40.158 103.703 39.386C105.538 39.73 107.369 40.095 109.196 40.483C109.064 41.055 108.927 41.626 108.799 42.199C108.738 42.47 109.162 42.54 109.222 42.272C109.349 41.706 109.468 41.138 109.591 40.571C110.908 40.853 112.225 41.141 113.538 41.445C113.787 41.503 113.848 41.118 113.605 41.057C112.303 40.726 110.997 40.417 109.69 40.113C109.895 39.164 110.103 38.216 110.307 37.268C112.369 38.083 114.41 38.976 116.429 39.966C116.638 40.068 116.783 39.745 116.579 39.64C114.557 38.607 112.498 37.659 110.411 36.79C110.699 35.451 110.995 34.114 111.282 32.774C113.676 33.749 116.03 34.867 118.336 36.175C118.499 36.267 118.614 36.006 118.456 35.913C116.158 34.562 113.791 33.384 111.373 32.35C111.495 31.778 111.617 31.207 111.741 30.635C111.775 30.475 111.528 30.435 111.491 30.592C111.363 31.141 111.234 31.69 111.106 32.238C109.465 31.545 107.805 30.907 106.113 30.368C106.235 29.842 106.364 29.318 106.481 28.791C106.521 28.609 106.24 28.563 106.197 28.742C106.074 29.257 105.939 29.768 105.81 30.281C105.486 30.18 105.158 30.095 104.832 29.999C105.003 29.398 105.157 28.792 105.335 28.193C105.393 27.998 105.056 27.896 104.995 28.088C104.805 28.686 104.639 29.291 104.457 29.891C102.32 29.28 100.146 28.796 97.936 28.442C97.965 28.17 98.001 27.899 98.026 27.627C98.045 27.421 97.727 27.365 97.707 27.572C97.68 27.845 97.643 28.117 97.613 28.39C97.045 28.303 96.478 28.212 95.906 28.142C95.918 27.693 95.9209 27.244 95.9129 26.794C95.9119 26.719 95.784 26.715 95.781 26.789C95.761 27.237 95.718 27.676 95.687 28.12C94.819 28.017 93.949 27.921 93.071 27.859C93.127 27.273 93.182 26.687 93.239 26.102C93.261 25.869 92.9049 25.805 92.8779 26.04C92.4459 29.87 91.995 33.7 91.595 37.534ZM104.299 30.414C103.923 31.666 103.561 32.923 103.212 34.183C101.291 33.586 99.346 33.064 97.38 32.617C97.568 31.42 97.737 30.22 97.872 29.014C100.049 29.374 102.191 29.84 104.299 30.414ZM105.678 30.793C105.35 32.078 104.986 33.351 104.626 34.626C104.306 34.52 103.983 34.425 103.662 34.323C103.989 33.051 104.33 31.784 104.684 30.519C105.015 30.612 105.349 30.695 105.678 30.793ZM110.08 36.656C108.406 35.967 106.715 35.323 105.002 34.747C105.342 33.461 105.685 32.175 105.992 30.88C107.687 31.394 109.354 32.001 111.005 32.664C110.693 33.993 110.391 35.326 110.08 36.656ZM103.866 38.847C104.209 37.673 104.54 36.496 104.857 35.316C106.578 35.867 108.28 36.479 109.969 37.138C109.745 38.098 109.525 39.058 109.302 40.018C107.495 39.603 105.683 39.213 103.866 38.847ZM103.405 38.759C103.147 38.708 102.888 38.661 102.63 38.61C102.905 37.372 103.205 36.139 103.515 34.91C103.833 35.006 104.153 35.097 104.469 35.196C104.128 36.388 103.772 37.575 103.405 38.759ZM97.2799 33.259C99.2259 33.704 101.149 34.207 103.051 34.772C102.713 36.012 102.386 37.256 102.085 38.506C100.212 38.146 98.3349 37.809 96.4509 37.499C96.7669 36.091 97.0449 34.679 97.2799 33.259ZM95.523 32.207C95.694 31.044 95.8269 29.875 95.8779 28.699C96.4369 28.775 96.99 28.869 97.545 28.958C97.405 30.157 97.232 31.349 97.04 32.539C96.535 32.427 96.031 32.31 95.523 32.207ZM92.695 31.689C92.801 30.58 92.9149 29.472 93.0199 28.363C93.9019 28.447 94.7749 28.556 95.6449 28.672C95.5509 29.844 95.4029 31.001 95.2229 32.152C94.3829 31.987 93.542 31.826 92.695 31.689Z" fill="#432918"/>
<path d="M155.309 68.319C156.693 69.309 157.472 70.932 157.446 72.625C157.442 72.867 157.077 72.917 157.061 72.663C156.963 71.047 156.248 69.713 155.011 68.683C154.775 68.487 155.064 68.143 155.309 68.319Z" fill="#432918"/>
<path d="M154.424 68.41C155.141 69.528 155.649 70.789 155.736 72.123C155.753 72.386 155.389 72.411 155.337 72.162C155.078 70.922 154.681 69.795 153.962 68.744C153.755 68.44 154.226 68.102 154.424 68.41Z" fill="#432918"/>
<path d="M180.247 76.565C181.782 77.9 182.564 79.91 182.457 81.925C182.446 82.133 182.092 82.121 182.088 81.912C182.05 79.949 181.319 78.329 179.935 76.946C179.716 76.727 180.004 76.354 180.247 76.565Z" fill="#432918"/>
<path d="M182.184 74.945C183.53 76.021 184.629 77.304 185.476 78.806C185.605 79.033 185.286 79.279 185.14 79.049C184.243 77.646 183.118 76.429 181.787 75.429C181.465 75.187 181.868 74.693 182.184 74.945Z" fill="#432918"/>
<path d="M151.551 84.127C152.416 82.955 153.731 82.241 155.161 82.033C155.381 82.001 155.412 82.341 155.195 82.376C153.821 82.597 152.72 83.3 151.845 84.367C151.688 84.558 151.406 84.323 151.551 84.127Z" fill="#432918"/>
<path d="M167.645 81.81C168.929 82.323 169.907 83.393 170.354 84.694C170.432 84.921 170.096 85.051 170.006 84.828C169.525 83.628 168.631 82.745 167.454 82.225C167.183 82.106 167.372 81.702 167.645 81.81Z" fill="#432918"/>
<path d="M165.539 82.02C166.859 82.041 168.042 82.916 168.369 84.212C168.426 84.439 168.09 84.579 168.021 84.346C167.704 83.276 166.716 82.51 165.589 82.531C165.258 82.537 165.212 82.015 165.539 82.02Z" fill="#432918"/>
<path d="M156.398 92.675C157.628 91.265 159.123 90.182 160.847 89.453C161.065 89.361 161.193 89.699 160.978 89.794C159.328 90.525 157.914 91.586 156.751 92.965C156.561 93.19 156.204 92.897 156.398 92.675Z" fill="#432918"/>
<path d="M158.826 93.82C159.584 92.571 160.681 91.637 162.046 91.109C162.241 91.034 162.354 91.331 162.162 91.411C160.909 91.931 159.887 92.819 159.21 93.996C159.074 94.231 158.686 94.051 158.826 93.82Z" fill="#432918"/>
<path d="M175.306 97.834C176.451 98.585 177.055 99.858 176.963 101.217C176.951 101.393 176.646 101.384 176.65 101.206C176.673 99.993 176.095 98.878 175.055 98.236C174.763 98.056 175.014 97.643 175.306 97.834Z" fill="#432918"/>
<path d="M172.031 98.849C172.39 99.155 172.748 99.461 173.107 99.768C173.324 99.953 173.051 100.287 172.826 100.11C172.456 99.818 172.085 99.527 171.715 99.235C171.462 99.036 171.787 98.64 172.031 98.849Z" fill="#432918"/>
<path d="M7.56284 21.386C8.62984 23.002 9.88285 24.389 11.4699 25.51C11.7299 25.694 11.4168 26.068 11.1578 25.891C9.54784 24.788 8.13184 23.385 7.11884 21.708C6.93784 21.409 7.36584 21.088 7.56284 21.386Z" fill="#432918"/>
<path d="M5.81087 22.498C6.65687 23.437 7.51886 24.363 8.37386 25.294C8.55286 25.489 8.22086 25.806 8.03386 25.614C7.14986 24.71 6.27187 23.8 5.37987 22.904C5.07687 22.6 5.52087 22.175 5.81087 22.498Z" fill="#432918"/>
</svg>
