<svg width="140" height="92" viewBox="0 0 140 92" fill="none" xmlns="http://www.w3.org/2000/svg">
<path d="M2.53028 27.9905C2.64728 28.2235 2.88628 28.4005 3.21328 28.3355C18.0183 25.3955 32.6033 26.3354 46.5443 30.1444C46.4203 30.2344 46.3523 30.3914 46.4633 30.5574C47.4703 32.0674 48.4893 33.5725 49.5103 35.0765C49.5063 35.0865 49.4983 35.0915 49.4943 35.1025C46.9283 41.7065 44.8323 48.7095 48.4673 55.3095C52.0633 61.8385 58.9623 65.8885 64.1163 71.0555C64.1243 71.2535 64.1343 71.4505 64.1413 71.6505C64.1573 72.0875 64.7753 72.0765 64.8123 71.6505V71.6475C64.9293 71.6985 65.0743 71.6695 65.1273 71.5035C67.5353 63.9255 77.2283 58.2185 74.0513 49.1285C72.7963 45.5375 69.6223 43.4835 66.4043 41.8095C61.4273 39.2205 56.7733 36.6735 52.4123 33.0685C52.1213 32.8285 51.7353 33.0734 51.7193 33.3514C51.1323 32.5994 50.5323 31.8584 49.9203 31.1314C60.7823 34.4814 71.2273 39.5455 81.0463 45.8495C83.1743 47.2155 85.2633 48.6754 87.3383 50.1694C86.2183 51.7144 85.3423 53.3414 84.6693 55.0314C84.5203 54.8794 84.2943 54.8055 84.0533 54.9405C76.9503 58.9325 69.3053 64.4605 70.9893 73.7455C72.5773 82.5035 81.7923 86.3655 87.8733 91.5955C88.1543 91.8375 88.6963 91.7875 88.7773 91.3565C89.6813 86.5715 93.3003 83.5084 95.2533 79.2254C96.4773 76.5424 97.1303 73.5634 97.0413 70.6094C96.8293 63.5164 91.2353 60.7744 88.4113 54.9624C88.7113 53.8584 89.0293 52.7524 89.3813 51.6434C93.1693 54.4374 96.9063 57.3614 100.672 60.2424C100.47 60.3224 100.306 60.4984 100.295 60.7774C99.9483 69.7254 100.929 80.2444 109.908 84.7434C119.668 89.6324 130.589 84.9865 139.504 80.4605C139.719 80.3515 139.69 80.1304 139.557 80.0024C139.552 79.9634 139.554 79.9265 139.535 79.8865C135.733 71.8705 139.165 62.6624 130.181 57.4324C127.599 55.9294 125.012 55.3035 122.418 55.1845C127.935 52.8745 133.215 50.0945 138.329 46.9725C138.751 46.7145 138.609 46.1724 138.202 46.0024C132.647 43.6874 129.05 38.9704 124.332 35.4674C120.396 32.5444 115.702 30.9594 110.788 31.0104C110.253 31.0164 109.726 31.0484 109.202 31.0924C112.652 26.7914 115.281 21.8304 117.49 16.8044C117.611 16.5294 117.535 16.1585 117.195 16.0805C111.323 14.7205 106.797 10.3475 100.904 9.07246C96.6823 8.15946 92.1643 8.62045 88.1503 10.1775C79.8093 13.4125 74.5033 21.1005 72.4863 29.5735C72.4563 29.6975 72.4793 29.8025 72.5213 29.8955C69.3293 30.3235 66.1193 30.6844 62.9003 31.0054C56.1183 28.0924 49.0613 25.8614 41.8593 24.3034C42.3573 23.8454 42.8653 23.4045 43.3693 22.9555C50.3773 20.1025 59.1273 25.8784 65.5143 21.0284C71.1273 16.7654 69.0833 8.02746 73.9853 3.18046C74.3303 2.83846 74.0603 2.27645 73.6023 2.25545C65.2223 1.86945 55.3603 -2.06154 47.6843 3.18046C42.1443 6.96346 40.3493 13.6105 42.2243 19.7755C41.1083 20.8355 40.0213 21.9335 38.9733 23.0805C38.6653 23.4175 39.1693 23.9225 39.4753 23.5825C40.4423 22.5125 41.4423 21.4874 42.4643 20.4924C42.5043 20.6074 42.5373 20.7234 42.5803 20.8384C42.7903 21.3954 43.6883 21.1585 43.4823 20.5895C43.3853 20.3225 43.3013 20.0584 43.2193 19.7944C49.5693 13.8064 56.9313 9.23045 65.2023 6.14745C56.4033 11.0355 48.3863 17.2655 41.0023 24.0815C40.9933 24.0895 40.9913 24.0995 40.9833 24.1085C28.0383 21.4125 14.6373 20.9264 1.50527 22.7914C1.23527 22.8294 1.10928 23.0065 1.09228 23.2075C-0.525725 24.7365 0.338279 27.5135 2.53028 27.9905ZM44.5433 21.9064C51.4323 15.9104 58.8393 10.6924 66.5483 5.74345C66.7163 5.63545 66.5683 5.38145 66.3923 5.47645C66.2073 5.57545 66.0283 5.68545 65.8443 5.78545C65.8413 5.70445 65.7843 5.62846 65.6853 5.66146C57.1783 8.51646 49.5403 13.0425 43.0063 19.0425C40.3103 8.86146 48.3553 1.34045 58.5753 1.57145C62.5193 1.66045 66.3453 2.74646 70.2583 3.10546C73.5143 3.40446 71.5813 3.89545 70.5263 6.31145C67.8673 12.4005 68.8183 21.1235 59.9883 21.9095C54.6603 22.3835 49.6253 20.1884 44.5433 21.9064ZM109.24 20.0475C96.0253 27.5615 81.5003 31.8064 66.3063 32.5234C65.6163 32.1994 64.9153 31.9005 64.2193 31.5905C79.7083 29.9975 95.4003 27.5015 109.24 20.0475ZM70.8523 32.9485C70.8793 33.0415 70.9423 33.1244 71.0713 33.1304C76.6613 33.3814 81.2633 34.8414 86.2513 37.2904C88.7953 38.5404 91.1143 39.6105 93.8673 39.6685C92.3713 41.6375 91.1613 43.8615 90.3253 46.2835C89.9453 46.4035 89.5633 46.5104 89.1853 46.6404C89.0133 46.6994 88.9343 46.8385 88.9253 46.9815C83.5783 42.6745 78.0553 38.6495 72.0623 35.4045C70.6453 34.6375 69.2103 33.9055 67.7633 33.2015C68.7963 33.1345 69.8263 33.0485 70.8523 32.9485ZM108.439 31.1625C102.918 31.8305 98.0803 34.6194 94.6063 38.7304C90.0243 38.6084 86.5333 35.9924 82.3703 34.4024C79.5423 33.3214 76.6483 32.7604 73.6793 32.6314C86.6693 30.9834 99.1133 26.6904 110.422 19.8644C110.633 19.7374 110.476 19.4464 110.27 19.4924C110.373 19.4354 110.477 19.3844 110.58 19.3254C110.766 19.2204 110.601 18.9424 110.413 19.0404C98.7693 25.0644 86.2763 27.9845 73.4853 29.7575C76.5203 17.1955 87.8403 6.99345 101.398 10.2595C104.558 11.0215 107.259 12.7945 110.074 14.3225C111.024 14.8385 114.827 15.8185 115.358 16.6725C117.259 19.7295 110.97 27.6565 108.439 31.1625ZM120.864 55.1604C117.752 55.2464 114.626 55.9674 111.478 56.7124C111.468 56.7114 111.461 56.7065 111.451 56.7065C106.444 56.6105 101.518 56.1864 97.4083 54.0714C95.6073 52.5364 93.7973 51.0145 91.9803 49.5045C91.7323 49.1765 91.4983 48.8224 91.2653 48.4634C104.721 43.9004 118.529 45.4645 132.412 46.5285C132.53 46.5375 132.557 46.3384 132.44 46.3214C118.565 44.3244 104.098 43.2475 90.6363 47.9045C90.4913 47.9545 90.4203 48.0655 90.3993 48.1845C90.0673 47.9125 89.7393 47.6355 89.4063 47.3655C89.8143 47.2225 90.2243 47.1055 90.6333 46.9745C90.8563 47.0445 91.1203 46.9875 91.2723 46.7705C104.899 42.5915 118.819 44.5845 132.77 46.1585C132.881 46.1705 132.904 45.9845 132.796 45.9655C119.242 43.6005 105.02 42.0185 91.6473 45.8695C94.2593 39.1915 99.7283 33.9324 106.923 32.4844C107.208 32.4274 107.489 32.3885 107.771 32.3445C107.841 32.4635 108.008 32.5334 108.117 32.4074C108.157 32.3624 108.193 32.3134 108.232 32.2684C115.391 31.2954 121.658 34.2965 126.947 39.0605C128.878 40.7995 130.731 42.6435 132.825 44.1935C133.035 44.3495 136.614 46.4375 136.623 46.4965C136.922 48.2795 124.906 53.4114 120.864 55.1604ZM107.907 57.5324C106.189 57.8994 104.464 58.2054 102.73 58.3514C102.648 58.3584 102.579 58.3845 102.513 58.4145C101.6 57.6435 100.69 56.8655 99.7793 56.0895C102.346 57.0115 105.14 57.4514 107.907 57.5324ZM138.744 79.8684C125.184 76.3754 114.294 68.2815 103.781 59.4785C112.47 58.4775 121.126 53.5805 129.561 58.4945C138.243 63.5525 134.503 72.6414 138.744 79.8684ZM101.512 60.8795C112.343 69.1325 123.473 76.8935 136.857 79.9145C137.354 80.0485 137.859 80.1684 138.363 80.2904C129.836 83.9684 120.264 88.1085 111.134 83.9405C101.993 79.7675 101.354 69.6445 101.512 60.8795ZM84.3043 56.0095C83.0783 59.5325 82.6823 63.3115 82.7913 67.1975C82.9603 73.1865 83.5033 79.9645 86.6053 85.2185C86.6113 85.2285 86.6213 85.2275 86.6283 85.2365C86.6793 85.4525 86.7233 85.6695 86.7763 85.8845C86.8343 86.1205 87.1803 86.0184 87.1353 85.7854C85.1663 75.5104 85.6033 65.7785 88.1553 55.9005C90.8613 61.6915 96.3613 64.9734 95.9413 72.3244C95.6773 76.9384 93.4043 80.4064 90.9293 84.0884C90.0413 85.4094 89.2953 86.7025 88.5473 88.1035C87.5273 90.0125 88.4583 89.7515 87.0553 89.4985C85.3833 89.1965 82.1583 85.9504 80.7323 84.9024C77.9213 82.8374 75.1193 80.5584 73.4093 77.4504C68.0263 67.6744 76.6283 60.3865 84.3043 56.0095ZM87.9643 50.6144C88.2573 50.8264 88.5533 51.0305 88.8453 51.2445C88.8013 51.2815 88.7623 51.3264 88.7383 51.3894C84.8403 61.4404 84.0873 72.6915 86.1943 83.2495C84.1443 78.2545 83.7053 72.5295 83.5563 67.1975C83.3883 61.1955 84.4253 55.5264 87.9643 50.6144ZM52.0583 33.7984C54.9433 36.2404 57.9653 38.4435 61.2783 40.2835C64.5263 42.0865 68.3793 43.3955 70.9823 46.1535C79.3293 54.9974 67.0583 62.2914 64.8793 70.3804C65.6263 57.0334 60.1263 44.2804 52.0583 33.7984ZM50.1083 35.9565C53.0253 40.2485 55.9503 44.5425 58.6633 48.9525C62.7833 55.6515 63.7433 62.7074 64.0883 70.3544C60.3363 65.9974 55.4143 62.8614 51.7213 58.4494C45.8293 51.4114 47.2993 43.8655 50.1083 35.9565ZM47.0933 30.2984C47.7803 30.4904 48.4673 30.6865 49.1513 30.8925C53.2423 36.2695 57.0233 41.8265 59.7703 48.0385C60.7443 50.2415 61.5903 52.5115 62.2823 54.8265C61.7763 53.4375 61.1833 52.0794 60.4653 50.7524C57.5183 45.3024 53.8713 40.1485 50.3113 35.0115C50.3063 35.0025 50.3003 34.9955 50.2943 34.9875C49.2113 33.4255 48.1373 31.8654 47.0933 30.2984ZM1.79427 23.9005C1.80127 23.8995 1.80627 23.9025 1.81327 23.9015C22.3713 20.8875 43.4033 23.5564 62.3983 31.6104C62.4523 31.7004 62.5463 31.7635 62.6893 31.7495C62.6973 31.7485 62.7053 31.7475 62.7133 31.7465C63.5043 32.0845 64.2983 32.4164 65.0823 32.7734C64.9643 33.0024 65.0653 33.3445 65.3963 33.3315C65.6543 33.3215 65.9113 33.3015 66.1693 33.2885C70.0313 35.0985 73.8083 37.1144 77.4593 39.3814C82.3503 42.4194 86.9503 45.9815 91.4533 49.7185C93.1243 52.3525 95.4933 54.2144 98.2133 55.4584C99.5293 56.5924 100.845 57.7274 102.165 58.8544C102.083 59.2104 102.264 59.6165 102.729 59.5815C102.817 59.5745 102.905 59.5644 102.993 59.5574C110.553 65.9854 118.286 72.1085 127.107 76.2885C112.92 70.1745 100.903 59.3915 88.3403 50.0075C88.3623 49.7735 88.0933 49.5924 87.8453 49.6444C83.8123 46.6474 79.7213 43.7985 75.4793 41.3065C53.9063 28.6295 27.7813 21.2265 2.88727 27.1555C2.75927 27.1865 2.67128 27.2485 2.60128 27.3225C1.06028 26.7635 0.835271 25.0985 1.79427 23.9005Z" fill="#432918"/>
<path d="M116.677 59.9624C120.004 59.0214 123.348 58.7334 126.778 59.2174C126.91 59.2364 126.88 59.4665 126.746 59.4525C123.364 59.0995 120.043 59.3604 116.789 60.3694C116.53 60.4494 116.416 60.0364 116.677 59.9624Z" fill="#432918"/>
<path d="M116.995 58.9174C118.945 58.1254 120.962 57.7974 123.06 57.9854C123.264 58.0034 123.27 58.3184 123.06 58.3084C120.993 58.2104 119.018 58.5354 117.111 59.3374C116.854 59.4454 116.736 59.0224 116.995 58.9174Z" fill="#432918"/>
<path d="M103.437 52.9554C106.493 54.0254 109.45 54.4844 112.67 53.9304C112.899 53.8914 113 54.2374 112.767 54.2834C109.584 54.9004 106.237 54.7264 103.241 53.4184C102.981 53.3044 103.167 52.8614 103.437 52.9554Z" fill="#432918"/>
<path d="M103.058 52.1875C105.391 52.0985 107.724 51.9925 110.058 51.9315C110.304 51.9255 110.3 52.2944 110.058 52.3114C107.727 52.4724 105.391 52.5895 103.058 52.7225C102.716 52.7415 102.714 52.2005 103.058 52.1875Z" fill="#432918"/>
<path d="M100.43 12.6924C103.265 13.1804 105.995 14.2095 108.55 15.5135C108.696 15.5885 108.568 15.8005 108.422 15.7325C105.803 14.5015 103.142 13.6994 100.332 13.0454C100.101 12.9904 100.202 12.6524 100.43 12.6924Z" fill="#432918"/>
<path d="M99.1282 10.8834C101.242 11.3034 103.344 11.7874 105.447 12.2604C105.634 12.3024 105.553 12.5794 105.368 12.5454C103.246 12.1524 101.118 11.7704 99.0062 11.3244C98.7182 11.2634 98.8412 10.8274 99.1282 10.8834Z" fill="#432918"/>
<path d="M56.3932 19.3955C59.2722 19.3345 61.9582 18.8855 64.7252 18.1125C64.8982 18.0645 64.9602 18.3144 64.7982 18.3764C62.1492 19.3934 59.2282 19.8814 56.3932 19.8804C56.0802 19.8794 56.0802 19.4015 56.3932 19.3955Z" fill="#432918"/>
<path d="M55.6182 17.7075C57.9902 17.3615 60.3622 16.9645 62.7442 16.6905C62.9992 16.6615 63.0562 17.0874 62.8052 17.1394C60.4852 17.6144 58.1353 17.9685 55.8023 18.3715C55.3643 18.4475 55.1842 17.7705 55.6182 17.7075Z" fill="#432918"/>
<path d="M73.7604 72.4765C73.8684 75.1515 74.8793 77.5335 76.7963 79.4145C76.9903 79.6055 76.6963 79.8974 76.4983 79.7124C74.4643 77.8174 73.2864 75.2634 73.2474 72.4754C73.2424 72.1454 73.7474 72.1475 73.7604 72.4765Z" fill="#432918"/>
<path d="M75.6823 71.8094C75.8793 73.4054 76.3033 74.9374 76.8793 76.4374C76.9483 76.6184 76.6493 76.7454 76.5643 76.5704C75.8423 75.0814 75.3823 73.5194 75.1233 71.8854C75.0583 71.4794 75.6313 71.3974 75.6823 71.8094Z" fill="#432918"/>
<path d="M68.8523 45.3495C70.4353 47.0555 71.5143 49.1334 72.0063 51.4064C72.0493 51.6044 71.7543 51.6884 71.7013 51.4904C71.1033 49.2884 70.0474 47.3754 68.5144 45.6874C68.3074 45.4604 68.6413 45.1235 68.8523 45.3495Z" fill="#432918"/>
<path d="M66.6271 45.2485C67.5011 46.3735 68.3751 47.4995 69.2491 48.6245C69.4371 48.8665 69.1062 49.2114 68.9062 48.9674C68.0072 47.8674 67.1081 46.7664 66.2091 45.6654C65.9691 45.3714 66.3961 44.9515 66.6271 45.2485Z" fill="#432918"/>
</svg>
