<svg width="247" height="296" viewBox="0 0 247 296" fill="none" xmlns="http://www.w3.org/2000/svg">
<path d="M162.072 290.708C163.261 289.25 164.083 287.671 164.969 286.027C165.093 285.797 165.498 285.956 165.399 286.208C164.721 287.958 163.537 289.541 162.3 290.936C162.161 291.095 161.942 290.867 162.072 290.708Z" fill="#432918"/>
<path d="M163.645 291.36C164.579 290.023 165.32 288.596 165.867 287.058C165.981 286.738 166.498 286.884 166.376 287.198C165.768 288.757 164.971 290.208 163.973 291.551C163.829 291.744 163.503 291.563 163.645 291.36Z" fill="#432918"/>
<path d="M42.3358 39.9695C46.3128 42.7835 50.8317 44.9045 55.4757 46.6895C49.9207 45.4175 44.2107 45.6095 38.4887 46.6825C34.1777 47.4905 29.9757 48.7515 25.8037 50.0865C23.1407 50.9385 20.5447 51.4625 18.6347 53.5845C18.4427 53.7985 18.4927 54.2145 18.8177 54.2765C27.2697 55.9095 35.8308 56.4135 44.4038 55.4975C50.5008 54.8455 56.7467 53.7215 60.9287 48.8715C60.9537 48.8425 60.9687 48.8125 60.9797 48.7825C67.6987 51.3325 74.2457 53.8985 80.4527 57.3925C80.2637 57.5805 80.0677 57.7565 79.8767 57.9395C80.0257 57.7085 79.9908 57.3705 79.6538 57.2925C63.3648 53.5185 47.2248 58.6195 32.8018 66.1615C32.4888 66.3255 32.5277 66.9115 32.9067 66.9645C41.4687 68.1645 51.0678 69.3325 59.9778 68.1265C53.8708 71.0675 50.1688 77.8575 44.7868 81.8925C44.4638 82.1345 44.5238 82.7525 45.0128 82.7285C59.6248 82.0185 83.5348 78.5515 83.7528 59.3715C85.1618 60.2635 86.5537 61.2075 87.9197 62.2305C95.3137 67.7675 101.767 74.4545 107.281 81.8675C100.436 78.0715 92.6757 74.4055 84.6767 75.5255C75.8597 76.7605 67.2898 82.7365 59.4938 86.7105C59.1038 86.9095 59.2317 87.4845 59.6097 87.6015C75.7057 92.5785 93.4998 91.4365 108.43 83.4315C114.375 91.7345 119.162 100.897 122.747 110.381C124.552 115.155 125.992 120.067 128.359 124.608C130.781 129.254 133.885 133.517 136.53 138.035C142.166 147.662 146.623 157.911 151.091 168.114C153.59 173.822 156.098 179.525 158.575 185.242C159.185 186.648 159.797 188.292 160.492 189.78C159.951 189.045 159.401 188.315 158.839 187.594C153.622 180.898 147.525 174.899 140.783 169.744C126.363 158.72 108.983 151.53 90.9057 149.667C90.7527 149.651 90.6777 149.792 90.6827 149.925C90.6667 149.948 90.6468 149.965 90.6328 149.995C90.6108 150.044 90.5808 150.087 90.5588 150.136C87.2878 147.12 82.6737 146.167 78.3797 147.246C78.0877 147.319 78.0058 147.776 78.2928 147.915C80.1348 148.806 81.9758 149.701 83.8138 150.601C82.2258 152.16 79.3867 156.421 81.7197 157.492C81.7167 157.496 81.7128 157.497 81.7108 157.501C79.7108 160.498 79.1517 163.787 78.0097 167.151C76.4417 171.767 73.3947 174.571 69.1307 176.64C65.5937 178.357 61.8287 179.486 58.3807 181.402C57.5497 181.863 49.8368 187.36 50.0068 187.496C48.5788 186.354 50.6197 177.144 50.9497 175.243C51.7757 170.485 53.1607 165.756 55.6477 161.582C60.8387 152.873 70.1697 148.541 80.1727 149.358C80.4167 149.378 80.4718 148.966 80.2308 148.93C71.2248 147.592 62.1037 151.046 56.5647 158.381C49.9517 167.139 49.2028 178.498 48.6368 189.047C48.6128 189.491 49.1967 189.693 49.4917 189.401C53.4957 185.442 57.9657 182.396 63.1357 180.187C66.3187 178.826 69.6688 177.723 72.5888 175.825C79.3008 171.465 78.2647 163.967 82.2857 157.839C82.3257 157.778 82.3368 157.718 82.3348 157.662C83.8778 157.875 86.3017 156.352 87.3967 155.547C88.9687 154.391 90.1458 152.88 91.0068 151.16C91.0288 151.168 91.0447 151.18 91.0707 151.184C99.4837 152.472 107.453 155.058 114.919 158.655C111.27 159.332 108.291 161.906 106.804 165.322C106.528 165.586 106.251 165.843 105.965 166.096C105.939 165.987 105.803 165.907 105.693 166.005C99.9078 171.212 95.6618 178.581 96.2048 186.585C96.7698 194.914 103.282 202.041 108.332 208.213C108.553 208.484 108.972 208.305 109.064 208.02C110.372 203.97 113.517 201.516 115.888 198.187C117.661 195.697 118.802 192.874 119.457 189.9C120.962 183.075 119.713 176.124 118.331 169.393C118.311 169.296 118.262 169.234 118.204 169.188C119.989 166.45 120.031 163.032 118.231 160.337C137.852 170.79 153.752 188.291 164.613 207.683C179.702 234.626 177.021 268.603 157.686 292.761C157.509 292.982 157.485 293.351 157.782 293.503C160.458 294.869 162.761 295.411 165.751 295.073C165.996 295.255 166.375 295.275 166.585 294.941C171.066 287.824 173.19 279.861 175.232 271.78C177.433 263.07 180.092 254.805 184.379 246.858C188.031 240.089 192.264 233.675 196.378 227.199C196.414 227.193 196.448 227.2 196.486 227.183C196.535 227.16 196.582 227.135 196.631 227.112C213.314 229.705 227.674 217.74 234.079 203.136C234.234 202.784 233.981 202.369 233.567 202.471C222.053 205.297 210.036 209.548 201.926 218.153C204.59 213.576 207.044 208.878 209.052 203.918C210.685 199.885 212.076 195.749 213.231 191.545C213.234 191.549 213.234 191.554 213.237 191.557C213.195 191.733 213.276 191.941 213.512 191.949C230.862 192.553 242.727 177.729 246.633 162.119C246.71 161.812 246.356 161.645 246.133 161.828C240.083 166.808 232.166 168.71 226.086 173.905C222.057 177.347 218.699 181.389 216.002 185.88C218.702 179.131 221.807 173.212 226.998 167.638C227.164 167.46 226.902 167.195 226.73 167.369C220.427 173.761 216.869 180.88 213.831 189.227C214.92 184.904 215.763 180.516 216.331 176.094C216.476 176.113 216.634 176.053 216.694 175.876C218.66 170.034 222.736 165.653 227.753 162.214C228.776 161.513 229.825 160.853 230.895 160.226C232.613 159.219 232.931 158.695 233.166 160.825C233.494 163.798 231.969 167.334 230.848 170.025C230.772 170.208 231.073 170.326 231.163 170.158C233.111 166.493 233.901 162.548 233.827 158.417C233.822 158.159 233.553 158.018 233.332 158.133C226.284 161.795 219.444 166.798 216.527 174.391C217.041 169.833 217.287 165.247 217.224 160.666C217.314 160.691 217.417 160.672 217.487 160.57C217.647 160.337 217.797 160.099 217.954 159.864C228.062 157.395 230.681 145.264 230.2 136.139C230.183 135.823 229.808 135.52 229.506 135.741C226.159 138.188 222.624 140.75 220.575 144.449C218.188 148.758 217.964 154.62 217.194 159.522C217.154 157.864 217.086 156.208 216.968 154.555C216.461 147.461 215.442 140.225 213.389 133.375C213.8 134.409 214.236 135.432 214.72 136.431C214.489 136.544 214.596 136.914 214.868 136.85C214.873 136.849 214.877 136.847 214.882 136.846C214.989 136.925 215.165 136.931 215.222 136.795C215.23 136.776 215.236 136.757 215.244 136.738C226.561 133.573 222.309 113.448 220.357 105.499C220.257 105.09 219.675 105.121 219.56 105.499C218.478 109.052 216 111.139 214.338 113.834C213.414 111.215 212.261 108.753 210.849 106.353C210.732 106.155 210.444 106.16 210.327 106.353C207.878 110.38 206.686 114.915 206.829 119.584C204.876 116.711 202.674 113.994 200.317 111.399C200.299 111.348 200.292 111.294 200.25 111.248C200.221 111.216 200.192 111.184 200.163 111.151C206.388 101.632 201.321 90.5085 196.606 81.5235C196.444 81.2145 196.03 81.2705 195.856 81.5235C193.235 85.3095 191.623 89.3495 191.079 93.8795C187.496 90.6925 183.851 87.5955 180.632 83.9905C180.346 83.6705 179.865 83.9465 179.84 84.3185C178.959 97.4365 187.077 108.765 199.857 111.923C199.892 111.932 199.918 111.915 199.95 111.915C199.954 111.92 199.958 111.924 199.961 111.929C203.891 118.366 206.842 125.184 208.906 132.221C208.881 132.207 208.86 132.188 208.827 132.19C201.45 132.607 194.456 131.083 188.436 126.654C185.983 124.849 182.678 122.131 181.978 118.998C181.456 116.661 182.103 117.662 183.971 118.037C185.448 118.333 186.94 118.856 188.406 119.229C194.512 120.784 201.09 122.333 205.404 127.316C205.846 127.826 207.832 130.209 206.684 131.006C206.186 131.352 200.006 128.539 200.309 128.677C197.691 127.482 195.254 125.999 192.857 124.418C192.577 124.233 192.336 124.671 192.598 124.861C197.348 128.304 202.517 130.589 208.176 132.061C208.406 132.121 208.656 131.902 208.576 131.661C204.697 119.951 190.505 119.605 180.743 115.974C180.413 115.851 180.118 116.216 180.196 116.52C183.27 128.468 197.588 134.172 208.875 132.554C208.926 132.547 208.961 132.519 208.982 132.484C211.561 141.38 212.698 150.627 212.568 159.908C208.535 147.637 198.759 138.083 186.625 133.724C186.313 133.612 185.946 133.968 186.066 134.283C188.949 141.88 192.407 151.105 198.467 156.775C200.982 159.128 208.704 164.069 212.511 162.524C212.106 172.729 210.17 182.941 206.893 192.743C206.496 193.931 206.078 195.112 205.644 196.287C206.434 193.075 206.858 189.762 206.952 186.397C207.185 178.044 204.216 170.575 201.564 162.791C201.425 162.382 200.881 162.389 200.739 162.791C199.132 167.353 197.516 171.912 195.899 176.47C193.247 169.541 190.23 161.066 183.859 157.229C183.578 157.06 183.215 157.278 183.214 157.599C183.126 174.18 182.476 197.771 200.055 206.302C200.391 206.465 200.77 206.129 200.576 205.781C194.881 195.518 191.222 184.591 189.048 173.085C188.986 172.756 188.505 172.902 188.553 173.221C190.125 183.758 193.652 193.539 198.263 203.088C200.128 206.949 196.701 203.44 195.207 202.128C193.252 200.412 191.625 198.323 190.26 196.117C187.028 190.892 185.62 184.722 184.916 178.687C184.557 175.603 184.386 172.494 184.255 169.393C184.166 167.277 183.175 162.349 184.059 160.547C184.666 159.308 184.679 159.226 186.172 160.032C187.507 160.753 188.325 162.69 189.095 164.015C190.291 166.073 191.243 168.28 192.239 170.439C197.689 182.254 202.429 194.511 200.555 207.748C200.54 207.855 200.607 207.93 200.687 207.962C197.547 214.511 193.91 220.825 189.845 226.839C187.762 229.92 185.568 232.92 183.297 235.865C182.698 236.642 181.378 239.572 179.996 238.748C179.767 238.611 179.395 235.916 179.283 235.387C178.088 229.767 176.893 224.146 175.635 218.54C170.508 195.68 164.199 172.785 154.12 151.559C151.564 146.176 148.771 140.905 145.675 135.812C144.384 133.688 141.508 130.734 141.503 128.253C141.498 125.919 143.969 123.305 145.031 121.163C149.339 112.469 151.015 102.594 149.975 92.9555C148.726 81.3845 141.275 71.3245 140.76 59.7245C140.395 51.4935 144.393 44.6835 152.364 41.9645C158.423 39.8975 164.993 40.6395 171.228 41.2865C171.075 44.7935 173.394 47.3625 175.801 49.6675C176.439 72.2585 202.493 75.7415 219.997 78.2215C220.415 78.2805 220.68 77.8615 220.403 77.5235C213.281 68.8295 212.307 56.8245 205.233 47.9215C199.598 40.8295 190.502 35.2445 181.167 36.9155C181.75 36.1605 182.279 35.3595 182.736 34.4925C182.937 34.1125 182.543 33.7765 182.182 33.9385C179.005 35.3665 175.934 36.9705 172.946 38.7625C172.886 38.7985 172.846 38.8435 172.816 38.8925C158.097 32.9495 140.868 37.6635 138.309 55.0465C137.072 63.4475 139.491 71.7525 141.214 79.8955C143.259 89.5625 144.176 99.7015 142.093 109.449C141.546 112.009 140.766 114.483 139.744 116.892C139.526 117.407 137.705 122.327 136.846 122.424C135.412 122.586 131.991 112.693 131.323 111.231C127.423 102.7 123.213 94.2785 118.104 86.3985C116.403 83.7755 114.587 81.2425 112.671 78.7985C118.834 74.4185 119.829 65.9475 119.69 58.9035C119.504 49.4775 116.533 40.4425 111.465 32.5345C111.225 32.1595 110.679 32.3235 110.651 32.7545C110.35 37.4645 108.136 41.6175 106.88 46.0885C105.287 41.8175 103.099 37.9215 100.359 34.2675C100.211 34.0705 99.8588 33.9935 99.7278 34.2675C93.7288 46.8585 97.5028 60.2615 105.538 70.6735C100.313 65.3385 94.4907 60.6265 88.0787 56.7305C97.9377 42.8905 88.0068 26.5645 76.4428 17.5315C76.1528 17.3055 75.7118 17.5055 75.8048 17.9025C77.5118 25.1505 77.4258 32.5995 78.9858 39.8215C80.2828 45.8235 83.7687 50.7945 87.3287 55.6745C87.5057 55.9175 87.8217 55.9175 87.9887 55.7315C87.8487 55.9635 87.7077 56.1945 87.5577 56.4235C85.0547 54.9265 82.4718 53.5415 79.7958 52.2985C77.0558 51.0265 74.2337 49.8915 71.3807 48.8065C74.0227 42.0995 73.9828 34.5725 71.1368 27.9105C68.0578 20.7005 61.9147 14.8005 56.9287 8.91546C56.6907 8.63446 56.1717 8.86046 56.1947 9.21946C56.6457 16.2545 57.1417 23.4525 59.5817 30.1315C62.0187 36.8035 66.5748 42.3575 70.2368 48.3705C64.4738 46.2125 58.5957 44.2385 52.9587 41.8425C58.8907 27.1895 47.8017 13.7085 37.1377 4.85646C36.9217 4.67746 36.6137 4.79446 36.5937 5.08146C35.6327 18.5885 40.8478 32.1025 51.1148 41.0295C45.0508 38.3155 39.3137 35.0265 34.3747 30.3575C34.3617 30.3375 34.3467 30.3185 34.3337 30.2995C34.7947 23.6325 32.0168 17.0265 27.5588 12.1305C25.1728 9.51046 22.2638 7.38446 19.0218 5.95546C14.9358 4.15446 10.4668 3.48546 7.25076 0.126461C6.94776 -0.189539 6.32074 0.134462 6.48374 0.572462C11.4157 13.8555 20.9658 24.7525 33.6188 31.1845C33.6588 31.2045 33.6968 31.2085 33.7358 31.2175C35.7318 34.2795 38.2028 36.8115 40.9778 38.9625C27.5968 34.1005 14.2887 32.3985 0.307748 36.3835C-0.0462524 36.4845 -0.114257 36.9785 0.205743 37.1675C12.9597 44.6895 29.0758 49.5755 42.1848 40.0205C42.2168 39.9975 42.2378 39.9705 42.2618 39.9445C42.2898 39.9555 42.3128 39.9625 42.3358 39.9695ZM40.5837 39.4275C29.2137 40.9005 17.7907 40.3265 6.56574 37.9525C6.24874 37.8855 6.11275 38.3675 6.43075 38.4405C15.6577 40.5645 25.0428 41.4375 34.5048 40.8375C35.2698 40.7895 40.0617 39.8525 40.4887 40.2295C40.4717 40.2145 33.9917 43.2515 33.4497 43.4065C28.6067 44.7835 23.4937 44.7855 18.5767 43.8265C13.8667 42.9075 9.37275 41.1255 5.11675 38.9345C2.79675 37.7405 0.824756 37.5215 3.94476 36.3005C6.52576 35.2895 9.81975 35.1785 12.5348 34.9695C22.3588 34.2155 31.3657 36.5925 40.5837 39.4275ZM33.8437 29.6045C27.6517 20.6595 20.1547 13.1915 12.2277 5.77046C12.1077 5.65846 11.9257 5.84546 12.0487 5.94946C20.1937 12.8185 27.1078 21.2785 33.5288 29.7515C33.4138 29.7885 33.3098 29.8635 33.2438 29.9645C27.4308 26.8295 22.1948 22.8555 17.7958 17.8945C15.1958 14.9625 12.9118 11.7465 11.0008 8.32546C10.2778 7.03046 9.60575 5.70446 8.99375 4.35246C8.35675 2.94646 7.96075 2.18746 7.75575 1.82846C7.93775 2.07146 8.25176 2.42146 8.65176 2.63246C14.0618 5.49046 20.2357 6.65246 24.9277 10.8115C30.5127 15.7615 33.1317 22.3585 33.8437 29.6045ZM212.374 161.04C207.161 156.899 202.37 152.355 197.911 147.403C197.731 147.202 197.448 147.495 197.618 147.696C200.237 150.808 203.002 153.779 205.977 156.554C207.184 157.68 208.85 158.723 209.884 160.014C211.586 162.14 211.229 162.004 208.794 161.192C199.5 158.093 195.182 151.792 190.965 143.321C190.48 142.348 187.223 136.198 187.608 135.782C188.468 134.851 190.228 136.117 191.67 136.852C195.114 138.608 198.303 140.898 201.12 143.538C206.338 148.43 209.957 154.369 212.374 161.04ZM196.194 99.8995C196.474 100.26 196.713 100.624 196.928 100.99C196.932 101.041 196.934 101.093 196.938 101.144C196.949 101.299 197.051 101.391 197.169 101.425C198.692 104.332 198.523 107.388 199.63 110.551L199.631 110.553C195.238 105.667 191.101 100.689 187.585 95.1105C187.387 94.7965 186.909 95.0745 187.087 95.4015C188.613 98.2065 190.417 100.81 192.384 103.322C193.058 104.183 198.737 110.104 198.531 110.534C197.998 111.652 190.425 106.684 189.414 105.833C186.213 103.14 183.704 99.6035 182.236 95.6845C181.553 93.8615 179.321 86.3565 181.141 85.9455C181.988 85.7545 187.709 92.2265 188.748 93.1385C191.2 95.2875 194.185 97.3135 196.194 99.8995ZM200.124 110.105C199.058 106.183 199.176 103.413 197.517 100.555C197.275 96.5285 196.966 92.5005 196.54 88.4885C196.522 88.3215 196.268 88.3135 196.273 88.4885C196.372 92.1705 196.578 95.8525 196.834 99.5275C196.386 98.9165 195.854 98.2955 195.188 97.6515C194.041 96.5425 192.865 95.4695 191.68 94.4095C192.109 91.3055 192.771 86.8635 194.874 84.5775C196.084 83.2625 195.632 82.9545 197.04 84.2845C197.925 85.1215 198.42 87.0475 198.936 88.2015C202.126 95.3325 203.633 102.925 200.124 110.105ZM219.53 149.537C220.248 146.71 221.373 144.26 223.334 142.071C224.135 141.176 228.306 136.967 229.083 137.678C230.449 138.93 228.826 145.001 228.444 146.569C227.065 152.229 223.824 156.926 218.478 159.076C221.334 154.658 223.636 149.959 225.406 144.991C225.532 144.638 224.98 144.496 224.85 144.838C223.622 148.085 222.28 151.265 220.641 154.328C220.104 155.332 219.589 156.439 218.927 157.367C218.017 158.642 218.195 159.438 218.02 157.651C217.793 155.346 218.961 151.778 219.53 149.537ZM214.233 191.29C222.7 186.476 230.271 180.324 236.764 173.052C236.908 172.891 236.673 172.652 236.525 172.813C232.807 176.872 228.864 180.677 224.433 183.958C222.443 185.432 220.391 186.826 218.297 188.147C217.549 188.619 216.341 189.71 215.472 189.863C214.194 190.088 214.627 190.734 214.707 189.493C214.717 189.334 214.763 189.162 214.806 188.992C214.937 188.641 215.068 188.29 215.2 187.944C215.951 186.434 217.367 184.769 218.106 183.697C219.503 181.67 221.059 179.743 222.745 177.949C225.966 174.521 229.704 171.566 233.783 169.225C235.771 168.084 237.841 167.172 239.919 166.217C240.466 165.965 245.28 163.205 245.349 163.248C246.853 164.185 241.368 173.624 240.446 175.086C234.469 184.565 225.578 190.91 214.233 191.29ZM90.3377 150.561C89.3557 152.522 87.9507 154.172 86.0607 155.344C85.4987 155.693 84.6258 156.293 83.9548 156.365L83.2838 156.577C82.8568 155.993 82.4298 155.408 82.0028 154.824C81.7308 153.453 83.7737 151.522 84.7127 150.845C84.9297 150.689 85.0057 150.303 84.7127 150.165C83.0197 149.365 81.3298 148.557 79.6408 147.749C83.5238 147.075 87.1957 148.164 90.3377 150.561ZM52.4697 41.6295C52.3317 41.5705 52.1947 41.5085 52.0577 41.4475C52.1197 41.3805 52.1618 41.2935 52.1318 41.1775C49.6008 31.1595 45.3798 21.7825 39.1168 13.5315C39.0258 13.4125 38.8228 13.5215 38.9098 13.6525C43.7668 20.8875 48.9388 29.3785 50.6628 38.0455C51.3418 41.4585 50.0958 39.2545 48.7148 37.7585C46.9718 35.8705 45.3857 33.8405 44.0087 31.6705C41.7937 28.1815 40.0628 24.3875 38.8928 20.4235C37.8458 16.8755 36.3478 11.9185 37.1208 8.20546C37.7408 5.22946 38.5548 6.86946 40.4308 8.63646C42.0478 10.1605 43.6227 11.7405 45.0777 13.4205C51.9397 21.3485 55.6977 31.3215 52.4697 41.6295ZM71.3388 46.8145C71.6018 37.5855 69.0478 28.8985 63.7538 21.2185C63.6928 21.1305 63.5497 21.2105 63.6077 21.3035C66.1697 25.4195 68.1247 29.8355 69.3497 34.5365C69.6177 35.5645 71.4727 47.2755 70.7067 47.2635C69.3547 47.2425 65.6087 39.9075 64.6087 38.3235C62.0017 34.1945 60.0068 29.8655 58.9048 25.0965C58.6488 23.9895 56.6317 10.9835 57.1687 10.9155C58.6717 10.7245 63.8157 18.3595 64.7087 19.4705C71.3477 27.7355 73.9858 36.7455 71.3388 46.8145ZM88.0168 55.7015C88.0618 55.6385 88.0977 55.5655 88.1037 55.4705C88.6947 46.4155 87.2457 37.5925 83.5397 29.2875C83.4117 29.0005 82.9167 29.2115 83.0317 29.5015C85.0007 34.4555 86.4758 39.5045 87.0888 44.8175C87.2928 46.5835 87.4117 48.3625 87.4447 50.1395C87.4847 52.2835 88.3708 55.0215 86.1548 52.6495C79.5058 45.5355 79.5598 35.7075 78.3138 26.7175C78.0598 24.8855 77.6027 23.0715 77.3667 21.2425C77.1257 19.3775 76.2207 18.7185 78.3857 20.1725C81.7277 22.4175 84.6777 26.4805 86.7907 29.8455C91.7447 37.7315 92.8688 47.6205 88.0168 55.7015ZM106.734 46.6845C106.647 47.0195 106.551 47.3505 106.477 47.6895C105.783 50.8945 105.485 54.1955 105.59 57.4725C105.818 64.5675 107.958 71.3175 111.564 77.4005C111.075 76.7995 110.566 76.2165 110.064 75.6275C110.235 75.5945 110.373 75.4045 110.275 75.2125C105.522 65.8525 102.719 55.9425 101.874 45.4805C101.838 45.0315 101.132 45.0305 101.171 45.4805C101.717 51.8785 102.913 58.1655 104.966 64.2595C105.905 67.0465 107.156 69.6645 108.233 72.3905C108.705 73.5835 110.17 74.9615 108.047 72.7875C106.762 71.4715 105.672 69.9205 104.626 68.4185C100.527 62.5355 97.8027 55.6615 97.5477 48.4435C97.4707 46.2805 97.1848 39.1235 99.1618 37.5045C102.499 34.7705 105.993 45.0935 106.592 46.5545C106.621 46.6255 106.674 46.6645 106.734 46.6845ZM112.3 78.3205C112.156 78.1395 112.017 77.9545 111.872 77.7745C112.056 77.8425 112.282 77.7465 112.358 77.5375C116.093 67.3765 114.205 54.2275 112.5 43.7925C112.464 43.5695 112.08 43.6235 112.106 43.8455C112.479 47.0125 114.502 76.4115 111.488 75.8625C110.165 75.6215 108.349 68.7085 108.067 67.7525C107.312 65.1885 106.832 62.5625 106.581 59.9015C106.129 55.1035 106.583 50.1925 107.906 45.5605C108.226 44.4415 110.925 34.5615 111.623 34.3935C113.245 34.0055 117.206 47.3605 117.588 49.0225C119.764 58.4815 120.248 71.4175 112.3 78.3205ZM176.88 49.6185C176.317 47.5485 175.726 45.2745 175.88 43.1105C176.025 41.0725 176.934 40.7485 178.406 39.6635C179.312 38.9955 180.101 38.2375 180.802 37.4045C180.808 37.4055 180.811 37.4115 180.818 37.4115C192.488 37.3585 201.61 43.1605 207.555 53.1355C211.744 60.1645 214.22 68.3225 217.865 75.6525C218.992 77.9185 218.493 77.2005 215.822 76.7755C213.477 76.4035 211.14 75.9895 208.809 75.5345C204.568 74.7065 200.319 73.8065 196.21 72.4545C185.646 68.9775 177.27 61.6475 176.768 50.0185C176.867 49.9235 176.924 49.7825 176.88 49.6185ZM201.667 205.305C203.396 196.624 202.891 187.605 202.619 178.811C202.615 178.671 202.404 178.671 202.401 178.811C202.234 186.229 202.341 193.607 201.611 200.966C201.71 193.299 199.601 185.794 196.722 178.576C196.578 178.214 196.433 177.841 196.288 177.467C196.379 177.424 196.457 177.349 196.499 177.231C197.206 175.242 199.743 165.095 201.371 164.889C201.802 164.835 204.939 175.761 205.141 176.601C207.449 186.196 205.836 196.46 201.667 205.305ZM213.945 128.711C213.13 125.197 212.865 120.611 213.725 117.052C214.495 113.868 217.276 111.576 219.132 108.884C219.502 108.347 219.779 107.926 219.99 107.591C220.267 107.608 221.227 115.711 221.159 115.052C221.835 121.674 222.934 133.004 215.5 136.096C218.177 129.571 219.419 122.897 219.011 115.817C218.996 115.566 218.611 115.562 218.617 115.817C218.725 119.97 218.479 124.087 217.589 128.158C217.333 129.328 216.413 134.732 215.473 135.139C216.154 134.844 214.051 129.168 213.945 128.711ZM210.633 115.817C210.61 115.435 210.036 115.43 210.035 115.817C210.02 120.266 210.654 124.74 211.892 129.032C210.729 126.089 209.271 123.314 207.573 120.686C207.335 117.035 207.784 113.458 209.168 110.041C209.28 109.764 209.994 107.538 210.372 107.483C211.155 107.369 211.662 108.885 211.939 109.394C212.768 110.916 213.505 112.483 214.194 114.073C213.475 115.291 212.929 116.641 212.758 118.31C212.487 120.949 212.376 123.688 212.773 126.319C213.259 129.546 214.91 132.457 214.842 135.71C212.423 129.195 211.054 122.805 210.633 115.817ZM197.404 226.739C205.752 222.747 213.588 217.964 220.879 212.244C221.074 212.091 220.811 211.755 220.615 211.902C216.551 214.928 212.376 217.784 208.007 220.354C205.952 221.562 203.867 222.72 201.753 223.821C200.875 224.278 199.537 225.298 198.558 225.426C197.165 225.608 197.584 226.222 197.694 225.125C198.554 223.756 199.405 222.382 200.241 220.999C200.97 220.215 201.694 219.508 202.17 218.994C203.731 217.307 205.437 215.807 207.265 214.419C211.458 211.233 216.149 208.911 221.068 207.061C223.554 206.126 226.099 205.348 228.659 204.646C229.115 204.521 231.757 203.512 232.091 203.758C232.99 204.423 232.244 204.646 231.946 205.602C230.622 209.844 226.617 214.15 223.49 217.145C216.308 224.023 207.162 227.205 197.404 226.739ZM105.653 166.532C105.997 166.301 106.352 166.07 106.713 165.844C106.802 166.027 107.026 166.154 107.223 166.097C109.226 165.514 111.501 164.515 113.611 164.597C116.27 164.7 116.835 167.301 117.192 169.486C117.23 169.716 117.419 169.786 117.608 169.764C119.25 177.931 120.807 187.182 116.837 194.967C115.16 198.256 112.401 200.615 110.301 203.585C108.423 206.241 109.179 207.411 106.444 204.3C102.154 199.422 97.4708 192.498 97.2138 185.858C96.9308 178.523 100.705 171.69 105.653 166.532ZM115.747 159.057C116.265 159.313 116.781 159.572 117.293 159.837C117.298 159.867 117.289 159.897 117.309 159.926C119.009 162.456 119.232 165.584 117.824 168.209C117.497 166.494 116.87 164.628 115.224 163.873C113.212 162.949 110.143 164.073 107.947 164.905C109.503 161.793 112.344 159.799 115.747 159.057ZM78.1798 84.9355C88.1488 85.2155 98.1607 84.5405 108.031 83.1275C108.085 83.1195 108.116 83.0835 108.156 83.0575C108.165 83.0695 108.174 83.0825 108.183 83.0945C98.9057 87.3565 89.1177 89.8465 78.8457 89.7555C73.8187 89.7105 68.7997 89.0775 63.9267 87.8375C60.7337 87.0255 61.4438 86.8205 64.0848 85.4855C66.2688 84.3815 68.4507 83.2735 70.6347 82.1675C76.2067 79.3445 81.7728 76.2455 88.2018 76.3255C93.5338 76.3915 100.105 78.5955 104.545 81.4825C107.339 83.2995 104.609 82.9225 102.308 83.2845C99.2557 83.7655 96.1857 84.1605 93.1037 84.3885C88.1377 84.7545 83.1567 84.7605 78.1827 84.6335C77.9847 84.6275 77.9858 84.9295 78.1798 84.9355ZM79.8017 58.0115C71.8367 65.5295 61.3607 68.0715 50.5447 67.8635C47.6117 67.8065 44.6837 67.5595 41.7687 67.2415C40.1687 67.0665 38.5508 66.9065 36.9638 66.6435C34.1878 66.1835 34.7788 66.6785 35.5588 65.7275C36.7638 64.2575 40.9348 63.1925 42.6548 62.4835C45.0658 61.4895 47.5038 60.5865 49.9948 59.8145C55.1708 58.2095 60.5368 57.1135 65.9598 56.8695C68.2308 56.7675 70.5137 56.8095 72.7777 57.0175C75.8197 57.2975 79.9308 57.1945 75.2318 58.9755C65.3618 62.7165 55.0198 64.6835 44.5038 65.3745C44.1398 65.3985 44.1368 65.9635 44.5038 65.9445C56.5858 65.2995 68.4218 62.6215 79.6548 58.1335C79.7148 58.1065 79.7567 58.0565 79.8017 58.0115ZM80.8037 57.7325C81.3447 62.1615 76.0047 67.6555 73.0447 70.1055C69.5377 73.0085 65.4287 74.7825 61.0047 75.7375C60.6207 75.8205 60.7877 76.3905 61.1657 76.3205C66.4527 75.3455 71.3288 72.7945 75.1748 69.0325C77.6918 66.5705 82.0058 61.8255 81.3298 57.9045C81.9648 58.2745 82.5977 58.6495 83.2257 59.0395C82.1887 72.0775 70.1948 78.8305 58.3648 80.7235C55.7278 81.1455 51.0907 82.1815 48.3857 81.6635C45.4337 81.0995 46.9147 81.5595 49.1947 79.4415C53.1737 75.7445 55.9668 70.8485 61.0718 68.5455C61.3588 68.4155 61.3347 68.1305 61.1727 67.9445C68.5967 66.7515 75.4807 63.8105 80.8037 57.7325ZM56.5107 49.1935C48.1997 52.4785 37.9697 52.3995 29.1757 52.4005C29.0477 52.4005 29.0497 52.5895 29.1757 52.5975C39.6607 53.2225 50.1247 51.7075 60.1917 48.8305C53.6757 55.2225 42.5618 55.3055 33.9878 55.1435C31.4598 55.0955 28.9318 54.9285 26.4188 54.6475C24.4328 54.4255 18.4367 54.8015 22.6867 51.9705C25.6007 50.0295 30.9927 49.2605 34.4307 48.4045C38.9247 47.2855 43.5528 46.5195 48.1968 46.5985C50.4888 46.6375 52.7887 46.8805 55.0347 47.3505C57.3507 47.8365 59.9807 47.8225 56.5107 49.1935ZM35.8758 32.5465C51.7858 46.6565 75.0628 48.7605 92.4218 60.8945C114.385 76.2455 125.584 100.456 135.95 124.282C136.121 124.676 136.664 124.572 136.861 124.282C147.102 109.273 144.567 91.1285 140.862 74.4135C138.525 63.8725 136.476 50.4635 145.408 42.2235C152.755 35.4455 164.014 36.2035 172.654 39.7085C172.89 39.8045 173.058 39.6685 173.119 39.4825C173.19 39.4895 173.265 39.4815 173.343 39.4345C175.955 37.8805 178.635 36.4775 181.389 35.2015C179.901 37.5255 177.897 39.3005 175.351 40.5335C175.224 40.5955 175.163 40.7415 175.156 40.8735C175.008 43.4595 175.219 45.9445 175.755 48.4385C173.723 46.3965 171.995 44.2055 171.616 41.1855C171.673 41.0615 171.648 40.8895 171.492 40.8675C162.995 39.6985 153.264 38.6165 146.042 44.3085C139.751 49.2675 138.905 57.6905 140.527 65.0595C143.005 76.3135 149.1 85.7575 149.322 97.6205C149.527 108.561 146.169 119.116 139.705 127.924C139.608 128.056 139.614 128.293 139.705 128.426C162.451 161.783 171.47 201.695 179.724 240.601C179.772 240.83 180.12 240.936 180.274 240.746C188.826 230.223 196.369 218.251 202.073 205.526C203.362 203.172 204.37 200.717 205.124 198.185C209.583 186.54 212.435 174.397 213.064 162.251C213.239 162.122 213.329 161.815 213.127 161.658C213.122 161.654 213.117 161.649 213.111 161.645C213.111 161.643 213.112 161.642 213.112 161.64C213.107 161.623 213.101 161.607 213.096 161.59C213.811 145.775 210.75 129.974 202.568 115.291C206.963 121.072 210.673 126.738 212.756 134.152C215.089 142.457 216.131 151.137 216.285 159.747C216.592 176.999 212.884 194.342 205.322 209.866C198.361 224.156 187.939 236.436 181.068 250.771C174.361 264.763 173.876 281.1 165.608 294.367C165.583 294.408 165.578 294.447 165.563 294.487C164.063 294.516 162.582 294.339 161.12 293.94C159.041 293.109 158.753 292.14 160.254 291.032C160.628 289.84 162.269 288.264 162.973 287.192C165.208 283.791 167.145 280.197 168.787 276.474C171.702 269.866 173.672 262.86 174.672 255.709C176.759 240.777 174.527 225.443 167.912 211.869C153.285 181.855 125.093 155.671 91.3488 150.47C91.3558 150.455 91.3637 150.441 91.3707 150.426C91.4007 150.356 91.4087 150.288 91.4057 150.222C120.165 154.413 146.172 170.051 162.488 194.268C162.832 194.778 163.538 194.34 163.297 193.795C155.948 177.144 149.167 160.058 140.708 143.93C137.154 137.154 132.574 130.971 129.066 124.189C125.925 118.116 124.207 111.407 121.546 105.122C116.702 93.6785 110.063 82.9275 101.736 73.6855C93.5028 64.5475 83.5277 56.9045 72.2477 51.9255C59.7097 46.3905 44.5548 43.8665 35.8758 32.5465Z" fill="#432918"/>
<path d="M184.941 58.0605C186.104 59.0885 187.342 60.0085 188.639 60.8305C188.608 61.5785 188.628 62.3265 188.698 63.0705C187.908 62.5835 187.12 62.0855 186.334 61.5665C186.118 61.4235 185.938 61.7575 186.135 61.9065C186.987 62.5505 187.872 63.1455 188.771 63.7195C188.899 64.6655 189.116 65.5985 189.425 66.5095C188.461 65.9365 187.511 65.3315 186.577 64.6875C186.327 64.5145 186.09 64.9245 186.339 65.0945C189.993 67.5865 193.925 69.6005 198.126 70.9965C198.322 71.0615 198.398 70.7615 198.21 70.6915C195.322 69.6115 192.575 68.3195 189.939 66.7945C189.674 65.8725 189.469 64.9675 189.318 64.0655C190.118 64.5595 190.938 65.0215 191.767 65.4665C192.07 66.3315 192.452 67.1685 192.944 67.9525C193.113 68.2215 193.516 67.9845 193.369 67.7045C193.048 67.0915 192.764 66.4805 192.513 65.8665C193.788 66.5215 195.099 67.1055 196.426 67.6515C196.694 68.3125 196.981 68.9665 197.304 69.6055C197.464 69.9225 197.929 69.6445 197.778 69.3285C197.559 68.8705 197.351 68.4125 197.151 67.9545C198.885 68.6395 200.651 69.2405 202.435 69.7565C202.64 69.8155 202.726 69.4985 202.523 69.4375C200.578 68.8565 198.719 68.1625 196.911 67.3825C196.466 66.3175 196.074 65.2445 195.742 64.1535C195.875 64.1975 196.004 64.2535 196.138 64.2965C196.338 64.3595 196.42 64.0495 196.224 63.9845C196.02 63.9175 195.83 63.8305 195.628 63.7595C195.196 62.2685 194.868 60.7425 194.671 59.1485C194.648 58.9635 194.357 58.9575 194.376 59.1485C194.525 60.6365 194.774 62.1145 195.123 63.5685C193.857 63.0945 192.629 62.5675 191.458 61.9505C191.355 61.1525 191.311 60.3355 191.348 59.4825C191.358 59.2545 191.011 59.2585 190.996 59.4825C190.947 60.2235 190.947 60.9695 190.999 61.7125C190.339 61.3515 189.689 60.9725 189.055 60.5645C189.076 59.5715 189.171 58.5665 189.369 57.5325C189.403 57.3565 189.139 57.2795 189.098 57.4575C188.88 58.3935 188.743 59.3475 188.674 60.3055C187.502 59.5275 186.367 58.6755 185.265 57.7375C185.042 57.5485 184.719 57.8645 184.941 58.0605ZM191.527 62.4345C192.72 63.0235 193.958 63.5235 195.221 63.9665C195.486 65.0115 195.802 66.0445 196.183 67.0535C194.841 66.4505 193.52 65.8115 192.226 65.1115C191.914 64.2365 191.677 63.3485 191.527 62.4345ZM189.043 61.0825C189.696 61.4825 190.368 61.8495 191.049 62.2005C191.136 63.0535 191.29 63.8985 191.525 64.7215C190.748 64.2885 189.974 63.8455 189.207 63.3805C189.106 62.6155 189.049 61.8525 189.043 61.0825Z" fill="#432918"/>
<path d="M144.068 116.036C146.226 113.562 147.15 110.757 147.013 107.486C147.007 107.346 147.241 107.309 147.262 107.452C147.423 108.568 147.386 109.69 147.192 110.781C147.208 110.788 147.226 110.792 147.226 110.814C147.23 111.259 147.233 111.703 147.236 112.147C147.237 112.224 147.116 112.224 147.116 112.147C147.119 111.818 147.121 111.49 147.124 111.161C146.71 113.092 145.771 114.904 144.395 116.363C144.189 116.584 143.873 116.26 144.068 116.036Z" fill="#432918"/>
<path d="M142.331 115.712C143.498 113.697 144.466 111.713 145.046 109.444C145.1 109.232 145.414 109.322 145.372 109.534C144.92 111.799 144.094 114.064 142.732 115.947C142.561 116.183 142.178 115.976 142.331 115.712Z" fill="#432918"/>
<path d="M24.6159 12.7085C26.4419 14.1215 27.8709 16.0645 28.9079 18.1115C28.9489 18.1915 28.8299 18.2625 28.7869 18.1825C27.6699 16.1045 26.1799 14.4515 24.4179 12.9075C24.2779 12.7855 24.4769 12.6005 24.6159 12.7085Z" fill="#432918"/>
<path d="M22.0267 12.2995C23.4927 13.7205 24.8907 15.2165 26.3017 16.6905C26.4237 16.8185 26.2357 17.0065 26.1077 16.8845C24.6357 15.4715 23.1417 14.0705 21.7227 12.6025C21.5307 12.4035 21.8277 12.1065 22.0267 12.2995Z" fill="#432918"/>
<path d="M20.5787 36.5485L27.2137 38.0075C27.3467 38.0365 27.2897 38.2365 27.1577 38.2105C24.9307 37.7805 22.7037 37.3505 20.4767 36.9205C20.2327 36.8745 20.3337 36.4945 20.5787 36.5485Z" fill="#432918"/>
<path d="M18.9069 36.9225C20.6429 37.4645 22.3599 37.8565 24.1759 38.0195C24.3749 38.0375 24.3819 38.3445 24.1759 38.3365C22.3469 38.2605 20.5199 37.9605 18.7879 37.3565C18.5169 37.2625 18.6279 36.8355 18.9069 36.9225Z" fill="#432918"/>
<path d="M46.2928 17.6985C47.7068 19.1885 48.7398 21.0515 49.0958 23.0865C49.1298 23.2835 48.8448 23.3705 48.7908 23.1705C48.2548 21.2015 47.3958 19.4955 45.9948 17.9975C45.8098 17.7985 46.1058 17.5005 46.2928 17.6985Z" fill="#432918"/>
<path d="M44.9568 17.0815C45.5068 18.0855 46.0558 19.0885 46.6058 20.0925C46.7058 20.2755 46.4338 20.4345 46.3268 20.2555C45.7388 19.2745 45.1508 18.2935 44.5628 17.3115C44.4098 17.0595 44.8148 16.8245 44.9568 17.0815Z" fill="#432918"/>
<path d="M61.4198 27.4805C61.6378 29.5395 62.3298 31.4005 63.6358 33.0215C63.7868 33.2095 63.5248 33.4785 63.3668 33.2895C61.9818 31.6325 61.1088 29.6455 60.9688 27.4805C60.9508 27.1885 61.3898 27.1985 61.4198 27.4805Z" fill="#432918"/>
<path d="M62.9998 28.3895C63.8038 29.9325 64.5948 31.4815 65.3878 33.0305C65.4758 33.2025 65.2198 33.3545 65.1268 33.1835C64.2978 31.6565 63.4658 30.1295 62.6478 28.5965C62.5238 28.3635 62.8778 28.1565 62.9998 28.3895Z" fill="#432918"/>
<path d="M80.7517 35.0845C81.3237 37.1885 81.7687 39.3335 82.2667 41.4565C82.3027 41.6105 82.0687 41.6755 82.0297 41.5215C81.4847 39.4105 80.8837 37.3055 80.4127 35.1775C80.3647 34.9575 80.6927 34.8645 80.7517 35.0845Z" fill="#432918"/>
<path d="M81.9777 34.1205C82.5627 35.8865 83.1367 37.6555 83.6987 39.4295C83.7667 39.6435 83.4417 39.7255 83.3667 39.5205C82.7197 37.7715 82.0867 36.0195 81.4627 34.2625C81.3477 33.9385 81.8697 33.7935 81.9777 34.1205Z" fill="#432918"/>
<path d="M101.713 40.0295C102.579 41.4875 103.446 42.9455 104.312 44.4035C104.428 44.5985 104.126 44.7745 104.009 44.5815C103.133 43.1295 102.256 41.6775 101.38 40.2255C101.25 40.0115 101.586 39.8155 101.713 40.0295Z" fill="#432918"/>
<path d="M101.362 40.6295C102.19 41.5235 102.758 42.5745 103.013 43.7685C103.06 43.9885 102.73 44.0825 102.674 43.8615C102.389 42.7525 101.834 41.7775 101.004 40.9875C100.768 40.7625 101.141 40.3905 101.362 40.6295Z" fill="#432918"/>
<path d="M117.347 59.4855C117.367 59.1905 117.822 59.1845 117.811 59.4855C117.72 62.0415 117.516 64.5995 117.317 67.1495C117.304 67.3095 117.06 67.3145 117.064 67.1495C117.123 64.5965 117.178 62.0335 117.347 59.4855Z" fill="#432918"/>
<path d="M116.434 60.4825C116.407 61.8155 116.38 63.1495 116.353 64.4825C116.348 64.7085 116.006 64.7095 116.001 64.4825C115.974 63.1495 115.947 61.8155 115.92 60.4825C115.914 60.1515 116.441 60.1515 116.434 60.4825Z" fill="#432918"/>
<path d="M76.0448 80.2585C78.7148 78.6535 81.7248 77.7635 84.8438 77.7325C84.9768 77.7315 84.9738 77.9275 84.8438 77.9365C81.7368 78.1575 78.9308 79.0185 76.2678 80.6405C76.0238 80.7895 75.8008 80.4045 76.0448 80.2585Z" fill="#432918"/>
<path d="M74.5176 82.7845C77.1946 81.6655 80.0006 80.7955 82.7336 79.8215C82.8886 79.7665 82.9507 80.0075 82.8007 80.0655C80.0897 81.1115 77.3907 82.2865 74.6277 83.1845C74.3677 83.2695 74.2796 82.8845 74.5176 82.7845Z" fill="#432918"/>
<path d="M51.3248 78.8355C53.8088 77.0955 56.1298 75.3965 58.1598 73.1165C58.3028 72.9565 58.5288 73.1895 58.3928 73.3505C56.4838 75.6095 54.1928 77.8365 51.5738 79.2605C51.2908 79.4135 51.0678 79.0155 51.3248 78.8355Z" fill="#432918"/>
<path d="M53.7319 79.2905C55.2179 78.3975 56.5519 77.3055 57.7219 76.0265C57.8729 75.8615 58.1099 76.1045 57.9659 76.2695C56.8009 77.6075 55.4649 78.7405 53.9559 79.6725C53.7129 79.8235 53.4879 79.4375 53.7319 79.2905Z" fill="#432918"/>
<path d="M45.7798 62.2405C47.9918 61.6515 50.2338 61.1585 52.4598 60.6245C52.6228 60.5855 52.6918 60.8335 52.5288 60.8755C50.3118 61.4425 48.0998 62.0535 45.8688 62.5655C45.6578 62.6145 45.5688 62.2965 45.7798 62.2405Z" fill="#432918"/>
<path d="M43.7756 63.5565C45.3406 63.2615 46.9057 62.9735 48.4717 62.6855C48.6737 62.6485 48.7627 62.9545 48.5577 62.9975C47.0027 63.3265 45.4477 63.6555 43.8907 63.9765C43.6177 64.0335 43.5016 63.6085 43.7756 63.5565Z" fill="#432918"/>
<path d="M38.1768 48.2495C40.5078 48.2155 42.8467 48.2805 45.1767 48.3305C45.3717 48.3345 45.3717 48.6285 45.1767 48.6325C42.8467 48.6825 40.5078 48.7475 38.1768 48.7135C37.8788 48.7095 37.8778 48.2545 38.1768 48.2495Z" fill="#432918"/>
<path d="M37.5137 48.8285C39.1777 48.9295 40.8557 49.0415 42.5127 49.2355C42.7797 49.2665 42.7957 49.6715 42.5127 49.6645C40.8487 49.6255 39.1737 49.5025 37.5137 49.3705C37.1697 49.3425 37.1637 48.8075 37.5137 48.8285Z" fill="#432918"/>
<path d="M157.853 164.715C158.856 167.598 159.69 170.547 160.587 173.464C160.65 173.668 160.335 173.753 160.268 173.552C159.31 170.653 158.283 167.764 157.432 164.831C157.354 164.558 157.762 164.452 157.853 164.715Z" fill="#432918"/>
<path d="M155.796 165.647C156.855 167.368 157.708 169.186 158.337 171.107C158.42 171.36 158.035 171.457 157.944 171.215C157.24 169.361 156.351 167.615 155.256 165.963C155.034 165.628 155.584 165.303 155.796 165.647Z" fill="#432918"/>
<path d="M105.825 195.117C106.678 194.09 107.477 193.031 108.251 191.958C108.688 192.867 109.101 193.781 109.472 194.708C108.776 195.569 108.053 196.419 107.277 197.249C107.067 197.473 107.396 197.805 107.615 197.587C108.347 196.857 109.037 196.091 109.703 195.304C109.982 196.033 110.248 196.767 110.484 197.515C109.82 198.472 109.115 199.413 108.37 200.34C108.189 200.565 108.496 200.888 108.693 200.663C109.395 199.864 110.053 199.038 110.678 198.194C110.808 198.634 110.944 199.071 111.058 199.52C111.13 199.802 111.554 199.682 111.492 199.4C111.365 198.822 111.212 198.249 111.057 197.678C111.84 196.583 112.556 195.451 113.213 194.291C113.591 195.251 113.951 196.222 114.288 197.21C114.38 197.478 114.79 197.37 114.715 197.092C114.399 195.919 114.01 194.765 113.589 193.621C114.145 192.592 114.653 191.54 115.112 190.468C115.378 191.457 115.596 192.471 115.758 193.529C115.797 193.781 116.217 193.718 116.2 193.469C116.109 192.123 115.877 190.782 115.516 189.475C115.984 188.293 116.395 187.09 116.748 185.867C117.163 187.15 117.486 188.472 117.738 189.854C117.774 190.049 118.099 190.003 118.083 189.807C117.951 188.146 117.571 186.517 117.003 184.954C117.204 184.19 117.38 183.419 117.537 182.642C117.792 183.781 117.975 184.944 118.068 186.145C118.084 186.346 118.393 186.35 118.384 186.145C118.32 184.601 118.098 183.086 117.736 181.61C117.932 180.495 118.085 179.369 118.192 178.234C118.282 178.547 118.384 178.85 118.463 179.172C118.52 179.406 118.85 179.301 118.816 179.075C118.701 178.317 118.523 177.571 118.299 176.838C118.34 176.166 118.37 175.491 118.38 174.814C118.383 174.632 118.105 174.634 118.099 174.814C118.086 175.224 118.059 175.629 118.034 176.034C117.472 174.489 116.679 173.027 115.689 171.717C115.489 171.452 115.036 171.702 115.234 171.983C116.425 173.679 117.299 175.43 117.935 177.336C117.899 177.73 117.851 178.119 117.805 178.509C117.789 178.377 117.594 178.329 117.556 178.48C117.447 178.911 117.315 179.325 117.196 179.748C116.851 178.733 116.409 177.749 115.917 176.784C116.051 176.361 116.197 175.945 116.321 175.518C116.387 175.29 116.041 175.199 115.968 175.421C115.872 175.715 115.762 176 115.663 176.291C115.558 176.098 115.473 175.898 115.361 175.707C115.212 175.452 114.823 175.68 114.966 175.938C115.139 176.249 115.299 176.562 115.457 176.876C114.664 179.12 113.761 181.297 112.727 183.397C112.721 183.389 112.717 183.379 112.711 183.371C112.487 183.04 111.957 183.341 112.171 183.687C112.248 183.812 112.308 183.939 112.383 184.065C111.833 185.145 111.251 186.207 110.632 187.25C110.459 186.942 110.298 186.626 110.117 186.323C109.915 185.985 109.396 186.288 109.589 186.632C109.824 187.05 110.037 187.473 110.259 187.893C109.639 188.906 108.975 189.895 108.287 190.872C108.078 190.801 107.807 191.031 107.937 191.29C107.944 191.304 107.95 191.317 107.957 191.331C107.141 192.465 106.294 193.583 105.381 194.669C105.117 194.98 105.566 195.43 105.825 195.117ZM112.705 184.646C113.245 185.61 113.732 186.578 114.134 187.567C113.589 188.628 113.011 189.671 112.373 190.682C111.938 189.716 111.46 188.772 110.959 187.842C111.579 186.797 112.157 185.729 112.705 184.646ZM113.057 183.948C113.548 182.94 114.018 181.922 114.445 180.881C115.01 181.79 115.498 182.713 115.911 183.655C115.499 184.718 115.034 185.747 114.541 186.76C114.122 185.783 113.618 184.847 113.057 183.948ZM116.964 180.56C116.714 181.386 116.44 182.196 116.146 182.992C115.715 182.089 115.248 181.204 114.707 180.367C114.694 180.347 114.672 180.347 114.657 180.333C115.039 179.374 115.389 178.399 115.715 177.413C116.203 178.445 116.622 179.491 116.964 180.56ZM116.716 184.225C116.626 184.005 116.513 183.795 116.416 183.577C116.689 182.803 116.944 182.023 117.166 181.232C117.212 181.392 117.267 181.548 117.31 181.709C117.14 182.559 116.938 183.396 116.716 184.225ZM114.811 187.398C115.306 186.37 115.764 185.325 116.164 184.255C116.275 184.528 116.386 184.801 116.486 185.078C116.134 186.29 115.723 187.479 115.261 188.649C115.125 188.227 114.972 187.811 114.811 187.398ZM112.655 191.307C113.289 190.313 113.865 189.284 114.402 188.235C114.569 188.685 114.728 189.139 114.87 189.6C114.397 190.715 113.878 191.811 113.306 192.889C113.099 192.357 112.881 191.83 112.655 191.307ZM110.123 194.779C110.868 193.864 111.569 192.917 112.223 191.938C112.463 192.485 112.697 193.035 112.922 193.589C112.288 194.733 111.6 195.855 110.857 196.958C110.639 196.222 110.389 195.497 110.123 194.779ZM108.639 191.415C109.313 190.456 109.964 189.485 110.573 188.49C111.054 189.427 111.516 190.37 111.946 191.325C111.308 192.294 110.62 193.24 109.894 194.168C109.523 193.229 109.102 192.312 108.639 191.415Z" fill="#432918"/>
<path d="M106.744 196.675C107.571 198.53 108.283 200.434 108.796 202.401C108.864 202.661 108.48 202.763 108.396 202.511C107.764 200.626 107.067 198.781 106.222 196.98C106.057 196.628 106.587 196.322 106.744 196.675Z" fill="#432918"/>
<path d="M52.0358 181.144C53.9378 180.094 55.8688 179.276 57.9278 178.718C57.8198 178.928 57.7178 179.141 57.6048 179.349C57.4018 179.723 57.9678 180.054 58.1758 179.682C58.3918 179.297 58.5908 178.905 58.7888 178.511C59.0478 178.451 59.2998 178.376 59.5648 178.325C59.8608 178.268 59.7318 177.829 59.4418 177.877C59.3148 177.898 59.1908 177.932 59.0638 177.955C59.4938 177.058 59.8888 176.146 60.2508 175.221C60.3658 175.185 60.4738 175.141 60.5908 175.107C60.9038 175.015 60.7838 174.559 60.4828 174.603C61.3918 172.194 62.1428 169.72 62.9488 167.275C63.9118 166.94 64.8878 166.625 65.8978 166.353C66.1048 166.297 66.0168 165.991 65.8098 166.034C64.9248 166.221 64.0348 166.447 63.1448 166.691C63.4248 165.856 63.7118 165.024 64.0198 164.203C65.3048 163.79 66.5968 163.394 67.9038 163.036C68.1708 162.963 68.0568 162.552 67.7898 162.622C66.5978 162.937 65.4158 163.284 64.2378 163.642C64.7128 162.413 65.2338 161.206 65.8308 160.034C66.3008 159.94 66.7748 159.856 67.2558 159.786C67.5738 159.74 67.4958 159.185 67.1798 159.227C66.8458 159.271 66.5128 159.323 66.1798 159.376C66.6398 158.526 67.1378 157.694 67.6998 156.889C68.5198 156.797 69.3438 156.722 70.1758 156.682C70.4458 156.669 70.4478 156.251 70.1758 156.26C69.4728 156.283 68.7718 156.331 68.0728 156.389C68.2638 156.129 68.4488 155.866 68.6538 155.612C68.8138 155.414 68.5348 155.129 68.3698 155.329C68.0708 155.692 67.7928 156.064 67.5198 156.439C66.3568 156.553 65.1998 156.711 64.0518 156.927C64.4568 156.313 64.8808 155.705 65.3128 155.101C67.8978 154.577 70.5118 154.426 73.1718 154.652C73.3488 154.667 73.3448 154.395 73.1718 154.378C70.6228 154.123 68.1198 154.209 65.6358 154.633C65.6488 154.616 65.6588 154.598 65.6718 154.581C65.7848 154.427 65.5288 154.282 65.4168 154.432C65.3478 154.524 65.2868 154.62 65.2178 154.713C64.5078 154.845 63.7998 154.999 63.0928 155.186C62.8218 155.258 62.9378 155.683 63.2088 155.606C63.7638 155.448 64.3198 155.315 64.8768 155.193C64.4418 155.793 64.0048 156.391 63.5938 157.004C62.8668 157.151 62.1448 157.32 61.4258 157.514C61.1018 157.601 61.2398 158.098 61.5648 158.016C62.1058 157.879 62.6478 157.76 63.1898 157.641C62.5798 158.576 62.0018 159.527 61.4498 160.492C60.4798 160.807 59.5378 161.197 58.6138 161.628C59.2578 160.63 59.9458 159.652 60.7078 158.704C60.7968 158.593 60.6468 158.435 60.5488 158.545C59.5898 159.62 58.7298 160.756 57.9558 161.938C57.8478 161.993 57.7338 162.036 57.6268 162.093C57.4108 162.208 57.4388 162.43 57.5698 162.561C56.0648 164.994 54.9358 167.623 54.1948 170.396C53.9178 170.562 53.6278 170.712 53.3578 170.886C53.0228 171.103 53.3168 171.606 53.6698 171.42C53.7768 171.364 53.8818 171.316 53.9888 171.26C53.8058 172.037 53.6508 172.822 53.5268 173.618C53.1308 173.807 52.7328 173.992 52.3418 174.188C51.9728 174.373 52.2968 174.921 52.6648 174.74C52.9088 174.62 53.1558 174.51 53.3998 174.391C53.3958 174.425 53.3878 174.457 53.3838 174.491C53.3428 174.814 53.8498 174.81 53.8898 174.491C53.9058 174.369 53.9318 174.252 53.9488 174.131C54.6988 173.773 55.4488 173.412 56.2018 173.063C55.8778 174.237 55.5888 175.424 55.3448 176.628C54.2108 177.256 53.1488 177.992 52.2378 178.866C51.9708 179.122 52.3318 179.607 52.6378 179.385C53.5098 178.754 54.3618 178.162 55.2258 177.614C55.3518 177.784 55.6598 177.802 55.7128 177.54C55.7308 177.452 55.7538 177.366 55.7718 177.278C56.9188 176.586 58.1038 175.983 59.4038 175.502C59.0408 176.388 58.6538 177.264 58.2308 178.123C55.9458 178.611 53.7218 179.385 51.6918 180.551C51.3108 180.774 51.6518 181.356 52.0358 181.144ZM56.8828 172.744C58.2768 172.108 59.6838 171.5 61.1048 170.909C60.6548 172.224 60.1938 173.535 59.6848 174.826C58.4408 175.205 57.1878 175.682 55.9968 176.281C56.2598 175.086 56.5558 173.907 56.8828 172.744ZM54.5628 170.976C55.4698 170.51 56.3758 170.045 57.2818 169.615C56.9708 170.503 56.6808 171.399 56.4168 172.306C55.6298 172.643 54.8508 172.995 54.0758 173.357C54.2088 172.551 54.3708 171.757 54.5628 170.976ZM56.3208 167.051C57.0908 166.725 57.8658 166.418 58.6418 166.114C58.2868 166.939 57.9448 167.77 57.6308 168.613C56.6528 169.042 55.7118 169.531 54.7928 170.049C55.0948 168.967 55.4678 167.916 55.8838 166.884C55.9418 167.032 56.1088 167.141 56.3208 167.051ZM60.9248 161.441C60.2168 162.735 59.5438 164.047 58.9418 165.39C57.9828 165.738 57.0288 166.101 56.0788 166.479C56.0588 166.487 56.0468 166.5 56.0298 166.51C56.5908 165.17 57.2468 163.871 57.9968 162.613C58.9738 162.182 59.9478 161.798 60.9248 161.441ZM65.6058 159.474C64.3858 159.689 63.1748 159.967 61.9888 160.325C62.5168 159.384 63.0718 158.453 63.6598 157.535C64.8198 157.293 65.9848 157.099 67.1598 156.951C66.5938 157.769 66.0748 158.609 65.6058 159.474ZM63.6048 163.828C62.2518 164.249 60.9078 164.696 59.5728 165.172C60.1578 163.837 60.8078 162.53 61.4988 161.24C62.7278 160.813 63.9718 160.452 65.2518 160.167C64.6428 161.357 64.0988 162.58 63.6048 163.828ZM62.4798 166.878C61.0648 167.29 59.6588 167.769 58.2918 168.336C58.5988 167.502 58.9308 166.68 59.2758 165.863C60.6338 165.343 62.0038 164.859 63.3838 164.405C63.0698 165.222 62.7688 166.047 62.4798 166.878ZM62.2588 167.517C61.9288 168.477 61.6048 169.44 61.2778 170.403C59.8698 170.903 58.4688 171.442 57.0838 172.02C57.3548 171.1 57.6508 170.192 57.9648 169.292C59.3728 168.643 60.7978 168.051 62.2588 167.517Z" fill="#432918"/>
<path d="M180.034 250.396C181.058 248.362 182.247 246.42 183.645 244.621C183.815 244.403 184.202 244.697 184.032 244.919C182.658 246.716 181.413 248.582 180.35 250.58C180.238 250.79 179.928 250.606 180.034 250.396Z" fill="#432918"/>
<path d="M182.033 242.329C182.213 242.098 182.616 242.406 182.442 242.644C181.332 244.163 180.506 245.714 179.864 247.487C179.806 247.647 179.568 247.586 179.606 247.416C180.019 245.583 180.879 243.809 182.033 242.329Z" fill="#432918"/>
<path d="M212.79 223.39C215.968 221.405 218.778 219.017 221.152 216.113C221.241 216.004 221.393 216.159 221.306 216.267C218.945 219.186 216.143 221.678 212.896 223.572C212.779 223.64 212.675 223.461 212.79 223.39Z" fill="#432918"/>
<path d="M212.715 221.26C214.442 220.293 216.01 219.112 217.414 217.718C217.549 217.584 217.754 217.789 217.623 217.927C216.237 219.386 214.679 220.633 212.953 221.667C212.692 221.823 212.45 221.409 212.715 221.26Z" fill="#432918"/>
<path d="M231.726 183.033C233.5 181.362 235.263 179.678 237.061 178.032C237.211 177.895 237.43 178.111 237.285 178.256C235.56 179.976 233.799 181.661 232.049 183.356C231.838 183.561 231.512 183.234 231.726 183.033Z" fill="#432918"/>
<path d="M230.718 181.359C232.039 180.123 233.423 178.95 234.774 177.748C234.908 177.629 235.105 177.821 234.973 177.947C233.662 179.19 232.378 180.468 231.036 181.677C230.822 181.87 230.506 181.558 230.718 181.359Z" fill="#432918"/>
<path d="M225.435 165.404C227.201 163.548 229.451 162.079 231.759 160.997C231.924 160.919 232.071 161.16 231.905 161.246C229.598 162.442 227.657 163.968 225.774 165.743C225.549 165.954 225.222 165.628 225.435 165.404Z" fill="#432918"/>
<path d="M224.713 166.695C226.047 165.329 228.002 164.368 229.734 163.62C229.946 163.529 230.134 163.832 229.919 163.936C228.116 164.802 226.672 166.003 225.041 167.121C224.782 167.297 224.503 166.909 224.713 166.695Z" fill="#432918"/>
<path d="M202.043 169.681C202.181 169.533 202.458 169.735 202.33 169.902C201.434 171.077 200.914 172.341 200.758 173.815C200.727 174.11 200.27 174.123 200.287 173.815C200.368 172.277 200.989 170.807 202.043 169.681Z" fill="#432918"/>
<path d="M197.768 175.095C198.605 173.407 199.46 171.717 200.388 170.077C200.47 169.932 200.671 170.059 200.607 170.205C199.838 171.929 198.987 173.624 198.127 175.305C198.004 175.543 197.649 175.333 197.768 175.095Z" fill="#432918"/>
<path d="M196.715 185.756C197.48 187.981 198.194 190.225 198.93 192.46C198.977 192.603 198.755 192.662 198.706 192.522C197.934 190.297 197.14 188.079 196.397 185.844C196.329 185.641 196.646 185.556 196.715 185.756Z" fill="#432918"/>
<path d="M194.784 183.815C194.909 186.465 195.556 188.979 196.701 191.371C196.813 191.605 196.471 191.812 196.349 191.577C195.084 189.143 194.383 186.551 194.215 183.815C194.192 183.45 194.767 183.449 194.784 183.815Z" fill="#432918"/>
<path d="M194.972 139.938C196.564 141.129 198.143 142.371 199.65 143.668C199.785 143.784 199.605 144.021 199.458 143.916C197.837 142.767 196.251 141.532 194.712 140.274C194.526 140.122 194.776 139.792 194.972 139.938Z" fill="#432918"/>
<path d="M194.001 140.992C195.112 141.878 196.193 142.803 197.286 143.711C197.479 143.871 197.204 144.137 197.013 143.984C195.898 143.098 194.77 142.227 193.673 141.319C193.441 141.129 193.772 140.809 194.001 140.992Z" fill="#432918"/>
<path d="M185.771 122.071C186.334 123.464 187.455 124.536 188.866 125.049C189.097 125.133 189 125.504 188.763 125.422C187.191 124.874 185.98 123.723 185.337 122.191C185.226 121.926 185.663 121.805 185.771 122.071Z" fill="#432918"/>
<path d="M186.427 120.412C186.718 121.573 187.519 122.506 188.609 122.994C188.843 123.098 188.674 123.508 188.433 123.412C187.166 122.909 186.244 121.881 185.899 120.558C185.809 120.216 186.341 120.07 186.427 120.412Z" fill="#432918"/>
<path d="M185.092 97.4145C185.715 98.9535 186.716 100.277 188.015 101.307C188.219 101.469 187.945 101.83 187.734 101.671C186.303 100.59 185.243 99.2205 184.57 97.5585C184.439 97.2365 184.963 97.0955 185.092 97.4145Z" fill="#432918"/>
<path d="M183.375 97.0925C183.595 98.0535 184.023 98.9115 184.669 99.6565C184.849 99.8635 184.55 100.167 184.366 99.9595C183.662 99.1675 183.175 98.2455 182.927 97.2155C182.858 96.9255 183.309 96.8015 183.375 97.0925Z" fill="#432918"/>
<path d="M200.76 98.0805C201.321 99.8505 201.54 101.63 201.396 103.482C201.374 103.758 200.948 103.765 200.96 103.482C201.037 101.685 200.812 99.9305 200.258 98.2185C200.155 97.8995 200.659 97.7615 200.76 98.0805Z" fill="#432918"/>
<path d="M198.766 97.4125C198.982 98.4145 199.199 99.4165 199.415 100.418C199.465 100.651 199.115 100.751 199.056 100.517C198.803 99.5255 198.551 98.5335 198.298 97.5415C198.22 97.2375 198.7 97.1085 198.766 97.4125Z" fill="#432918"/>
<path d="M214.464 118.149C214.475 117.809 214.977 117.81 214.991 118.149C215.076 120.242 215.044 122.392 214.892 124.481C214.879 124.662 214.625 124.662 214.611 124.481C214.444 122.392 214.395 120.242 214.464 118.149Z" fill="#432918"/>
<path d="M215.579 117.815C215.596 117.482 216.112 117.479 216.099 117.815C216.05 119.147 216.123 120.447 216.391 121.757C216.445 122.021 216.047 122.135 215.984 121.869C215.669 120.537 215.511 119.183 215.579 117.815Z" fill="#432918"/>
</svg>
