<svg width="201" height="343" viewBox="0 0 201 343" fill="none" xmlns="http://www.w3.org/2000/svg">
<path d="M22.0939 282.962C33.3859 281.914 41.8619 291.806 52.9809 291.866C61.4139 291.911 68.9809 286.636 72.8069 279.332C73.2209 281.099 74.0569 282.752 75.2199 284.288C75.4419 284.581 75.8749 284.378 75.9229 284.062C76.5909 279.64 79.907 276.475 80.946 272.227C81.896 268.345 80.0539 264.182 78.8329 260.513C88.2019 259.342 95.3309 254.531 101.009 247.079C105.482 241.208 111.146 236.92 118.868 236.954C125.428 236.983 131.187 240.426 135.231 245.41C135.368 245.578 135.602 245.365 135.482 245.195C129.796 237.084 119.262 234.024 110.159 238.149C105.124 240.43 102.368 244.513 98.9899 248.643C94.9809 253.546 89.852 256.94 83.993 258.693C90.36 255.852 95.246 251.055 99.584 245.04C104.153 238.705 109.599 233.969 117.869 234.106C124.533 234.216 130.374 237.604 135.17 241.983C135.178 241.99 135.187 241.987 135.194 241.992C137.092 249.992 139.323 257.954 141.916 265.931C149.641 289.694 158.158 313.884 155.694 339.266C155.678 339.427 155.729 339.553 155.813 339.644C155.3 339.766 155.109 340.534 155.722 340.768C161.676 343.05 168.988 342.517 174.441 339.164C174.817 339.184 175.217 338.916 175.125 338.439C170.095 312.414 158.124 288.431 150.304 263.229C145.883 248.98 142.309 234.489 139.556 219.848C142.607 216.539 145.917 213.589 149.423 210.966C149.493 211.019 149.578 211.058 149.695 211.056C155.389 210.979 160.37 213.566 165.857 214.616C169.921 215.393 174.145 215.141 178.108 213.963C182.069 212.786 185.829 210.69 188.814 207.817C192.558 204.212 194.673 199.333 198.627 195.914C198.822 195.745 198.698 195.51 198.51 195.455C198.659 195.292 198.664 195.006 198.39 194.918C190.168 192.278 185.242 187.316 178.819 181.985C174.485 178.388 169.555 176.452 163.942 177.903C151.133 181.215 147.374 195.169 146.197 206.7C146.19 206.77 146.2 206.83 146.215 206.887C143.42 208.859 140.794 211.018 138.388 213.336C134.118 188.31 132.279 162.879 132.953 137.469C139.14 141.143 142.145 148.205 148.324 151.88C152.836 154.563 158.387 155.441 163.52 154.364C176.705 151.599 180.359 135.949 192.697 131.921C193.011 131.818 192.831 131.293 192.517 131.371C192.126 131.469 191.747 131.581 191.374 131.703C191.347 131.662 191.305 131.63 191.245 131.618C172.158 127.734 151.454 130.139 133.156 136.473C133.094 136.453 133.034 136.442 132.975 136.445C132.982 136.146 132.984 135.846 132.994 135.547C151.73 127.972 171.551 126.994 191.173 131.42C191.341 131.458 191.439 131.212 191.267 131.162C187.253 130.006 183.169 129.186 179.055 128.649C180.438 127.878 181.498 126.636 182.063 125.135C182.134 124.947 181.851 124.849 181.772 125.03C181.068 126.648 179.821 127.837 178.222 128.544C174.203 128.06 170.156 127.871 166.113 127.945C169.146 125.68 171.732 122.966 173.862 119.829C173.931 119.727 173.781 119.626 173.706 119.721C171.278 122.826 168.441 125.506 165.244 127.808C165.179 127.855 165.149 127.911 165.134 127.969C162.53 128.045 159.929 128.237 157.339 128.535C159.274 125.761 160.777 122.778 161.819 119.547C161.873 119.547 161.923 119.552 161.977 119.552C165.762 119.523 169.305 118.657 172.728 117.37C180.85 119.133 184.302 128.06 191.75 131.177C191.856 131.221 191.943 131.203 192.008 131.156C192.147 131.238 192.289 131.301 192.49 131.304C192.527 131.304 192.57 131.279 192.57 131.237C192.573 130.469 191.489 130.039 190.779 129.942C184.782 126.188 181.052 118.792 174.108 116.829C182.545 113.361 190.336 107.61 199.347 105.872C199.361 105.884 199.375 105.895 199.389 105.908C199.483 105.994 199.633 105.876 199.544 105.775C199.54 105.77 199.535 105.766 199.53 105.761C199.669 105.584 199.554 105.258 199.265 105.301C199.253 105.303 199.241 105.306 199.229 105.308C199.226 105.306 199.226 105.303 199.223 105.301C199.075 105.203 198.936 105.093 198.792 104.989C198.077 104.251 197.324 103.566 196.53 102.937C190.052 95.774 188.297 82.141 177.6 81.045C179.935 79.308 182.151 77.399 184.323 75.611C189.621 71.249 194.84 66.776 199.82 62.05C199.943 62.026 200.068 62.009 200.191 61.984C200.241 61.974 200.239 61.896 200.187 61.894C200.122 61.891 200.056 61.893 199.991 61.89C200.12 61.767 200.251 61.648 200.38 61.525C200.427 61.508 200.459 61.479 200.475 61.437C200.602 61.315 200.734 61.198 200.86 61.076C201.083 60.861 200.784 60.505 200.544 60.708C200.527 60.722 200.511 60.737 200.494 60.751C200.459 60.685 200.404 60.63 200.311 60.614C187.886 58.465 179.215 46.415 165.85 47.549C155.054 48.465 149.777 58.519 146.321 67.576C146.281 67.682 146.288 67.774 146.314 67.855C144.564 68.501 142.827 69.173 141.12 69.897C142.125 66.392 143.25 62.936 144.548 59.563C146.195 55.282 148.052 51.074 150.069 46.936C150.108 46.95 150.145 46.971 150.192 46.959C157.265 45.193 164.295 43.16 171.264 41.023C175.464 39.736 179.628 38.204 182.196 34.428C184.935 30.4 185.15 25.418 184.678 20.724C184.021 14.192 182.576 7.668 181.488 1.196C181.434 0.873004 181.071 0.702005 180.782 0.837005C170.06 5.864 157.254 4.52901 148.589 13.84C140.378 22.663 143.823 34.068 147.985 43.946C148.032 44.056 148.105 44.12 148.186 44.163C146.306 47.961 144.571 51.826 142.996 55.737C142.228 57.644 141.509 59.567 140.811 61.498C139.935 60.186 138.999 58.914 138.037 57.661C138.07 57.636 138.101 57.605 138.123 57.561C142.639 48.609 143.267 35.809 133.51 29.964C122.766 23.529 109.381 30.342 97.8759 28.325C97.5869 28.274 97.2629 28.609 97.3529 28.9C99.3419 35.324 96.5149 41.777 97.9189 48.227C98.8729 52.608 101.575 56.453 105.078 59.196C113.941 66.139 125.602 64.836 135.326 60.582C136.643 62.285 137.965 64.002 139.331 65.717C135.725 76.453 133.105 87.503 131.229 98.728C130.597 97.584 129.782 96.671 128.842 95.905C128.856 95.854 128.864 95.798 128.836 95.734C124.773 86.497 128.459 67.919 114.853 65.537C108.38 64.404 101.7 67.546 95.3239 68.22C91.1149 68.664 87.0089 68.416 82.8179 68.062C80.9749 67.906 79.9589 67.209 78.8389 68.682C77.4399 70.522 77.5389 75.165 77.3999 77.255C77.1919 80.388 77.3209 83.553 78.3689 86.547C80.3009 92.069 84.9449 96.657 89.7669 99.789C94.5429 102.891 100.138 104.828 105.87 104.807C113.347 104.779 120.084 100.894 127.495 100.318C128.567 101.34 129.562 102.472 130.454 103.748C128.655 115.988 127.719 128.411 127.325 140.846C122.349 137.129 120.251 131.098 116.211 126.514C113.209 123.109 109.443 120.253 105.095 118.834C100.25 117.253 95.4159 117.929 90.6259 119.398C84.5849 121.252 78.9909 122.972 72.7899 123.985C72.6219 123.783 72.351 123.796 72.174 123.93C71.938 123.808 71.7029 123.685 71.4659 123.566C71.3829 123.524 71.3309 123.652 71.3959 123.702C71.5999 123.862 71.8159 124.011 72.0229 124.167C72.0059 124.25 72.0089 124.34 72.0589 124.438C77.0529 134.135 83.472 143.792 93.575 148.732C104.793 154.217 116.054 150.542 126.627 145.372C126.816 145.405 127.004 145.443 127.193 145.475C126.854 161.566 127.383 177.64 128.177 193.321C128.381 197.344 128.683 201.328 129.063 205.286C129.054 205.265 129.058 205.245 129.038 205.225C117.833 194.336 105.003 185.039 91.2419 177.501C91.2439 177.494 91.2489 177.49 91.2509 177.482C91.2739 177.389 91.29 177.295 91.312 177.201C96.181 174.133 100.891 169.415 100.216 163.167C99.4849 156.409 92.5049 151.672 87.7979 147.573C87.4129 147.237 86.8279 147.895 87.2009 148.237C87.2639 148.295 87.33 148.353 87.394 148.411C87.479 148.605 87.5619 148.799 87.6469 148.993C87.9259 151.385 88.4239 153.742 88.9319 156.081C88.0669 155.228 87.1969 154.38 86.2849 153.577C86.0629 153.382 85.7289 153.758 85.9399 153.961C86.9309 154.913 87.9759 155.809 89.0199 156.703C89.0359 156.716 89.0529 156.711 89.0699 156.717C89.5299 158.83 89.9849 160.928 90.2789 163.023C89.0949 161.435 87.6969 159.95 86.1839 158.674C85.8819 158.419 85.4319 158.925 85.7219 159.187C86.5619 159.947 87.4029 160.703 88.1879 161.521C88.8389 162.199 89.9579 163.121 90.2379 164.027C90.2039 163.918 90.035 163.942 90.058 164.06C90.068 164.109 90.0769 164.157 90.0869 164.206C90.0939 164.239 90.1179 164.272 90.1509 164.281C90.2699 164.316 90.3639 164.327 90.4389 164.32C90.6729 166.534 90.6959 168.748 90.3179 170.974C88.9889 168.351 87.0259 165.873 84.6929 164.156C84.4519 163.979 84.1159 164.342 84.3389 164.55C86.6769 166.736 88.5669 168.908 90.1809 171.627C89.8739 173.124 89.3979 174.626 88.6619 176.14C88.4529 176.03 88.2399 175.928 88.0309 175.818C88.4059 175.898 88.818 175.425 88.506 175.034C84.763 170.336 80.7329 165.224 81.0299 158.885C81.2639 153.907 85.3909 151.884 86.8929 147.655C86.9719 147.432 86.631 147.241 86.515 147.46C83.819 152.528 79.6899 154.476 80.1729 160.878C80.6059 166.619 84.3109 171.348 87.7749 175.662C87.7989 175.692 87.8279 175.706 87.8539 175.728C81.4919 172.407 74.9629 169.426 68.2939 166.876C65.1759 165.684 62.031 164.586 58.894 163.486C66.15 161.177 72.5379 154.992 72.4829 146.936C72.4159 137.17 63.6569 130.432 56.0229 125.867C55.9889 125.804 55.9549 125.737 55.9209 125.675C55.8589 125.561 55.7319 125.58 55.6659 125.652C55.6269 125.629 55.588 125.604 55.549 125.582C55.291 125.43 55.06 125.73 55.209 125.939C55.034 125.668 54.5739 125.555 54.3869 125.892C51.6719 130.78 47.7429 136.56 47.9389 142.37C48.1739 149.339 52.9849 155.359 54.8909 161.886C54.9839 162.203 55.3929 162.201 55.5079 161.974C55.5359 162.124 55.7149 162.245 55.8779 162.125C58.0569 160.516 59.2609 158.351 59.9149 155.956C60.0679 156.003 60.2609 155.846 60.1649 155.679C60.1249 155.61 60.0789 155.542 60.0379 155.473C60.5489 153.341 60.6559 151.048 60.6329 148.812C60.5959 145.212 60.2509 141.64 59.6199 138.12C59.6259 138.092 59.6109 138.062 59.6039 138.032C59.2789 136.231 58.884 134.443 58.407 132.673C61.878 142.593 63.82 154.979 57.088 162.852C49.368 160.134 41.7429 157.289 34.7369 152.931C34.7609 152.896 34.7889 152.866 34.8059 152.821C36.2419 149.064 39.906 147.636 42.407 144.783C44.116 142.833 45.1659 140.492 45.5029 137.922C46.2499 132.213 42.8539 126.75 38.3869 123.439C38.3339 123.262 38.1959 123.121 38.0139 123.115C37.9879 123.047 37.9629 122.98 37.9319 122.912C37.8379 122.702 37.5379 122.857 37.6159 123.065C37.6379 123.124 37.654 123.182 37.674 123.241C27.523 129.195 22.0429 140.589 30.3299 149.913C27.6259 147.902 25.0839 145.706 22.6989 143.356C22.7459 143.298 22.7809 143.23 22.7809 143.14C22.8119 138.249 23.2399 131.786 20.1939 127.618C16.9349 123.159 10.77 125.793 7.65695 121.664C7.48895 121.441 7.14995 121.686 7.25995 121.924C7.26295 121.931 7.26693 121.935 7.26993 121.942C2.75193 122.474 4.71793 133.503 5.58493 136.103C7.74793 142.59 13.7309 148.669 20.9499 145.811C22.9289 147.732 24.9609 149.525 26.9419 151.161C30.8719 154.406 34.9869 157.086 39.2729 159.399C38.5019 159.435 37.7439 159.513 36.9919 159.608C36.9839 159.477 36.922 159.348 36.778 159.253C32.738 156.568 28.3179 153.872 23.2969 155.262C17.0619 156.988 9.45494 166.674 2.53894 165.452C2.25794 165.289 1.98195 165.113 1.69595 164.959C1.12795 164.653 0.541942 165.467 1.11694 165.798C7.81494 169.654 14.1149 176.59 22.4259 176.355C30.5139 176.126 36.2549 169.803 38.3909 162.474C38.4139 162.396 38.4009 162.329 38.3709 162.273C39.9539 162.017 41.5499 161.818 43.1689 161.717C43.3079 161.708 43.3499 161.574 43.3239 161.457C48.5739 163.966 54.0649 166.028 59.7829 167.951C61.2979 168.46 62.793 169.007 64.278 169.572C60.848 168.978 57.6849 167.221 54.1299 166.928C51.1439 166.681 48.0849 167.228 45.3439 168.427C37.9249 171.67 36.4939 179.069 31.3999 184.517C31.2379 184.545 31.0749 184.574 30.9129 184.602C30.4739 184.676 30.6109 185.299 31.0349 185.268C31.1029 185.263 31.171 185.257 31.239 185.252C31.27 185.261 31.2989 185.251 31.3329 185.245C31.6289 185.223 31.9249 185.198 32.2209 185.176C39.3779 190.51 48.4119 196.252 57.5779 192.488C65.8179 189.104 69.5289 180.28 70.0989 171.905C81.8539 176.937 92.793 183.457 103.269 190.733C103.267 190.736 103.264 190.738 103.262 190.74C103.146 190.714 103.017 190.765 102.999 190.925C102.994 190.967 102.987 191.008 102.982 191.05C97.3599 197.417 89.8769 201.02 81.7409 203.191C77.9279 204.209 74.0329 204.907 70.1359 205.513C69.0889 205.676 67.9479 205.775 66.8269 205.916C79.1259 202.704 92.9749 200.279 101.744 190.316C101.883 190.158 101.827 189.991 101.702 189.89C101.647 189.679 101.469 189.507 101.192 189.57C93.3759 191.328 85.5409 188.17 77.8989 191.355C75.1279 192.51 72.586 194.221 70.476 196.356C67.081 199.791 65.647 205.109 60.278 206.128C59.886 206.203 59.9329 206.712 60.2439 206.811C60.2189 206.973 60.2609 207.146 60.4249 207.275C60.4509 207.296 60.4779 207.316 60.5039 207.337C60.5419 207.409 60.6029 207.454 60.6879 207.481C68.5099 213.606 78.5029 219.425 88.5559 215.393C98.1639 211.539 103.296 201.461 103.432 191.475C103.542 191.342 103.656 191.214 103.765 191.078C112.65 197.278 121.209 204.011 129.65 210.842C130.861 221.166 132.685 231.307 135.051 241.384C128.143 234.357 117.493 230.749 108.221 235.492C103.167 238.078 100.358 242.87 97.058 247.252C92.126 253.8 85.7539 258.024 77.8589 259.932C77.9519 259.746 77.9509 259.502 77.7549 259.33C73.6009 255.682 71.9939 250.376 66.8619 247.697C63.1059 245.736 58.9349 245.352 54.8399 246.313C54.4399 246.407 54.4219 246.912 54.7759 247.077C56.2599 247.771 57.3979 248.774 58.3869 249.915C50.2169 250.171 42.4319 253.267 36.4089 258.835C33.6829 261.355 31.3639 264.316 29.6439 267.611C27.0479 272.585 25.9859 278.256 21.7409 282.224C21.4159 282.522 21.6789 283 22.0939 282.962ZM61.299 206.698C61.287 206.689 61.2749 206.68 61.2629 206.671C63.5819 206.165 65.1629 204.838 66.7179 202.881C69.5279 199.346 71.587 195.889 75.657 193.519C83.755 188.803 91.9989 192.332 100.472 190.664C98.7719 192.445 96.8829 193.974 94.8709 195.327C90.1289 195.874 85.8869 195.18 81.6019 193.012C81.3049 192.862 81.0529 193.365 81.3369 193.527C85.1339 195.692 89.6249 196.576 93.9479 195.935C91.2449 197.641 88.3159 199.019 85.2699 200.191C82.1519 200.156 79.2669 199.545 76.4799 198.085C76.1159 197.894 75.7439 198.42 76.1129 198.617C78.5739 199.936 81.3099 200.669 84.0889 200.64C76.6609 203.34 68.599 204.871 61.299 206.698ZM102.829 192.188C101.528 201.549 97.5169 210.739 88.0899 214.43C78.7319 218.094 69.619 212.871 62.17 207.351C66.212 206.859 70.4379 206.324 74.6459 205.564C73.5729 207.6 72.6189 209.709 71.6219 211.78C71.4269 212.186 72.0969 212.432 72.2829 212.02C73.2639 209.847 74.3109 207.682 75.1979 205.466C78.0399 204.938 80.8699 204.303 83.6249 203.493C82.9299 205.657 82.5359 208.008 82.6289 210.265C82.6449 210.66 83.2409 210.738 83.2589 210.321C83.3639 207.93 83.5989 205.683 84.1089 203.351C87.5719 202.303 90.9109 200.98 93.9939 199.247C92.3959 201.904 91.3399 204.99 91.1669 208.06C91.1499 208.366 91.5899 208.398 91.6369 208.101C92.1699 204.719 93.0929 201.756 94.7459 198.812C97.7329 197.043 100.47 194.878 102.829 192.188ZM134.093 136.996C135.676 136.478 137.259 136.005 138.841 135.561C143.116 138.184 146.473 141.553 149.651 145.404C149.82 145.609 150.114 145.347 149.96 145.138C147.107 141.25 143.911 137.796 139.755 135.322C143.767 134.232 147.778 133.354 151.798 132.693C158.483 136.091 162.532 142.05 164.042 149.332C164.089 149.556 164.411 149.491 164.388 149.269C163.648 142.073 159.201 135.994 153.015 132.496C157.383 131.823 161.764 131.377 166.17 131.159C167.962 131.778 169.833 134.613 170.871 135.907C172.42 137.838 173.764 139.903 175.051 142.015C175.187 142.238 175.548 142.076 175.425 141.834C174.076 139.199 172.422 136.737 170.531 134.46C169.743 133.511 168.72 131.998 167.513 131.103C170.758 130.974 174.016 130.953 177.296 131.043C179.088 131.832 180.687 132.833 182.141 134.163C182.261 134.273 182.456 134.117 182.338 133.993C181.199 132.799 179.836 131.804 178.347 131.076C182.426 131.215 186.534 131.503 190.686 131.941C180.908 135.587 177.088 147.186 167.756 151.722C161.011 155.001 152.537 154.033 146.704 149.332C142.035 145.57 139.231 140.169 134.093 136.996ZM97.9019 136.662C94.5189 135.35 91.2629 133.841 88.0609 132.241C91.9699 133.741 95.9359 135.083 99.8889 136.305C108.571 138.988 118.138 141.784 127.279 142.122C127.254 142.972 127.225 143.822 127.206 144.672C117.19 142.967 107.378 140.337 97.9019 136.662ZM73.743 125.674C74.269 125.963 74.8029 126.24 75.3349 126.521C79.0929 129.002 83.1859 131.152 87.3559 133.072C85.9059 133.663 84.5089 134.427 83.3109 135.436C83.0039 135.695 83.3979 136.142 83.7149 135.905C85.0599 134.898 86.4179 134.025 87.9469 133.339C91.4459 134.93 94.9889 136.367 98.4309 137.683C98.5299 137.721 98.6289 137.755 98.7279 137.792C95.9909 138.437 93.3149 139.61 91.1239 141.354C90.8839 141.545 91.1609 141.979 91.4219 141.809C93.9869 140.14 96.4569 138.866 99.3579 138.024C103.535 139.587 107.774 140.954 112.066 142.125C108.065 143.818 104.091 145.915 100.577 148.47C100.281 148.685 100.618 149.196 100.929 149.007C104.768 146.671 108.553 144.402 112.561 142.36C112.602 142.339 112.616 142.306 112.634 142.275C116.931 143.429 121.277 144.402 125.663 145.193C114.721 149.61 103.807 153.265 92.67 147.086C84.063 142.312 78.447 134.078 73.743 125.674ZM127.272 141.919C122.636 140.733 117.952 139.817 113.279 138.833C113.27 138.802 113.274 138.769 113.251 138.742C108.958 133.662 106.095 128.5 105.251 121.822C105.218 121.562 104.837 121.642 104.857 121.894C105.345 128.094 107.798 134.302 112.352 138.634C108.26 137.762 104.179 136.823 100.151 135.577C100.092 135.559 100.035 135.539 99.9769 135.52C100.019 135.445 100.028 135.352 99.9659 135.249C97.4679 131.113 95.9949 126.727 95.4729 121.923C95.4449 121.662 95.0639 121.745 95.0789 121.995C95.3609 126.753 96.7739 131.221 99.2479 135.284C95.3789 134.054 91.6009 132.65 87.8649 131.146C86.8659 128.754 86.3429 126.259 86.2549 123.659C86.2499 123.505 86.0179 123.476 86.0099 123.637C85.8859 126.146 86.2959 128.545 87.1669 130.864C84.1889 129.655 81.2319 128.393 78.2719 127.113C76.5309 126.185 74.7789 125.265 73.0159 124.36C73.0149 124.358 73.0139 124.355 73.0119 124.353C76.9519 125.172 81.0469 123.774 84.7999 122.531C91.3459 120.364 97.769 117.735 104.7 119.904C110.234 121.636 114.725 125.93 117.968 130.597C120.835 134.725 122.966 139.081 127.272 141.919ZM79.6049 70.678C81.666 75.021 84.6859 78.528 88.2889 81.389C86.0089 81.475 83.8669 82.145 81.9309 83.391C81.5949 83.607 81.9079 84.075 82.2289 83.846C84.1469 82.48 86.3209 81.765 88.6679 81.681C91.2919 83.71 94.2079 85.41 97.2859 86.841C94.0269 87.27 90.9389 88.488 88.2239 90.384C87.9559 90.571 88.2889 90.95 88.5539 90.768C91.3799 88.831 94.3769 87.624 97.6929 87.025C98.5389 87.41 99.3939 87.781 100.259 88.129C102.729 89.12 105.328 89.964 107.947 90.805C103.406 91.961 99.1329 94.144 95.5409 97.151C95.2439 97.4 95.6259 97.835 95.9309 97.604C99.8519 94.627 103.937 92.516 108.607 91.016C112.036 92.117 115.484 93.232 118.714 94.68C113.255 95.788 108.007 97.971 103.529 101.315C103.275 101.505 103.569 101.955 103.835 101.782C108.712 98.607 113.628 96.317 119.305 94.953C121.88 96.152 124.306 97.574 126.454 99.397C120.969 100.003 115.982 102.277 110.57 103.268C104.462 104.386 98.4519 103.26 92.9609 100.444C87.5709 97.68 82.4019 93.285 79.8009 87.714C78.0099 83.878 78.0079 79.582 78.4449 75.463C78.6249 73.755 78.6869 72.122 79.6049 70.678ZM128.016 95.284C126.707 94.392 125.209 93.718 123.637 93.097C123.083 92.878 122.522 92.677 121.966 92.463C119.715 86.884 118.698 81.374 118.82 75.356C118.825 75.1 118.446 75.062 118.421 75.321C117.856 81.098 118.781 86.831 121.096 92.132C117.601 90.798 114.083 89.517 110.57 88.228C109.885 85.561 109.348 82.889 109.144 80.134C108.903 76.877 108.544 71.983 110.3 69.043C110.422 68.839 110.129 68.63 109.993 68.831C106.767 73.616 108.211 82.384 109.677 87.897C108.771 87.563 107.865 87.231 106.962 86.891C104.648 86.019 102.355 85.112 100.107 84.136C100.107 84.133 100.108 84.131 100.107 84.128C99.3749 79.818 99.0419 75.559 98.8019 71.196C98.7939 71.046 98.5549 71.066 98.5439 71.208C98.2379 75.388 98.6009 79.674 99.3429 83.799C96.3179 82.456 93.383 80.978 90.618 79.251C90.646 79.205 90.6659 79.153 90.6509 79.084C90.1749 76.907 90.0019 74.699 90.1039 72.472C90.1159 72.215 89.7269 72.179 89.7049 72.437C89.5169 74.633 89.6639 76.766 90.1069 78.919C86.3949 76.541 82.9899 73.714 80.0849 70.17C80.0699 70.138 80.0549 70.107 80.0409 70.075C81.5319 68.248 81.3499 68.723 83.6359 69.044C88.7699 69.766 93.9879 69.632 99.0929 68.736C104.386 67.806 110.562 65.141 115.94 66.859C127.6 70.582 123.561 86.428 128.016 95.284ZM131.116 99.388C130.91 100.644 130.727 101.906 130.539 103.166C129.788 101.946 128.911 100.861 127.946 99.875C127.949 99.586 127.732 99.264 127.355 99.292C127.353 99.292 127.352 99.292 127.35 99.293C122.741 94.954 116.243 92.792 110.222 90.863C106.478 89.663 102.647 88.356 98.9789 86.761C98.9769 86.723 98.9539 86.687 98.9049 86.689C98.8799 86.69 98.8549 86.694 98.8299 86.695C91.6259 83.541 85.077 79.241 81.153 72.286C85.847 77.833 92.2529 81.56 98.9059 84.519C102.537 86.133 106.257 87.536 109.985 88.914C110.084 89.046 110.248 89.094 110.395 89.066C111.603 89.512 112.812 89.956 114.018 90.404C116.248 91.232 118.874 91.978 121.443 92.911C121.524 93.023 121.643 93.054 121.757 93.026C125.517 94.418 129.115 96.244 131.116 99.388ZM99.0509 30.61C102.852 32.376 106.517 34.375 110.041 36.594C106.788 36.926 103.615 37.774 100.543 38.886C100.135 39.033 100.432 39.643 100.837 39.494C104.084 38.299 107.368 37.596 110.766 37.045C113.201 38.609 115.556 40.296 117.841 42.085C112.393 42.129 107.181 43.808 102.677 46.875C102.391 47.07 102.722 47.569 103.01 47.382C107.693 44.341 112.672 42.769 118.236 42.462C118.259 42.461 118.269 42.443 118.287 42.434C119.533 43.422 120.765 44.432 121.962 45.49C122.852 46.277 123.7 47.087 124.529 47.906C118.702 47.855 112.93 48.92 107.517 51.111C107.14 51.264 107.417 51.812 107.789 51.675C113.452 49.584 119.03 48.52 125.034 48.408C127.163 50.555 129.109 52.808 130.992 55.113C126.64 54.672 122.255 54.85 117.994 55.915C117.585 56.017 117.694 56.653 118.113 56.565C122.555 55.636 126.923 55.249 131.444 55.669C132.526 57.006 133.594 58.354 134.653 59.72C124.188 64.192 111.416 65.052 103.064 55.986C98.8919 51.458 98.237 46.065 98.752 40.153C98.874 38.799 98.5549 33.011 99.0509 30.61ZM137.684 57.204C136.483 55.664 135.199 54.186 133.878 52.74C134.018 47.653 134.953 43.002 137.218 38.378C137.269 38.273 137.097 38.187 137.038 38.285C134.586 42.382 133.145 47.173 133.173 51.967C131.178 49.841 129.074 47.808 126.858 45.894C127.504 40.765 128.675 35.878 130.385 30.999C130.464 30.775 130.132 30.659 130.041 30.874C128.105 35.479 126.821 40.374 126.186 45.33C124.112 43.574 121.962 41.902 119.736 40.335C119.373 36.736 119.846 33.422 121.075 30.016C121.161 29.777 120.816 29.664 120.711 29.884C119.231 33.003 118.734 36.489 119.139 39.903C116.822 38.298 114.433 36.797 111.993 35.403C112.072 35.347 112.133 35.267 112.109 35.159C111.739 33.466 111.64 31.868 112.114 30.18C112.182 29.938 111.83 29.805 111.744 30.046C111.156 31.69 111.019 33.481 111.557 35.156C107.736 33.001 103.795 31.101 99.7939 29.49C101.011 29.208 104.416 29.86 105.632 29.799C107.953 29.685 110.256 29.383 112.56 29.086C117.367 28.467 122.281 27.792 127.1 28.694C141.476 31.383 142.046 46.123 137.684 57.204ZM140.62 62.031C140.243 63.084 139.862 64.135 139.503 65.194C132.25 50.535 117.12 38.673 102.43 31.354C117.845 38.204 130.047 48.827 140.62 62.031ZM178.677 2.82201C177.74 3.90401 176.804 4.99 175.879 6.094C173.875 7.958 171.946 9.898 170.086 11.901C170.426 9.805 170.533 7.61501 170.346 5.517C170.329 5.33 170.025 5.349 170.019 5.532C169.936 7.919 169.756 10.234 169.442 12.6C167.031 15.239 164.754 17.999 162.582 20.841C162.991 16.576 162.512 12.295 161.235 8.202C161.16 7.962 160.775 8.021 160.841 8.274C161.964 12.569 162.273 16.799 161.887 21.222C161.873 21.378 161.952 21.482 162.06 21.534C158.258 26.579 154.815 31.906 151.726 37.43C151.85 33.092 150.836 28.815 148.993 24.897C148.785 24.454 148.111 24.782 148.309 25.228C150.073 29.184 150.948 33.157 151.273 37.46C151.287 37.646 151.506 37.679 151.634 37.593C150.614 39.422 149.633 41.273 148.69 43.142C144.251 32.541 141.255 20.195 151.761 12.035C155.792 8.905 160.51 7.052 165.458 5.952C168.112 5.362 170.809 4.97901 173.459 4.37101C175.098 3.99501 177.019 2.96901 178.677 2.82201ZM150.347 46.36C151.396 44.23 152.499 42.124 153.637 40.036C153.666 40.037 153.694 40.039 153.727 40.03C158.581 38.725 163.455 37.769 168.459 37.266C168.615 37.25 168.565 37.023 168.416 37.031C163.54 37.293 158.731 38.023 154.022 39.321C155.355 36.901 156.742 34.509 158.179 32.145C164.691 29.781 171.147 29.178 178.003 30.401C178.242 30.444 178.329 30.039 178.095 29.986C171.609 28.505 164.948 28.918 158.735 31.227C160.626 28.154 162.598 25.128 164.642 22.153C170.371 20.918 175.883 21.065 181.62 22.193C181.833 22.235 181.905 21.884 181.701 21.825C176.317 20.262 170.653 20.228 165.186 21.352C167.144 18.527 169.161 15.746 171.234 13.016C174.617 12.542 178.004 12.071 181.366 11.468C181.618 11.423 181.544 11.054 181.295 11.081C178.096 11.43 174.908 11.898 171.724 12.37C173.34 10.255 174.976 8.15801 176.65 6.10301C177.719 5.04801 178.808 4.00601 179.917 2.97801C181.567 3.67501 181.347 6.396 181.694 8.48C182.138 11.143 182.597 13.805 183.02 16.472C183.955 22.373 184.844 29.346 180.855 34.423C177.01 39.317 169.444 40.385 163.856 42.078C159.335 43.447 154.816 44.832 150.347 46.36ZM182.731 60.531C184.238 59.529 185.545 58.177 186.529 56.688C186.662 56.486 186.37 56.289 186.222 56.476C184.868 58.19 183.329 59.453 181.505 60.592C177.7 60.788 173.899 61.193 170.121 61.76C172.518 58.721 174.707 55.514 176.713 52.208C176.846 51.989 176.527 51.764 176.383 51.98C174.102 55.414 171.64 58.694 169.069 61.913C164.31 62.67 159.598 63.714 154.98 65.026C159.153 61.587 162.657 56.967 165.165 52.266C165.279 52.052 164.981 51.831 164.847 52.046C161.638 57.178 157.832 61.333 153.454 65.474C151.386 66.091 149.337 66.757 147.315 67.483C149.592 62.254 151.798 56.569 156.199 52.725C161.481 48.11 168.289 47.566 174.829 49.603C183.771 52.388 190.512 60.085 200.085 61.098C200.054 61.124 200.024 61.151 199.993 61.177C194.301 60.495 188.517 60.295 182.731 60.531ZM199.183 61.87C189.683 61.558 179.669 63.087 170.309 64.704C170.234 64.646 170.161 64.584 170.085 64.527C169.843 64.342 169.586 64.587 169.607 64.825C169.428 64.856 169.245 64.887 169.067 64.918C159.02 66.67 149.267 69.455 140.051 73.841C140.308 72.835 140.571 71.831 140.85 70.833C140.945 70.868 141.054 70.876 141.172 70.83C160.183 63.295 179.252 60.514 199.601 61.515C199.461 61.632 199.322 61.751 199.183 61.87ZM139.552 97.527C138.242 97.733 136.934 97.944 135.629 98.16C136.585 90.302 137.9 82.485 139.787 74.886C139.817 74.879 139.846 74.878 139.877 74.863C142.096 73.788 144.352 72.818 146.633 71.925C148.005 75.852 150.214 79.572 153.095 82.318C145.644 84.276 144.397 91.775 139.459 96.782C139.204 97.041 139.318 97.39 139.552 97.527ZM152.98 89.653C151.398 92.11 149.502 94.221 147.53 96.362C147.524 96.368 147.523 96.375 147.518 96.382C145.037 96.698 142.562 97.057 140.094 97.442C142.389 95.589 143.634 92.926 145.031 90.389C147.052 86.716 149.562 84.132 153.567 82.756C156.445 85.326 159.957 86.922 163.956 86.838C161.675 90.234 158.757 92.935 155.289 95.111C155.112 95.222 155.105 95.428 155.189 95.566C152.955 95.751 150.725 95.993 148.498 96.266C150.418 94.419 151.972 92.156 153.259 89.846C153.361 89.658 153.099 89.467 152.98 89.653ZM175.383 81.263C169.681 85.107 162.566 87.922 156.218 83.606C151.999 80.737 149.272 76.285 147.547 71.57C149.761 70.728 152.004 69.976 154.266 69.286C159.966 71.536 163.977 75.238 167.155 80.428C167.26 80.599 167.523 80.48 167.44 80.29C165.177 75.107 160.458 70.991 155.188 69.006C160.085 67.559 165.082 66.437 170.149 65.578C170.217 65.567 170.285 65.558 170.353 65.547C173.952 68.46 177.071 71.745 179.885 75.436C180.036 75.635 180.304 75.386 180.173 75.188C177.717 71.486 174.659 68.21 171.21 65.416C174.967 64.825 178.768 64.452 182.574 64.114C184.526 65.229 186.416 66.354 188.223 67.708C188.401 67.842 188.573 67.57 188.415 67.43C186.952 66.136 185.311 64.95 183.566 64.025C188.665 63.576 193.763 63.14 198.76 62.233C191.16 68.761 183.682 75.668 175.383 81.263ZM193.92 101.105C190.481 99.014 186.564 97.69 182.548 96.809C184.698 95.408 186.419 93.5 187.616 91.233C187.717 91.042 187.454 90.845 187.332 91.037C185.988 93.162 184.282 94.892 182.221 96.322C182.072 96.425 182.1 96.611 182.198 96.733C179.082 96.071 175.915 95.665 172.863 95.412C172.009 95.341 171.154 95.306 170.3 95.261C174.191 92.779 177.482 89.545 180.218 85.839C180.348 85.663 180.075 85.48 179.94 85.647C177.023 89.283 173.583 92.249 169.723 94.84C169.584 94.934 169.58 95.09 169.642 95.222C165.022 95.01 160.402 95.158 155.793 95.52C159.461 93.501 162.385 90.462 164.429 86.819C165.726 86.749 167.071 86.508 168.464 86.06C171.336 85.135 173.975 83.618 176.471 81.858C176.474 81.858 176.476 81.86 176.479 81.86C186.838 82.631 188.576 93.784 193.92 101.105ZM196.742 104.202C178.05 93.529 155.249 96.33 135.231 101.621C135.328 100.73 135.432 99.84 135.538 98.95C135.594 98.968 135.656 98.975 135.727 98.964C154.117 95.928 178.496 91.646 195.178 102.668C195.666 103.215 196.186 103.728 196.742 104.202ZM149.938 113.939C145.892 110.435 143.253 105.688 140.684 101.061C145.521 99.92 150.4 99.013 155.278 98.437C155.137 98.522 155.05 98.714 155.181 98.884C158.479 103.164 161.315 107.697 163.91 112.431C164.012 112.617 164.297 112.481 164.208 112.287C161.934 107.34 159.001 102.765 155.63 98.499C155.595 98.455 155.556 98.43 155.515 98.413C160.018 97.891 164.52 97.65 168.988 97.793C172.055 102.091 174.488 106.284 176.442 111.195C176.54 111.441 176.961 111.304 176.886 111.05C175.486 106.302 173.068 101.612 169.829 97.826C173.471 97.982 177.09 98.383 180.666 99.097C183.241 101.444 185.216 104.142 186.637 107.342C186.735 107.563 187.059 107.401 186.973 107.18C185.8 104.178 183.997 101.498 181.654 99.307C187.321 100.529 192.879 102.521 198.255 105.485C187.448 107.453 178.813 114.926 168.206 117.541C161.683 119.146 155.14 118.444 149.938 113.939ZM133.994 134.298C136.099 131.658 137.451 128.621 139.114 125.677C141.782 120.951 145.492 117.825 150.788 116.402C150.975 116.352 150.996 116.154 150.913 116.035C153.794 118.107 157.184 119.418 161.266 119.528C160.038 122.791 158.383 125.853 156.324 128.667C151.617 129.261 146.951 130.212 142.379 131.504C146.045 128.599 149.235 125.122 151.691 121.128C151.83 120.901 151.508 120.676 151.35 120.892C148.329 125.033 144.877 128.653 140.771 131.731C140.658 131.816 140.618 131.922 140.623 132.027C138.387 132.705 136.173 133.456 133.994 134.298ZM133.058 133.843C133.115 132.142 133.169 130.442 133.252 128.741C133.676 120.125 134.209 111.27 135.146 102.427C135.196 102.436 135.252 102.434 135.313 102.417C136.776 102.023 138.245 101.648 139.717 101.291C142.603 106.867 146.011 112.468 150.828 115.97C150.79 115.954 150.755 115.934 150.703 115.944C140.581 117.896 138.711 126.862 133.058 133.843ZM197.779 195.786C188 193.288 177.583 193.838 167.72 196.627C170.25 191.865 171.751 186.617 171.89 181.213C171.895 181.005 171.592 180.977 171.568 181.185C170.912 186.762 169.423 191.864 166.766 196.815C166.747 196.851 166.741 196.886 166.733 196.922C162.938 198.057 159.237 199.529 155.689 201.279C155.701 201.267 155.715 201.261 155.727 201.247C158.639 197.684 160.084 192.959 160.202 188.407C160.207 188.213 159.923 188.186 159.901 188.38C159.37 193.065 157.702 196.936 155.194 200.879C155.025 201.144 155.259 201.395 155.497 201.374C152.644 202.791 149.889 204.383 147.28 206.152C148.837 194.034 154.435 175.952 170.225 178.646C176.112 179.65 179.98 184.572 184.273 188.259C188.345 191.755 192.971 194.194 198.159 195.559C198.167 195.561 198.174 195.559 198.182 195.56C198.062 195.647 197.955 195.743 197.839 195.833C197.825 195.812 197.808 195.793 197.779 195.786ZM150.655 210.07C152.79 208.542 155.001 207.146 157.273 205.873C160.628 206.518 163.743 207.945 166.457 210.028C166.64 210.168 166.824 209.883 166.657 209.739C164.161 207.581 161.305 206.154 158.137 205.404C161.372 203.649 164.726 202.139 168.183 200.891C168.198 200.9 168.2 200.917 168.218 200.924C172.406 202.451 175.847 204.866 178.961 208.025C179.09 208.156 179.298 207.983 179.18 207.837C176.497 204.531 172.823 202.115 168.845 200.651C172.587 199.341 176.439 198.323 180.374 197.613C182.977 198.982 185.448 200.575 187.781 202.366C187.886 202.447 187.996 202.281 187.897 202.198C185.762 200.41 183.479 198.854 181.059 197.486C186.296 196.59 191.671 196.223 197.113 196.412C194.297 198.852 192.551 201.993 190.129 204.899C186.639 209.085 181.753 212.073 176.453 213.332C167.17 215.535 159.579 210.254 150.655 210.07ZM139.36 218.812C139.093 217.371 138.838 215.927 138.587 214.483C154.732 198.551 175.586 193.47 197.62 196.006C197.53 196.078 197.437 196.148 197.349 196.221C175.818 194.204 154.054 203.121 139.36 218.812ZM129.018 190.326C127.97 166.454 127.803 142.307 129.937 118.49C133.383 80.038 144.682 41.964 170.203 12.941C170.221 12.985 170.236 13.032 170.273 13.063C157.879 29.034 147.256 47.045 141.288 66.125C134.529 87.732 132.881 111.674 132.085 134.183C131.281 156.941 132.468 179.775 135.617 202.329C138.766 224.886 143.807 247.203 150.848 268.868C158.404 292.119 169.132 314.405 173.836 338.516C167.947 340.846 162.636 341.303 156.497 339.727C156.616 339.654 156.708 339.535 156.725 339.355C159.251 313.192 150.196 288.333 142.285 263.841C134.492 239.719 130.131 215.666 129.018 190.326ZM33.6639 185.061C37.1459 184.781 40.6299 184.433 44.0779 183.887C42.8869 184.859 42.3409 186.353 42.5479 187.875C42.5999 188.256 43.1969 188.147 43.1359 187.767C42.9149 186.393 43.3969 185.037 44.3909 184.07C44.4689 183.994 44.4569 183.898 44.4059 183.835C46.9439 183.423 49.4609 182.905 51.9389 182.208C51.9289 182.215 51.917 182.211 51.907 182.222C50.309 183.954 49.3859 186.277 49.1729 188.61C49.1339 189.04 49.796 189.095 49.838 188.669C50.067 186.352 50.898 184.401 52.213 182.498C52.305 182.365 52.1949 182.203 52.0659 182.176C52.9929 181.913 53.9149 181.63 54.8299 181.316C59.4809 179.717 66.9779 176.72 69.5699 171.982C68.2299 180.163 65.0149 188.797 56.4509 191.745C48.1299 194.606 40.3349 189.676 33.6639 185.061ZM68.0109 171.039C68.3979 171.198 68.7919 171.345 69.1769 171.507C65.2279 177.549 55.419 180.687 48.851 182.227C45.656 182.976 42.4029 183.462 39.1449 183.84C43.5779 182.945 48.1199 181.414 52.1579 180.008C57.8929 178.011 63.2099 175.27 68.0209 171.565C68.2269 171.407 68.1659 171.17 68.0109 171.039ZM37.1559 177.853C38.2889 179.992 40.4439 181.521 42.7759 182.157C39.3979 183.009 35.9819 183.708 32.5809 184.308C32.5469 184.284 32.5109 184.26 32.4769 184.236C34.3759 182.315 35.7559 180.063 37.1559 177.853ZM67.2639 170.744C67.4369 170.814 67.6139 170.879 67.7869 170.949C67.7099 170.946 67.6299 170.962 67.5539 171.021C65.3049 172.758 62.9239 174.263 60.4519 175.595C60.4429 175.59 60.4369 175.583 60.4269 175.579C57.2209 174.291 54.4099 172.612 51.6799 170.508C51.5229 170.387 51.3019 170.63 51.4469 170.767C53.8209 173.02 56.7499 174.785 59.8179 175.939C57.4909 177.155 55.078 178.199 52.614 179.127C52.585 179.113 52.57 179.087 52.532 179.083C49.553 178.78 47.1009 177.353 45.2879 174.985C45.0489 174.673 44.6279 175.063 44.8349 175.375C46.3399 177.645 48.8439 179.145 51.5249 179.522C48.9399 180.451 46.2979 181.241 43.6289 181.937C41.0359 181.245 39.1119 179.66 37.5909 177.425C37.5599 177.379 37.5159 177.371 37.4749 177.354C39.5389 174.122 41.7329 171.042 45.7679 169.305C50.6179 167.217 54.9469 167.793 59.7749 169.396C62.3599 170.254 64.5569 170.95 67.2639 170.744ZM9.41095 167.37C12.0639 167.509 14.6759 167.312 17.2699 166.927C15.7829 167.703 14.5989 169.217 14.4779 170.926C14.4529 171.278 14.9449 171.302 15.0099 170.973C15.3219 169.402 16.0729 168.062 17.4679 167.209C17.6019 167.127 17.5659 166.951 17.4619 166.897C19.6929 166.558 21.9109 166.085 24.1309 165.552C22.8119 167.354 21.4239 169.141 20.2549 171.04C20.0969 171.296 20.4499 171.536 20.6369 171.304C22.1059 169.474 23.3749 167.453 24.6979 165.516C24.7229 165.479 24.7179 165.443 24.7199 165.408C27.3929 164.755 30.071 164.038 32.778 163.404C30.115 165.288 27.6109 167.997 26.4299 171.074C26.3299 171.333 26.718 171.537 26.864 171.298C28.65 168.375 30.4229 165.817 33.0759 163.585C33.1749 163.502 33.1319 163.394 33.0499 163.342C34.6439 162.973 36.2469 162.632 37.8669 162.357C34.6699 170.849 26.5519 177.766 17.0099 174.3C12.4399 172.64 8.65092 169.399 4.59292 166.723C4.85192 166.778 5.11193 166.841 5.36993 166.889C6.50393 167.266 7.90495 167.4 9.41095 167.37ZM35.7399 159.784C34.5959 159.977 33.4719 160.245 32.3539 160.541C30.4739 159.587 28.5039 158.735 26.5509 157.95C26.4409 157.906 26.3509 158.077 26.4549 158.136C28.0909 159.065 29.7749 159.971 31.4829 160.783C29.4329 161.369 27.4059 162.075 25.3619 162.837C25.3229 162.754 25.2529 162.685 25.1409 162.664C23.3019 162.324 21.7559 161.455 20.5039 160.06C20.3919 159.935 20.2229 160.093 20.3119 160.225C21.2929 161.682 22.8189 162.722 24.5209 163.139C22.0679 164.028 19.6789 164.776 17.2989 165.317C15.9489 164.816 14.5859 164.339 13.2159 163.899C12.9989 163.83 12.8889 164.141 13.0959 164.23C14.1599 164.684 15.2389 165.112 16.3219 165.528C12.9199 166.216 9.50993 166.467 5.90393 166.039C8.25093 165.486 10.4549 163.886 12.6969 162.476C15.6619 160.611 18.9469 157.837 22.3229 156.711C27.4889 154.99 31.5449 157.045 35.7399 159.784ZM40.0349 160.14C40.1789 160.139 40.2829 160.07 40.3529 159.978C41.2219 160.431 42.0989 160.869 42.9809 161.294C37.2839 161.295 31.8149 162.371 26.3949 164.088C22.7789 165.234 19.2519 166.491 15.4559 166.883C14.8819 166.942 14.018 167.005 13.019 167.051C15.549 166.685 17.9919 166.079 19.6079 165.598C26.4449 163.562 32.7419 160.207 40.0349 160.14ZM10.0459 131.674C9.29893 131.332 8.53595 130.999 7.76495 130.754C7.48695 130.666 7.36195 131.048 7.61395 131.171C8.47995 131.591 9.42193 131.923 10.3399 132.23C11.0709 133.615 11.8839 134.971 12.7809 136.286C11.9199 135.874 10.9849 135.655 10.0129 135.626C9.70394 135.617 9.66595 136.103 9.97095 136.102C11.1259 136.101 12.2129 136.396 13.2279 136.927C14.4699 138.686 15.8339 140.38 17.2789 141.997C15.5859 141.667 13.8049 141.32 12.0939 141.256C11.7699 141.244 11.7469 141.684 12.0509 141.746C13.8159 142.109 15.7319 142.191 17.5339 142.278C18.5029 143.351 19.5009 144.394 20.5199 145.398C13.8359 147.081 9.00494 142.33 6.82294 136.487C6.21194 134.85 3.87394 123.808 7.12894 122.894C7.59694 125.939 8.62893 128.873 10.0459 131.674ZM21.8979 142.567C21.0399 141.696 20.2149 140.796 19.4049 139.881C19.1219 137.887 19.3999 136.042 20.6239 134.35C20.7179 134.221 20.5179 134.086 20.4209 134.21C19.2989 135.643 18.6779 137.502 18.8989 139.312C17.8389 138.089 16.8169 136.833 15.8329 135.547C16.3609 133.217 16.9809 131.113 18.3019 129.027C18.4159 128.848 18.1519 128.664 18.0299 128.839C16.7899 130.631 15.7469 132.794 15.4169 135.002C14.4439 133.705 13.4959 132.389 12.6059 131.031C13.0009 129.766 13.3359 128.471 13.6379 127.181C13.6819 126.992 13.4139 126.883 13.3469 127.076C12.9569 128.206 12.5939 129.355 12.2749 130.509C10.7539 128.149 9.35193 125.707 8.08893 123.186C9.35393 124.63 11.1699 124.883 13.3199 125.189C22.2629 126.462 21.3399 135.644 21.8979 142.567ZM37.7769 124.244C37.2959 126.486 36.744 128.613 36.114 130.703C36.003 129.526 35.6049 128.333 34.8159 127.46C34.6439 127.27 34.2999 127.477 34.4309 127.712C35.1219 128.949 35.6249 130.073 35.7049 131.513C35.7099 131.593 35.7589 131.636 35.8189 131.662C35.2339 133.513 34.5779 135.343 33.8449 137.199C33.7009 135.816 33.2609 134.496 32.4739 133.326C32.3209 133.098 31.9279 133.358 32.0719 133.59C32.9079 134.936 33.4109 136.339 33.5589 137.917C33.3409 138.456 33.1209 138.995 32.8889 139.541C32.4299 140.618 32.041 141.676 31.726 142.73C31.269 141.704 30.6839 140.729 29.9549 139.88C29.7359 139.625 29.3539 139.957 29.5599 140.219C30.3399 141.209 31.0009 142.221 31.5469 143.331C30.9769 145.466 30.7789 147.596 31.1819 149.847C27.4229 145.55 25.5969 140.452 28.0209 134.836C29.9819 130.293 33.6179 126.802 37.7769 124.244ZM38.1669 124.973C39.1939 129.847 37.2739 134.373 35.4979 138.914C35.3929 138.995 35.2839 139.071 35.1809 139.155C35.0069 139.297 35.0819 139.511 35.2319 139.599C33.6659 143.658 32.34 147.744 33.459 152.117C33.095 151.878 32.7319 151.636 32.3699 151.391C30.4649 145.281 33.6449 140.477 35.7929 135.025C37.0629 131.803 37.9889 128.427 38.1669 124.973ZM34.0229 152.069C33.4879 149.748 33.632 147.501 34.118 145.294C34.151 145.286 34.1849 145.274 34.2169 145.252C36.1159 143.962 38.1329 143.042 40.3169 142.346C40.5379 142.275 40.4909 141.927 40.2499 141.979C38.1089 142.447 36.1139 143.359 34.2909 144.563C34.7539 142.74 35.4259 140.942 36.1209 139.151C38.1789 137.666 40.3979 136.679 42.9039 136.107C43.1119 136.06 43.0549 135.752 42.8439 135.782C40.5519 136.105 38.3999 136.944 36.4869 138.206C37.2559 136.233 38.0109 134.264 38.4959 132.275C38.5129 132.27 38.528 132.279 38.545 132.269C39.643 131.617 40.671 131.102 41.946 130.883C42.167 130.845 42.0949 130.54 41.8849 130.551C40.7539 130.612 39.5949 130.949 38.6499 131.599C39.1809 129.082 39.2389 126.529 38.3039 123.889C43.0059 129.716 47.6309 136.377 42.0399 143.638C39.5509 146.872 35.6509 148.226 34.0229 152.069ZM56.8759 128.662C57.5489 131.126 58.3619 134.108 59.0369 137.292C57.7459 135.737 56.1769 134.313 54.4639 133.285C54.1589 133.102 53.8589 133.528 54.1489 133.742C55.9879 135.107 57.659 136.53 59.226 138.204C60.343 143.769 60.9549 149.847 59.6479 154.84C57.7449 151.825 55.0269 149.026 52.1169 147.052C51.8049 146.84 51.5069 147.294 51.7889 147.527C54.7319 149.956 57.1409 152.503 59.4729 155.477C58.7329 157.934 57.4999 160.105 55.5739 161.774C55.5459 161.798 55.5479 161.826 55.5339 161.853C55.5349 161.826 55.539 161.8 55.532 161.769C54.258 155.829 50.5109 150.806 49.3049 144.862C47.9199 138.033 52.5179 132.216 55.2399 126.334C55.2959 126.214 55.2879 126.099 55.2439 126C55.2479 126.003 55.2469 126.008 55.2509 126.011C55.4809 126.181 55.7169 126.352 55.9509 126.523C56.2599 127.213 56.5699 127.922 56.8759 128.662ZM58.5799 162.499C58.2249 162.612 58.132 162.981 58.226 163.252C58.082 163.201 57.9379 163.15 57.7939 163.1C59.5239 161.013 60.6769 158.574 61.3719 155.935C61.4439 155.94 61.519 155.917 61.588 155.846C63.996 153.361 66.7459 151.329 69.8529 149.797C70.0569 149.697 69.907 149.39 69.7 149.48C66.661 150.813 63.9709 152.617 61.6109 154.931C62.3149 151.681 62.3729 148.165 61.9749 144.636C62.1459 144.755 62.4189 144.741 62.5139 144.488C63.2459 142.544 64.4639 141.034 66.0739 139.743C66.2949 139.566 66.045 139.174 65.799 139.323C63.995 140.413 62.6569 142.154 61.9089 144.111C61.6379 141.952 61.2089 139.794 60.6539 137.697C60.7919 137.727 60.947 137.682 61.015 137.515C61.568 136.139 62.343 134.869 63.295 133.734C63.437 133.565 63.1649 133.327 63.0099 133.478C61.9239 134.53 61.0979 135.755 60.5029 137.14C59.4829 133.445 58.1039 129.956 56.6149 127.005C62.6659 131.4 69.4889 136.163 71.0829 143.922C72.8699 152.629 66.5009 159.984 58.5799 162.499ZM91.5119 176.259C91.7369 175.181 91.9009 174.095 92.0349 173.008C92.1059 173.001 92.1759 172.966 92.2289 172.888C93.7979 170.592 95.6649 168.567 97.7579 166.741C97.9399 166.582 97.706 166.316 97.515 166.458C95.416 168.027 93.6449 169.926 92.1349 172.054C92.3539 169.858 92.4169 167.653 92.2879 165.457C92.3839 165.484 92.4899 165.472 92.5509 165.369C93.6489 163.536 94.8379 161.978 96.6029 160.728C96.7659 160.613 96.5819 160.336 96.4119 160.436C94.6829 161.455 93.1049 162.976 92.2469 164.822C92.0889 162.686 91.7759 160.563 91.2999 158.473C92.2729 157.367 93.0919 156.066 93.9009 154.855C94.0189 154.678 93.7669 154.515 93.6349 154.671C92.7969 155.659 91.8859 156.673 91.1359 157.757C90.4389 154.923 89.4549 152.155 88.1889 149.507C88.1499 149.345 88.1129 149.183 88.0739 149.021C91.7139 152.232 95.9779 155.454 98.1619 159.798C101.578 166.59 96.6859 172.416 91.5119 176.259ZM90.756 176.801C90.677 176.857 90.5969 176.917 90.5179 176.972C90.4789 176.999 90.4529 177.032 90.4349 177.068C90.0419 176.861 89.6459 176.66 89.2539 176.451C89.9389 175.114 90.4219 173.747 90.7629 172.362C90.8459 172.334 90.91 172.252 90.864 172.145C90.856 172.125 90.8449 172.106 90.8369 172.086C92.3739 165.422 90.3939 158.301 88.7019 151.589C89.5519 153.87 90.2039 156.159 90.6779 158.464C90.6529 158.506 90.6219 158.546 90.5969 158.589C90.5069 158.745 90.63 158.942 90.778 158.955C91.904 164.757 91.87 170.663 90.756 176.801ZM129.518 209.69C112.603 196.075 95.2299 182.611 75.4469 173.395C72.9919 172.251 70.4899 171.245 67.9649 170.303C67.9729 170.017 67.7589 169.697 67.3859 169.73C67.0859 169.756 66.7889 169.769 66.4949 169.77C59.7819 167.339 52.9379 165.289 46.3839 162.418C44.3099 161.509 42.2859 160.497 40.3019 159.413C40.2829 159.4 40.2629 159.389 40.2399 159.38C33.3339 155.6 26.9999 150.805 21.4549 145.204C17.4239 141.131 13.5359 136.557 10.7679 131.523C10.2029 130.496 8.25294 124.464 7.89194 124.201C8.67894 124.775 10.1449 128.479 10.8319 129.594C12.2079 131.828 13.7119 133.979 15.3149 136.053C15.3129 136.111 15.3029 136.169 15.3019 136.227C15.2979 136.402 15.4599 136.455 15.5729 136.392C18.7139 140.408 22.2599 144.106 26.1519 147.407C27.8899 148.881 29.6909 150.218 31.5339 151.46C31.5449 151.497 31.5499 151.532 31.5609 151.569C31.6459 151.841 31.9219 151.919 32.1339 151.857C32.6449 152.194 33.157 152.529 33.674 152.852C33.72 152.998 33.7589 153.143 33.8109 153.289C33.8939 153.522 34.2319 153.434 34.2799 153.235C47.5929 161.374 63.0059 164.932 77.3609 171.367C96.3399 179.876 113.318 191.594 128.75 205.465C128.867 205.571 129.025 205.496 129.067 205.387C129.207 206.826 129.357 208.26 129.518 209.69ZM74.3159 272.204C75.4209 269.288 76.9539 266.904 76.8779 263.698C76.8679 263.254 76.1849 263.179 76.1769 263.636C76.1759 263.714 76.1669 263.789 76.1639 263.866C76.0739 263.819 75.95 263.831 75.894 263.952C73.835 268.402 69.7099 270.297 65.1799 271.392C62.9459 271.932 60.5909 272.35 58.3189 272.689C56.5569 272.952 55.9559 273.899 56.1909 271.89C56.5379 268.908 60.4899 265.367 62.7739 263.759C66.0269 261.468 69.778 260.372 73.743 260.344C74.268 260.34 74.3449 259.526 73.8149 259.524C73.6789 259.524 73.5449 259.537 73.4089 259.539C73.5169 259.424 73.44 259.196 73.239 259.216C66.868 259.83 63.9049 255.985 60.5939 251.399C60.1769 250.822 56.1899 246.475 56.1019 246.84C56.3719 245.733 63.1379 247.188 63.7939 247.407C66.2449 248.227 68.5459 249.582 70.3469 251.45C72.9339 254.132 74.3679 257.612 77.2239 260.075C77.0959 260.104 76.9709 260.137 76.8419 260.165C76.3859 260.262 76.5139 260.965 76.9729 260.877C77.4319 260.789 77.8769 260.684 78.3229 260.581C78.3279 260.58 78.3319 260.579 78.3369 260.579C79.3959 264.642 81.3219 268.951 79.8689 273.111C78.8859 275.925 76.8969 278.276 75.8499 281.068C75.2809 282.584 75.6939 283.872 74.2899 281.43C72.6299 278.548 73.2139 275.113 74.3159 272.204ZM23.5419 281.838C23.6479 281.745 23.7619 281.585 23.8389 281.307C24.2079 279.98 25.8539 278.436 26.5049 277.114C28.5109 273.04 29.7179 268.696 32.3319 264.919C38.2719 256.338 48.0809 251.259 58.4339 250.877C58.6749 250.868 58.8339 250.716 58.9039 250.535C60.6269 252.706 61.9609 255.249 64.0799 257.154C65.9459 258.831 68.1279 259.681 70.4609 259.799C63.0119 261.042 56.8069 266.447 54.6389 273.885C54.5589 274.16 54.7829 274.55 55.1159 274.448C62.3139 272.244 72.9039 272.679 76.1359 264.368C75.7869 268.262 73.2519 271.347 72.6449 275.189C72.4609 276.351 72.4799 277.468 72.6489 278.545C66.8039 287.925 56.5609 293.175 45.6809 289.456C41.8859 288.159 38.3549 286.207 34.6779 284.629C31.3189 283.187 28.2519 282.728 24.7699 281.979C24.1529 281.848 23.7689 281.823 23.5419 281.838Z" fill="#432918"/>
<path d="M178.724 193.834C180.334 192.153 181.645 190.432 182.625 188.308C182.705 188.134 182.979 188.226 182.909 188.411C182.105 190.57 180.78 192.67 179.017 194.175C178.793 194.367 178.528 194.039 178.724 193.834Z" fill="#432918"/>
<path d="M148.045 99.906C150.545 102.48 152.399 105.468 153.638 108.834C153.711 109.031 153.418 109.177 153.34 108.978C152.057 105.668 150.151 102.764 147.661 100.236C147.432 100.004 147.818 99.673 148.045 99.906Z" fill="#432918"/>
<path d="M155.371 13.674C155.307 13.272 155.911 13.16 155.993 13.56C157.089 18.853 157.23 24.444 156.255 29.766C156.206 30.037 155.795 30.013 155.821 29.728C156.319 24.29 156.224 19.076 155.371 13.674Z" fill="#432918"/>
<path d="M51.9439 138.476C55.2089 140.09 58.2579 142.854 60.2029 145.929C60.3319 146.133 60.0019 146.34 59.8529 146.158C57.4509 143.227 54.8919 140.986 51.6949 138.96C51.4369 138.797 51.6609 138.336 51.9439 138.476Z" fill="#432918"/>
<path d="M57.9658 188.354C58.0078 184.639 59.6168 180.459 62.5468 178.071C62.6678 177.972 62.8508 178.125 62.7548 178.258C60.4308 181.445 58.9808 184.423 58.7228 188.421C58.6908 188.912 57.9608 188.838 57.9658 188.354Z" fill="#432918"/>
<path d="M70.3629 200.647C71.9859 201.875 73.4439 202.733 75.5449 202.815C75.7619 202.823 75.7869 203.191 75.5629 203.205C73.6089 203.326 71.2579 202.649 70.0039 201.047C69.8219 200.814 70.1069 200.454 70.3629 200.647Z" fill="#432918"/>
<path d="M44.8799 257.39C45.2469 257.078 45.6209 256.784 45.9999 256.499C46.0159 256.594 46.0699 256.679 46.1779 256.708C46.9119 256.907 47.6269 257.129 48.3259 257.372C47.8599 257.717 47.3939 258.06 46.9529 258.439C46.7499 258.614 47.0149 258.92 47.2239 258.753C47.7569 258.327 48.2969 257.935 48.8429 257.558C50.2039 258.06 51.5059 258.66 52.7579 259.396C52.1459 259.987 51.5719 260.623 51.0549 261.311C50.8639 261.565 51.2559 261.819 51.4539 261.587C52.0329 260.909 52.6399 260.29 53.2719 259.713C53.8339 260.064 54.3889 260.437 54.9329 260.85C55.0939 260.972 55.2579 260.722 55.1089 260.595C54.6259 260.184 54.1169 259.799 53.5969 259.428C54.0359 259.043 54.4829 258.673 54.9459 258.33C55.5829 258.856 56.1959 259.42 56.7809 260.032C55.9339 260.568 55.1129 261.152 54.3219 261.792C54.0899 261.98 54.3929 262.333 54.6239 262.144C55.4139 261.498 56.2319 260.904 57.0759 260.356C57.2779 260.575 57.4829 260.788 57.6779 261.018C57.8239 261.189 58.0679 260.97 57.9389 260.793C57.7749 260.569 57.5929 260.36 57.4189 260.144C58.1339 259.692 58.8629 259.266 59.6129 258.873C60.1089 259.261 60.5999 259.663 61.0859 260.08C59.6429 260.785 58.3059 261.713 57.1479 262.853C56.9689 263.029 57.2179 263.326 57.4049 263.152C58.6609 261.979 59.9949 261.066 61.4259 260.367C61.4519 260.389 61.4779 260.41 61.5039 260.432C61.6339 260.547 61.8149 260.344 61.7199 260.216C63.2669 259.5 64.9319 259.038 66.7489 258.797C66.8539 258.783 66.8469 258.604 66.7399 258.609C64.8849 258.695 63.0819 259.152 61.4159 259.915C60.9729 259.479 60.5159 259.056 60.0449 258.644C60.9019 258.213 61.7739 257.806 62.6779 257.452C62.9509 257.623 63.2299 257.781 63.4989 257.96C63.5899 258.02 63.6839 257.883 63.5949 257.821C63.3529 257.653 63.1009 257.502 62.8559 257.339C62.8909 257.252 62.7969 257.128 62.6779 257.169C62.6599 257.175 62.6439 257.183 62.6259 257.189C61.7619 256.625 60.8819 256.092 59.9779 255.604C60.5249 255.407 61.0839 255.226 61.6639 255.07C61.9269 254.999 61.8589 254.59 61.5869 254.648C60.8359 254.809 60.1029 255.033 59.3819 255.285C58.3659 254.76 57.3189 254.295 56.2509 253.872C57.5329 253.454 58.8559 253.108 60.2409 252.843C60.4069 252.811 60.3589 252.569 60.1939 252.587C58.6139 252.763 57.0699 253.115 55.5719 253.598C55.4989 253.571 55.4289 253.537 55.3549 253.51C55.2029 253.455 55.1019 253.616 55.1429 253.733C54.6419 253.905 54.1569 254.116 53.6689 254.319C52.9989 253.976 52.3199 253.656 51.6299 253.365C52.1189 253.182 52.6149 253.009 53.1259 252.859C53.3099 252.805 53.2619 252.513 53.0719 252.562C52.4219 252.73 51.7849 252.934 51.1579 253.16C50.5879 252.932 50.0129 252.721 49.4329 252.531C49.1569 252.44 49.0109 252.846 49.2799 252.954C49.6669 253.11 50.0439 253.276 50.4219 253.44C49.8219 253.682 49.2389 253.959 48.6659 254.256C48.3669 254.164 48.0709 254.065 47.7679 253.989C47.4479 253.909 47.2659 254.386 47.5909 254.478C47.7379 254.52 47.8769 254.573 48.0219 254.617C46.8059 255.306 45.6519 256.109 44.6009 257.063C44.3959 257.25 44.6689 257.57 44.8799 257.39ZM52.9269 254.617C52.4199 254.848 51.9229 255.098 51.4319 255.363C50.7189 255.009 49.9909 254.687 49.2389 254.428C49.7809 254.146 50.3339 253.884 50.9029 253.647C51.5929 253.955 52.2649 254.28 52.9269 254.617ZM58.9989 255.423C58.3199 255.678 57.6619 255.979 57.0189 256.311C56.1229 255.701 55.1999 255.131 54.2469 254.616C54.7479 254.411 55.2529 254.215 55.7679 254.038C56.8679 254.455 57.9449 254.916 58.9989 255.423ZM57.5599 256.674C58.2319 256.326 58.9249 256.01 59.6489 255.735C60.5859 256.207 61.4989 256.729 62.3969 257.28C61.4849 257.6 60.6059 257.981 59.7449 258.391C59.0409 257.792 58.3169 257.212 57.5599 256.674ZM55.3729 258.008C55.8979 257.641 56.4369 257.296 56.9949 256.982C57.7739 257.497 58.5359 258.046 59.2859 258.622C58.5569 258.986 57.8469 259.387 57.1519 259.812C56.6049 259.166 56.0069 258.567 55.3729 258.008ZM52.0059 255.647C52.5019 255.392 53.0019 255.148 53.5109 254.923C54.5129 255.452 55.4879 256.019 56.4379 256.625C55.9099 256.923 55.3969 257.248 54.9019 257.597C54.0009 256.858 53.0309 256.202 52.0059 255.647ZM49.4709 257.135C50.1019 256.724 50.7409 256.339 51.3909 255.983C52.4769 256.541 53.5039 257.188 54.4679 257.936C53.9939 258.292 53.5429 258.678 53.1049 259.079C51.9629 258.313 50.7419 257.659 49.4709 257.135ZM46.4389 256.177C47.1349 255.678 47.8489 255.218 48.5859 254.801C49.3639 255.063 50.1149 255.364 50.8359 255.707C50.1829 256.082 49.5479 256.488 48.9279 256.919C48.1149 256.612 47.2849 256.361 46.4389 256.177Z" fill="#432918"/>
<path d="M61.0559 285.297C63.3249 284.518 65.3629 283.432 67.2179 281.899C67.2949 281.835 67.3939 281.95 67.3189 282.016C65.5199 283.601 63.4849 284.84 61.2119 285.62C60.9969 285.694 60.8389 285.372 61.0559 285.297Z" fill="#432918"/>
<path d="M59.7969 284.098C61.9639 283.238 64.0249 282.187 66.0089 280.962C66.1869 280.852 66.3859 281.152 66.2119 281.271C64.2669 282.594 62.2189 283.706 60.0579 284.636C59.7019 284.789 59.4409 284.239 59.7969 284.098Z" fill="#432918"/>
<path d="M84.641 214.088C87.775 213.551 90.507 212.274 92.962 210.263C93.064 210.18 93.191 210.329 93.095 210.418C90.745 212.597 87.861 213.93 84.691 214.365C84.513 214.389 84.461 214.118 84.641 214.088Z" fill="#432918"/>
<path d="M84.006 212.666C86.002 211.847 87.9869 210.985 90.0079 210.226C90.1539 210.171 90.2589 210.376 90.1149 210.448C88.1829 211.4 86.199 212.255 84.239 213.147C83.924 213.29 83.689 212.796 84.006 212.666Z" fill="#432918"/>
<path d="M69.1399 140.63C69.1189 140.33 69.5728 140.233 69.6098 140.544C69.8648 142.663 70.0858 144.812 70.1838 146.944C70.1948 147.178 69.8069 147.192 69.7729 146.963C69.4699 144.87 69.2869 142.738 69.1399 140.63Z" fill="#432918"/>
<path d="M66.6899 139.446C66.5249 139.155 66.9819 138.947 67.1519 139.223C68.1399 140.823 68.6139 142.635 68.6929 144.504C68.7029 144.747 68.2759 144.77 68.2609 144.524C68.1509 142.684 67.5979 141.041 66.6899 139.446Z" fill="#432918"/>
<path d="M29.019 137.055C29.542 135.334 30.4469 133.804 31.6789 132.495C31.7949 132.372 31.959 132.57 31.849 132.692C30.68 133.989 29.852 135.504 29.357 137.177C29.291 137.398 28.952 137.275 29.019 137.055Z" fill="#432918"/>
<path d="M27.9079 137.183C28.4259 136.179 28.9229 135.161 29.4779 134.177C29.5799 133.996 29.8789 134.152 29.7999 134.343C29.3759 135.366 28.8909 136.365 28.4299 137.372C28.2799 137.7 27.7469 137.496 27.9079 137.183Z" fill="#432918"/>
<path d="M42.968 173.789C45.016 171.807 47.733 170.689 50.536 170.34C50.697 170.32 50.744 170.566 50.582 170.589C47.719 170.998 45.383 172.198 43.161 174.013C43.013 174.135 42.832 173.921 42.968 173.789Z" fill="#432918"/>
<path d="M43.1998 171.985C44.3558 170.618 45.9788 169.853 47.7698 169.85C47.9268 169.85 47.9418 170.116 47.7828 170.128C46.1178 170.253 44.6798 170.978 43.6168 172.272C43.4098 172.524 42.9898 172.233 43.1998 171.985Z" fill="#432918"/>
<path d="M157.708 184.488C159.977 182.514 162.607 181.025 165.459 180.069C165.664 180 165.819 180.296 165.609 180.379C162.82 181.48 160.344 182.952 158.024 184.856C157.783 185.054 157.472 184.693 157.708 184.488Z" fill="#432918"/>
<path d="M155.656 184.587C156.824 182.81 158.873 181.528 160.97 181.203C161.166 181.172 161.207 181.445 161.025 181.5C158.935 182.131 157.45 183.189 156.108 184.898C155.891 185.174 155.46 184.884 155.656 184.587Z" fill="#432918"/>
<path d="M161.881 151.077C165.264 150.113 168.058 148.384 170.481 145.839C170.558 145.759 170.698 145.884 170.626 145.97C168.373 148.682 165.361 150.624 161.98 151.616C161.642 151.715 161.543 151.173 161.881 151.077Z" fill="#432918"/>
<path d="M161.468 152.904C164.469 151.801 167.106 150.154 169.463 147.995C169.618 147.853 169.82 148.095 169.674 148.24C167.384 150.509 164.694 152.203 161.689 153.36C161.385 153.477 161.164 153.016 161.468 152.904Z" fill="#432918"/>
<path d="M112.369 125.449C114.217 127.371 115.803 129.5 117.181 131.781C117.288 131.958 117.005 132.085 116.896 131.919C115.452 129.712 113.786 127.7 111.943 125.816C111.689 125.557 112.118 125.189 112.369 125.449Z" fill="#432918"/>
<path d="M110.358 125.849C111.655 127.297 112.935 128.759 114.195 130.239C114.401 130.481 114.037 130.791 113.822 130.56C112.497 129.137 111.193 127.695 109.905 126.239C109.649 125.95 110.101 125.563 110.358 125.849Z" fill="#432918"/>
<path d="M116.407 68.727C118.833 69.434 120.851 71.328 121.691 73.713C121.714 73.78 121.621 73.829 121.59 73.762C120.517 71.442 118.728 69.826 116.304 69.012C116.119 68.949 116.222 68.672 116.407 68.727Z" fill="#432918"/>
<path d="M115.952 69.595C117.124 70.893 118.32 72.127 119.692 73.218C119.92 73.399 119.672 73.769 119.433 73.594C117.999 72.546 116.632 71.358 115.51 69.975C115.272 69.683 115.7 69.316 115.952 69.595Z" fill="#432918"/>
<path d="M158.684 83.001C160.921 83.838 163.108 84.159 165.485 83.818C165.748 83.78 165.823 84.176 165.56 84.226C163.19 84.676 160.725 84.462 158.521 83.451C158.245 83.325 158.391 82.892 158.684 83.001Z" fill="#432918"/>
<path d="M156.969 81.394C159.198 82.107 161.325 82.396 163.648 82.542C163.848 82.555 163.874 82.888 163.665 82.904C161.371 83.081 158.95 82.659 156.787 81.897C156.462 81.782 156.642 81.289 156.969 81.394Z" fill="#432918"/>
<path d="M152.342 114.287C155.325 115.956 158.512 116.435 161.867 115.79C162.136 115.738 162.203 116.138 161.943 116.205C158.551 117.082 155.021 116.547 152.002 114.779C151.668 114.583 152.01 114.101 152.342 114.287Z" fill="#432918"/>
<path d="M151.886 112.326C153.993 113.161 156.113 113.614 158.388 113.501C158.71 113.485 158.814 113.98 158.481 114.006C156.152 114.189 153.809 113.894 151.661 112.948C151.275 112.777 151.486 112.167 151.886 112.326Z" fill="#432918"/>
<path d="M148.062 21.33C149.109 19.18 150.658 17.402 152.658 16.09C152.818 15.985 153.017 16.21 152.855 16.319C150.93 17.618 149.422 19.362 148.432 21.464C148.325 21.692 147.951 21.557 148.062 21.33Z" fill="#432918"/>
<path d="M146.241 20.956C147.14 18.817 148.558 16.984 150.467 15.655C150.656 15.523 150.892 15.782 150.705 15.932C148.966 17.331 147.633 19.082 146.829 21.169C146.684 21.546 146.085 21.327 146.241 20.956Z" fill="#432918"/>
<path d="M133.541 30.738C135.086 31.849 136.4 33.184 137.487 34.746C137.637 34.962 137.332 35.234 137.173 35.017C136.075 33.524 134.759 32.237 133.242 31.173C132.963 30.977 133.265 30.54 133.541 30.738Z" fill="#432918"/>
<path d="M131.412 32.022C132.97 32.619 134.376 33.771 135.084 35.306C135.195 35.547 134.86 35.69 134.723 35.48C133.849 34.138 132.731 33.136 131.201 32.604C130.825 32.473 131.039 31.879 131.412 32.022Z" fill="#432918"/>
<path d="M170.165 328.56C170.055 328.254 170.503 328.026 170.627 328.336C171.779 331.218 172.188 334.316 171.819 337.396C171.798 337.567 171.547 337.544 171.553 337.373C171.657 334.287 171.211 331.46 170.165 328.56Z" fill="#432918"/>
<path d="M168.517 327.444C169.048 329.717 169.515 332.007 170.006 334.289C170.067 334.573 169.632 334.65 169.564 334.37C169.012 332.099 168.435 329.833 167.922 327.553C167.837 327.172 168.429 327.066 168.517 327.444Z" fill="#432918"/>
</svg>
