<svg width="80" height="46" viewBox="0 0 80 46" fill="none" xmlns="http://www.w3.org/2000/svg">
<path d="M1.53489 32.723C3.81989 37.585 9.85389 39.603 14.4519 36.766C14.5609 36.699 14.5729 36.6 14.5469 36.513C16.5909 37.599 19.0749 37.798 21.5449 36.505C21.6849 36.432 21.7429 36.314 21.7509 36.192C21.8819 36.144 22.0139 36.098 22.1349 36.029C22.1739 36.007 22.2009 35.981 22.2249 35.953C24.5029 39.325 28.6149 41.406 32.9809 41.168C33.2199 41.155 33.3149 40.933 33.2679 40.757C35.9589 43.904 40.7189 43.329 42.7569 39.955C45.5499 42.285 49.5849 42.767 53.0439 40.277L53.0459 40.274C54.5009 42.221 56.5819 43.745 59.1909 44.566C65.3279 46.496 74.3089 45.032 78.0349 39.276C79.9419 36.331 79.9289 32.671 78.7859 29.45C76.9969 24.406 70.1329 20.522 70.2989 15.069C70.3099 14.706 69.7109 14.616 69.6569 14.982C69.6379 15.111 69.6349 15.234 69.6219 15.36C67.4839 15.977 65.2749 16.715 63.1489 17.634C63.9399 10.61 61.2099 1.723 53.0349 0.945999C49.5519 0.614999 46.7259 2.12399 44.9869 4.45799C44.9789 4.45699 44.9769 4.45 44.9689 4.45C40.2789 4.116 36.0139 7.043 34.0729 11.196C32.3109 9.921 30.0659 9.15599 28.0749 8.97099C23.5219 8.54799 19.4319 10.838 16.8879 14.516C16.5929 14.943 17.2869 15.339 17.5799 14.921C19.7229 11.864 22.9799 9.65 26.8329 9.62C29.0789 9.602 31.8039 10.34 33.8359 11.816C33.8469 12.04 34.0699 12.179 34.2999 12.178C35.5939 13.254 36.5319 14.664 36.7429 16.412C36.7749 16.678 37.1829 16.694 37.1719 16.412C37.0999 14.537 36.1579 12.983 34.7989 11.782C36.4479 7.703 40.2479 5.36099 44.5389 5.12199C42.6759 8.12799 42.4719 12.213 44.7039 15.571C44.9649 15.964 45.5909 15.607 45.3419 15.198C40.8899 7.898 48.1079 -1.561 56.2379 2.782C61.8439 5.777 62.8799 12.102 62.5939 17.879C61.2919 18.467 60.0249 19.125 58.8349 19.876C56.8149 18.856 55.0509 17.642 53.4089 16.01C53.2529 15.855 53.0129 15.868 52.8559 16.01C50.4499 18.19 47.3439 20.155 44.7119 22.416C43.7439 20.468 41.1219 18.735 41.3979 16.412C41.4309 16.137 41.1179 15.98 40.8919 16.027C35.7479 17.102 29.2979 17.77 25.0119 20.799C24.9749 17.796 26.1239 15.162 28.1859 12.978C28.3309 12.824 28.1149 12.617 27.9569 12.749C25.6179 14.718 24.3769 17.572 24.2519 20.587C23.4799 18.663 22.1949 17.106 20.3049 16.064C17.0209 14.253 12.0389 16.25 9.58689 13.154C9.45089 12.982 9.11489 12.989 8.97689 13.154C4.37989 18.632 -2.11911 24.946 1.53489 32.723ZM52.3199 29.378C53.9739 24.015 58.1429 21.089 62.8239 18.972C62.8599 18.965 62.8889 18.952 62.9159 18.929C65.1009 17.947 67.3939 17.138 69.5939 16.34C69.7489 20.19 73.0919 22.582 75.3199 25.719C78.4259 30.094 79.7169 35.97 75.5319 40.056C72.8169 42.706 69.2689 43.926 65.4929 44.147C64.4419 44.209 63.4069 44.166 62.4039 44.027C60.6529 41.949 61.9819 36.334 62.5909 34.291C63.5759 30.984 65.2659 28.216 67.5379 25.653C67.7199 25.448 67.4289 25.15 67.2349 25.35C64.3869 28.276 62.3309 31.833 61.4239 35.837C60.9429 37.962 60.1249 41.625 61.2519 43.819C54.7519 42.403 50.0189 36.838 52.3199 29.378ZM40.3279 32.39C40.3499 27.245 44.0609 23.686 47.8999 20.902C49.4749 19.76 51.8729 17.254 53.9459 17.59C55.2029 17.794 56.8669 19.298 58.3329 20.187C54.9149 22.46 52.1909 25.531 51.1119 29.84C50.2169 33.414 50.8209 36.903 52.6109 39.657C46.9509 43.5 40.3009 38.833 40.3279 32.39ZM28.8879 19.618C31.0869 18.837 38.4419 16.368 40.4769 17.591C40.7119 17.732 40.7979 18.724 41.0119 18.949C42.1149 20.111 43.4389 21.457 44.1119 22.914C44.1149 22.921 44.1199 22.923 44.1239 22.93C40.8509 25.889 38.5039 29.399 39.5659 34.542C39.9799 36.545 40.9479 38.239 42.2459 39.502C39.0619 43.554 33.8429 42.042 32.6089 37.12C31.8009 33.895 31.6799 30.182 33.1829 27.173C33.3689 26.801 32.8519 26.496 32.6239 26.847C30.4479 30.199 30.5329 37.3 33.1269 40.575C33.0859 40.554 33.0379 40.539 32.9799 40.54C20.4839 40.692 17.0219 23.831 28.8879 19.618ZM1.4759 28.77C1.1299 24.162 4.19589 19.734 7.3029 16.559C10.0309 13.771 9.53889 15.319 12.7419 15.827C13.7039 15.979 14.7269 15.816 15.6869 15.866C19.6599 16.074 22.3589 18.002 23.8159 21.746C22.0049 23.41 20.7529 25.661 20.4369 28.803C20.1869 31.291 20.7819 33.564 21.9349 35.473C21.8989 35.476 21.8629 35.482 21.8249 35.498C21.6189 35.588 21.4199 35.658 21.2199 35.719C21.2179 35.72 21.2159 35.719 21.2129 35.719C21.0259 35.767 20.8369 35.801 20.6489 35.842C20.4329 35.871 20.2129 35.887 19.9749 35.872C19.8789 35.866 19.8269 35.929 19.8059 36.003C17.2529 36.408 14.7039 36.076 12.7219 34.071C10.4629 31.786 9.96089 28.485 10.9359 25.51C11.0119 25.28 10.6449 25.124 10.5439 25.345C8.62789 29.509 10.7109 34.277 14.2489 36.348C14.2349 36.352 14.2229 36.344 14.2089 36.35C8.34489 38.937 1.9649 35.294 1.4759 28.77Z" fill="#432918"/>
<path d="M70.8969 40.963C73.1759 39.62 75.0649 37.918 76.4029 35.616C76.5039 35.442 76.7579 35.595 76.6699 35.772C75.4759 38.17 73.5819 40.229 71.1449 41.388C70.8629 41.522 70.6199 41.126 70.8969 40.963Z" fill="#432918"/>
<path d="M70.1399 39.788C71.3779 39.188 72.2789 38.241 72.9119 37.028C73.0149 36.83 73.3579 36.967 73.2779 37.182C72.7709 38.544 71.7269 39.64 70.4309 40.286C70.0989 40.452 69.8069 39.95 70.1399 39.788Z" fill="#432918"/>
<path d="M56.0768 4.894C58.0308 6.186 59.5678 8.33301 59.9828 10.658C60.0268 10.903 59.6948 10.997 59.6098 10.761C58.8168 8.55901 57.6558 6.819 55.7858 5.392C55.4998 5.173 55.7598 4.684 56.0768 4.894Z" fill="#432918"/>
<path d="M54.092 5.21101C55.568 6.13601 56.584 7.63901 56.849 9.36401C56.874 9.53001 56.639 9.605 56.592 9.435C56.151 7.848 55.216 6.55201 53.83 5.66001C53.549 5.48001 53.807 5.03201 54.092 5.21101Z" fill="#432918"/>
<path d="M43.4119 26.531C44.9329 24.686 47.0179 23.374 49.2789 22.634C49.4999 22.562 49.5889 22.903 49.3739 22.98C47.1399 23.783 45.3209 25.105 43.7309 26.849C43.5319 27.066 43.2309 26.751 43.4119 26.531Z" fill="#432918"/>
<path d="M43.0308 29.246C43.8008 28.209 44.6168 27.209 45.4228 26.2C45.6578 25.906 46.0638 26.321 45.8358 26.613C45.0538 27.609 44.2838 28.615 43.4668 29.583C43.2658 29.821 42.8418 29.5 43.0308 29.246Z" fill="#432918"/>
<path d="M28.7829 23.891C29.0139 23.674 29.3479 24.008 29.1309 24.239C27.6099 25.862 26.8069 27.683 26.3799 29.844C26.3149 30.174 25.7519 30.105 25.7859 29.764C26.0099 27.522 27.1529 25.419 28.7829 23.891Z" fill="#432918"/>
<path d="M23.9678 28.221C24.4888 27.11 25.0978 25.992 25.7338 24.943C25.9078 24.656 26.2958 24.907 26.1708 25.198C25.6878 26.329 25.1328 27.477 24.5328 28.551C24.3238 28.923 23.7908 28.596 23.9678 28.221Z" fill="#432918"/>
<path d="M20.4589 14.64C21.6949 12.959 23.3359 11.73 25.2849 10.989C25.4469 10.927 25.5119 11.183 25.3559 11.247C23.5109 11.995 21.9589 13.226 20.7809 14.828C20.6399 15.019 20.3169 14.834 20.4589 14.64Z" fill="#432918"/>
<path d="M19.7568 13.197C20.3928 12.524 21.2878 11.911 22.2248 11.783C22.4668 11.75 22.6888 12.102 22.4118 12.226C21.5708 12.605 20.8578 12.969 20.2298 13.669C19.9428 13.988 19.4608 13.51 19.7568 13.197Z" fill="#432918"/>
<path d="M17.372 16.84C19.144 17.25 20.757 18.455 21.903 19.831C22.111 20.081 21.766 20.441 21.54 20.194C20.311 18.846 18.888 18.07 17.215 17.41C16.868 17.273 16.994 16.753 17.372 16.84Z" fill="#432918"/>
<path d="M16.4889 17.436C17.7769 18.283 18.9419 19.282 19.9389 20.459C20.1959 20.762 19.7729 21.201 19.4959 20.902C18.4889 19.814 17.3749 18.858 16.1229 18.062C15.7309 17.811 16.0999 17.179 16.4889 17.436Z" fill="#432918"/>
</svg>
