<svg width="104" height="105" viewBox="0 0 104 105" fill="none" xmlns="http://www.w3.org/2000/svg">
<path d="M92.7595 71.0355C86.1665 75.7775 77.5705 76.6895 70.1285 73.4125C69.6885 73.2185 70.0365 72.5885 70.4705 72.7585C77.9945 75.6925 85.7065 75.0315 92.6185 70.8175C92.7625 70.7295 92.8955 70.9385 92.7595 71.0355Z" fill="#432918"/>
<path d="M73.7014 45.6265C63.2304 47.4105 60.2424 60.7015 64.4384 69.1115C64.4344 69.1255 64.4244 69.1345 64.4214 69.1495C62.1354 79.4155 72.2494 86.9055 81.6814 86.7345C87.0964 86.6365 92.2064 84.2805 95.7784 80.2025C97.4374 78.3085 98.7334 76.0885 99.5644 73.7125C100.832 70.0905 100.155 65.8815 102.938 62.8345C102.967 62.8035 102.981 62.7715 102.997 62.7395C103.058 62.7585 103.112 62.7875 103.173 62.8055C103.911 63.0265 104.112 61.9045 103.421 61.6575C96.8564 59.3145 94.7144 52.2105 89.3094 48.4025C85.0934 45.4305 78.6954 44.7755 73.7014 45.6265ZM84.8664 47.6045C92.7094 50.0735 94.8484 59.5795 102.296 62.4765C99.6964 64.8485 99.8534 67.9145 99.0614 71.1765C97.7434 76.6055 94.2824 81.2215 89.2284 83.6915C79.4484 88.4725 62.7114 82.4525 65.6244 69.4085C65.7344 68.9155 65.2864 68.6345 64.9014 68.6945C62.6624 62.5915 62.9554 55.4695 67.4684 50.3965C71.5664 45.7885 79.3484 45.8685 84.8664 47.6045Z" fill="#432918"/>
<path d="M78.2534 49.2195C74.9024 49.1325 70.4004 49.2395 69.2734 53.1575C69.2114 53.3725 68.8754 53.3045 68.9294 53.0835C69.9554 48.9195 74.6724 48.5425 78.2194 48.6225C78.6024 48.6315 78.6374 49.2295 78.2534 49.2195Z" fill="#432918"/>
<path d="M80.3343 51.8255C77.5763 51.3265 74.9873 51.4795 72.3853 52.5745C72.1193 52.6865 71.9943 52.2705 72.2473 52.1535C74.8163 50.9675 77.6973 50.5365 80.4743 51.1785C80.8893 51.2755 80.7533 51.9005 80.3343 51.8255Z" fill="#432918"/>
<path d="M35.7705 1.45248C28.9215 4.08948 25.1005 11.2395 18.2785 14.0065C17.8525 14.1795 17.8275 14.6645 18.0405 14.9395C17.8765 15.0085 17.7565 15.1745 17.8295 15.4015C19.6625 21.1685 19.1615 27.0095 22.3885 32.3445C24.8865 36.4745 28.9885 40.1035 33.6455 41.5495C44.5505 44.9355 52.7265 34.9665 54.3185 25.2265C54.3825 24.8365 54.0845 24.5995 53.7825 24.5775C54.3495 24.0705 54.8905 23.5085 55.3865 22.8625C58.9685 18.2085 58.1205 11.7725 54.5275 7.37848C50.2865 2.19148 42.2395 -1.03752 35.7705 1.45248ZM40.0875 1.83247C47.9685 1.50347 56.5965 8.11747 56.5615 16.2655C56.5175 26.5135 44.7075 28.5535 37.1405 25.3215C36.9055 25.2215 36.7215 25.5605 36.9545 25.6765C42.2215 28.2915 48.6355 28.6695 53.2195 25.0485C50.8875 36.6125 40.1545 45.9675 28.8935 37.6395C25.2155 34.9195 22.5335 31.1245 21.1895 26.7425C20.0095 22.8975 20.0995 18.9165 18.5775 15.1575C18.5695 15.1385 18.5565 15.1275 18.5465 15.1105C18.5765 15.1045 18.6025 15.1085 18.6345 15.0975C26.5815 12.2305 31.2465 2.20047 40.0875 1.83247Z" fill="#432918"/>
<path d="M23.7724 25.0495C24.0354 28.2655 25.5894 30.7335 27.9534 32.8365C28.0754 32.9445 27.9294 33.1685 27.7854 33.0765C25.1034 31.3635 23.5284 28.1855 23.2734 25.0775C23.2474 24.7565 23.7464 24.7305 23.7724 25.0495Z" fill="#432918"/>
<path d="M25.2474 21.2825C25.3584 24.1005 26.1064 26.7455 27.5074 29.1925C27.6414 29.4275 27.2904 29.6565 27.1524 29.4215C25.6924 26.9295 24.8474 24.1985 24.6634 21.3155C24.6414 20.9395 25.2324 20.9065 25.2474 21.2825Z" fill="#432918"/>
<path d="M12.5903 58.4695C8.34632 68.6745 -0.318677 76.2365 1.66932 88.3235C3.68832 100.606 18.6453 108.94 28.1573 98.4125C28.5743 97.9515 29.2663 98.5895 28.8673 99.0635C21.3113 108.04 8.10232 104.675 2.74132 95.1604C-4.96168 81.4904 5.29732 69.4895 11.8733 58.0945C12.1363 57.6395 12.7883 57.9935 12.5903 58.4695Z" fill="#432918"/>
<path d="M13.5093 57.9855C22.0643 62.8065 32.8283 62.8875 39.1573 71.2975C44.1453 77.9255 43.9473 86.8785 38.3663 93.0425C24.0513 108.854 9.46326 82.3405 11.4743 68.9715C11.5253 68.6315 12.1093 68.6695 12.0853 69.0195C11.5953 76.2505 14.8173 83.6645 18.6093 89.7055C21.1103 93.6895 24.4713 97.0605 29.4583 96.6965C34.4503 96.3315 38.7773 91.7484 40.5513 87.2344C43.8233 78.9084 38.8313 70.3065 31.4613 66.2485C25.6173 63.0305 18.7823 62.3705 12.9783 59.0015C12.3433 58.6325 12.8623 57.6215 13.5093 57.9855Z" fill="#432918"/>
<path d="M36.5204 76.9575C38.9414 80.5175 39.9214 84.7265 39.5184 88.9955C39.4964 89.2305 39.1424 89.1485 39.1614 88.9185C39.5054 84.6785 38.4104 80.7765 36.0954 77.2315C35.9164 76.9585 36.3374 76.6885 36.5204 76.9575Z" fill="#432918"/>
<path d="M36.2083 72.3845C38.3283 74.9745 39.7393 77.9675 40.3923 81.2505C40.4403 81.4905 40.0773 81.6155 40.0243 81.3705C39.3353 78.1645 37.9153 75.2375 35.7983 72.7305C35.5473 72.4355 35.9583 72.0795 36.2083 72.3845Z" fill="#432918"/>
</svg>
