<svg width="54" height="35" viewBox="0 0 54 35" fill="none" xmlns="http://www.w3.org/2000/svg">
<path d="M0.836938 19.385C3.57894 20.475 4.99493 23.198 7.34893 24.813C8.93093 25.898 10.7319 26.641 12.6019 27.046C16.0779 27.799 19.5079 27.308 22.6169 25.696C22.8719 26.89 23.3399 28.081 24.0989 29.261C27.9909 35.306 36.8829 36.413 41.9409 31.51C42.3839 31.08 41.7089 30.408 41.2649 30.834C37.3129 34.618 31.9789 34.345 27.7009 31.311C23.9279 28.635 23.2769 24.122 24.0389 19.823C24.5389 17 25.8329 14.609 27.1409 12.228C27.1739 12.193 27.2099 12.163 27.2429 12.127C27.3159 12.048 27.3409 11.959 27.3339 11.876C27.6849 11.237 28.0289 10.595 28.3619 9.947C28.5179 10.115 28.8699 9.95301 28.7769 9.71101C28.7359 9.60601 28.6869 9.504 28.6439 9.4C29.0579 8.56 29.4379 7.70101 29.7509 6.80601C34.6839 12.31 41.9759 11.505 48.0479 14.989C56.8579 20.044 50.9179 32.1 42.3359 29.636C36.7919 28.044 32.8729 21.89 32.0309 16.496C32.0019 16.308 31.6819 16.354 31.6999 16.541C32.4979 25.036 44.3689 37.603 51.7489 27.484C54.5819 23.599 54.9959 18.866 51.1569 15.648C44.9719 10.465 35.7809 12.103 30.0249 5.947C30.1199 5.544 29.5259 5.40301 29.3789 5.79001C29.0549 6.64401 28.6449 7.52501 28.2019 8.41901C25.7449 3.46901 20.6619 -0.0169909 14.9039 0.953009C11.9779 1.44601 9.19594 3.065 7.35194 5.392C4.18994 9.383 5.41594 16.117 0.392938 18.583C-0.134062 18.842 0.314938 19.615 0.836938 19.385ZM1.55093 18.99C5.34193 16.64 5.04193 12.232 6.78593 8.37101C11.2719 -1.55899 23.3929 0.927995 27.8829 9.06299C27.3649 10.075 26.8059 11.107 26.2449 12.157C23.4299 14.91 19.9449 16.62 15.9939 17.104C15.7709 17.131 15.7589 17.477 15.9939 17.463C19.4819 17.254 22.6799 16.015 25.3389 13.885C23.5619 17.359 22.0709 20.981 22.4379 24.585C17.9079 26.81 12.8249 26.865 8.40293 24.243C5.78793 22.691 4.37093 19.928 1.55093 18.99Z" fill="#432918"/>
<path d="M49.4319 25.412C50.2129 23.91 50.4569 22.261 50.1429 20.597C50.0799 20.26 50.5969 20.117 50.6579 20.455C50.9839 22.265 50.6999 24.023 49.8139 25.635C49.6759 25.886 49.3009 25.664 49.4319 25.412Z" fill="#432918"/>
<path d="M48.984 19.785C49.355 21.042 49.405 22.312 49.2 23.604C49.158 23.868 48.705 23.809 48.73 23.54C48.844 22.319 48.721 21.128 48.4 19.946C48.298 19.569 48.874 19.412 48.984 19.785Z" fill="#432918"/>
<path d="M8.39399 20.733C10.911 22.374 13.638 23.154 16.65 22.933C16.931 22.912 16.926 23.343 16.65 23.369C13.618 23.648 10.631 22.949 8.10999 21.219C7.81499 21.016 8.08799 20.534 8.39399 20.733Z" fill="#432918"/>
<path d="M6.98897 19.258C9.09997 19.389 11.211 19.52 13.322 19.651C13.609 19.669 13.613 20.114 13.322 20.101C11.211 20.01 9.09997 19.919 6.98897 19.828C6.62297 19.811 6.62397 19.235 6.98897 19.258Z" fill="#432918"/>
</svg>
