<svg width="147" height="81" viewBox="0 0 147 81" fill="none" xmlns="http://www.w3.org/2000/svg">
<path d="M51.4953 65.4005C51.5813 65.3885 51.6473 65.3545 51.7043 65.3105C52.0303 65.6605 52.3883 65.9915 52.7923 66.2945C57.2273 69.6185 67.3603 68.7175 68.8523 62.4995C68.9753 61.9865 68.2293 61.7855 68.0663 62.2825C66.7823 66.2015 60.9863 67.5915 57.4483 67.0425C54.1483 66.5305 51.7553 64.6525 50.8323 61.4435C49.4763 56.7295 51.2213 50.6385 53.4433 46.3705C53.5663 46.1345 53.2243 45.9325 53.0853 46.1615C50.2213 50.8635 47.4793 59.2885 50.9463 64.3685C45.5013 64.8355 40.3093 62.0405 38.7963 56.4765C37.4583 51.5585 39.9023 46.4205 43.2953 42.9615C44.4143 41.8205 45.5743 40.8865 46.7743 40.1665C47.0393 40.2655 47.4103 40.0785 47.4353 39.7885C50.5353 38.1595 53.9043 37.9945 57.5783 39.6445C60.2643 40.8505 62.9333 40.2105 65.6543 41.3145C65.6713 41.3215 65.6823 41.3095 65.6983 41.3125C64.0693 43.3025 62.9853 45.8015 62.7343 48.8225C62.1543 55.7955 67.0003 63.0135 74.1603 63.9945C74.6803 64.0655 75.1903 64.0965 75.6893 64.0925C78.4113 69.6135 85.5913 69.9565 90.1863 66.2545C92.1483 71.7695 96.8103 76.5515 102.315 78.4405C107.356 80.1705 111.766 78.6415 114.661 75.6305C114.68 75.6355 114.688 75.6535 114.71 75.6555C121.828 76.4005 126.069 69.0785 126.052 62.6425C132.587 65.0615 140.178 63.1845 144.147 57.1765C146.076 54.2575 147.05 50.6515 146.707 47.1575C146.171 41.7045 142.296 37.1645 143.115 31.4855C143.178 31.0475 142.884 30.7575 142.448 30.8175C138.053 31.4315 133.742 30.0225 129.514 29.0085C134.16 22.2965 124.483 14.7825 124.082 8.06247C124.059 7.67847 123.702 7.50447 123.368 7.65247C117.962 10.0415 112.311 6.57046 106.996 8.42046C104.781 2.46846 98.7093 -0.0665342 92.6033 0.590466C86.4213 1.25447 83.3103 4.58946 82.3433 10.5515C79.6483 9.89346 76.9983 8.99447 73.9313 8.53547C70.9143 8.08347 67.9523 8.77247 65.4643 10.5605C61.2543 13.5855 59.8343 18.3015 60.5373 22.8925C51.4553 18.9815 43.3453 31.3065 46.3033 39.3355C43.1403 41.2235 40.4813 44.1665 38.9073 47.2795C34.1843 56.6165 41.0153 66.8265 51.4953 65.4005ZM81.0133 11.8195C83.6163 12.5035 89.5163 11.4205 90.9953 13.3665C91.7483 14.3575 91.0673 19.2355 91.1223 20.5805C91.1933 22.3375 91.3133 24.0325 91.5503 25.7635C88.2523 28.4005 85.8773 32.1965 85.5713 36.3385C80.2043 34.7915 74.0423 35.3785 69.4623 38.1215C66.3503 35.3845 64.1823 32.3385 66.1883 28.0015C67.4793 25.2105 69.4853 22.7585 71.5433 20.5125C71.7353 20.3035 71.4473 20.0235 71.2353 20.2045C68.5763 22.4715 65.3703 25.8445 64.4203 29.4905C64.4173 29.4865 64.4183 29.4825 64.4153 29.4785C60.7713 24.1855 59.8963 16.8945 65.1443 12.2225C70.2953 7.63746 75.4093 10.3475 81.0133 11.8195ZM97.9183 23.4875C100.809 22.6865 104.942 23.3005 108.338 25.0085C108.328 25.3085 108.666 25.4415 108.888 25.2945C111.483 26.7285 113.558 28.8245 114.142 31.4505C114.161 31.5355 114.208 31.5825 114.26 31.6175C110.104 35.5355 109.098 41.6235 111.344 46.8525C109.05 46.1355 106.714 45.6175 104.517 45.2315C104.342 45.2005 104.204 45.2745 104.12 45.3845C102.091 44.2545 100.267 43.0315 98.4663 41.5295C98.2853 41.3785 97.9613 41.3605 97.8403 41.6105C97.2933 42.7415 96.6813 43.8195 96.0463 44.8725C94.2363 40.7715 90.6183 38.0065 86.4093 36.5945C87.0843 30.4265 91.9383 25.1445 97.9183 23.4875ZM106.543 8.60947C105.926 8.86147 105.311 9.17046 104.704 9.59346C100.528 12.5055 98.8843 17.4575 98.4153 22.3215C98.4123 22.3565 98.4223 22.3845 98.4273 22.4145C96.1643 22.9125 93.9753 23.9395 92.0623 25.3575C92.1933 20.7675 91.9913 16.1585 92.0883 11.5635C92.0963 11.1915 91.7443 10.9925 91.4153 11.0515C88.3773 11.5905 85.7893 11.3155 83.2843 10.7675C84.2133 5.04547 87.5473 1.78046 93.4383 1.37846C99.1383 0.988464 104.052 3.43147 106.543 8.60947ZM128.928 28.8705C124.352 27.8165 119.874 27.3555 115.494 30.5735C115.217 30.7775 114.956 30.9935 114.7 31.2135C114.26 28.4525 112.04 26.1495 109.256 24.5525C110.346 21.8045 111.931 19.5105 114.475 17.8545C114.679 17.7215 114.497 17.4055 114.283 17.5265C111.706 18.9925 109.531 21.3335 108.578 24.1745C105.552 22.6115 102 21.8645 99.3303 22.2505C100.172 16.8165 102.164 10.7765 108.065 8.99646C111.91 7.83646 116.946 9.23847 120.958 9.43047C123.055 9.53047 121.824 8.60346 123.253 9.63846C123.12 9.54246 124.308 12.9235 124.29 12.8825C126.491 17.8695 132.727 23.1335 128.928 28.8705ZM125.945 60.8305C125.676 58.8625 125.055 57.1365 124.165 55.6185C124.222 55.6575 124.289 55.6875 124.377 55.6905C128.036 55.8305 130.99 53.4035 133.163 50.6945C135.377 47.9355 138.01 44.7385 137.9 41.0205C137.893 40.7965 137.571 40.8015 137.555 41.0205C137.306 44.5175 134.778 47.5495 132.606 50.1375C130.393 52.7745 127.858 54.5715 124.376 54.9235C124.105 54.9505 123.986 55.1805 124.017 55.3825C121.506 51.2905 117.013 48.7615 112.229 47.1465C108.785 37.8395 115.415 27.2415 126.154 29.3005C126.88 29.4395 127.586 29.6395 128.284 29.8635C128.305 30.0545 128.534 30.2065 128.703 30.0255C128.71 30.0185 128.715 30.0115 128.721 30.0045C131.019 30.7795 133.233 31.8085 135.688 32.1355C137.394 32.3635 140.665 31.4775 141.855 32.8005C141.538 32.4475 142.215 36.2045 142.138 35.8275C142.439 37.3015 143.006 38.7235 143.527 40.1285C144.896 43.8195 146.272 47.3915 145.38 51.4175C143.392 60.3845 134.291 64.4445 126.004 61.5285C125.986 61.2945 125.976 61.0585 125.945 60.8305ZM94.9813 48.1955C95.3243 47.7005 95.7213 46.8745 96.1793 46.0255C96.2883 45.9445 96.3603 45.8285 96.3623 45.6925C97.0953 44.3765 97.9753 43.0995 99.0273 43.0005C99.8663 42.9215 103.086 45.5145 104.08 45.9785C104.162 46.0165 104.239 46.0105 104.305 45.9815C104.305 45.9815 104.306 45.9825 104.308 45.9825C111.122 47.7645 119.078 49.2305 123.134 55.7115C127.423 62.5645 124.32 74.5925 115.212 75.0135C119.143 70.3375 119.706 62.7355 114.084 57.6935C113.698 57.3475 113.131 57.9065 113.512 58.2655C119.623 64.0315 118.566 74.4405 110.107 77.4255C103.454 79.7735 96.1893 74.9745 92.8013 69.3785C88.3293 61.9915 90.4043 54.8005 94.9813 48.1955ZM69.3593 39.3025C69.3993 39.3325 69.4383 39.3635 69.4783 39.3935C69.8583 39.6815 70.3293 39.1605 70.1753 38.7915C78.2853 34.0905 91.6443 36.9845 95.4503 45.8475C91.9163 51.5085 87.9623 56.4835 89.5403 63.9765C89.6653 64.5735 89.8343 65.1625 90.0233 65.7465C85.6283 68.6125 79.4003 68.9635 76.6963 64.0265C83.5133 63.2805 88.1843 55.7265 89.3943 49.4795C89.4463 49.2115 89.0553 49.0965 88.9803 49.3655C87.3023 55.4195 82.9253 62.4895 76.1973 62.9505C76.1863 62.9205 76.1703 62.8955 76.1593 62.8655C75.9693 62.3625 75.2243 62.5145 75.2443 62.9715C74.9113 62.9635 74.5803 62.9595 74.2373 62.9185C66.7203 62.0175 62.5293 53.7405 64.1563 46.8385C64.9473 43.4825 66.8553 40.9955 69.3593 39.3025ZM60.5193 23.4015C60.5563 23.4085 60.5863 23.3915 60.6193 23.3835C61.0573 25.7255 62.0343 28.0185 63.4913 30.0185C63.7003 30.3055 64.0483 30.2965 64.2793 30.1445C64.2213 30.4605 64.1753 30.7775 64.1563 31.0965C63.9463 34.4315 66.1623 36.7615 68.5753 38.6905C67.6173 39.3555 66.7373 40.1175 65.9733 40.9925C65.9603 40.9295 65.9253 40.8725 65.8563 40.8395C63.6053 39.7735 65.5283 40.6085 63.0883 40.0445C60.8913 39.5365 59.0493 39.0575 56.9613 38.2275C54.9213 37.4175 53.4843 37.0215 51.2463 37.4235C49.8293 37.6785 48.4523 38.1825 47.1453 38.8645C44.5623 30.6835 51.7753 21.6385 60.5193 23.4015Z" fill="#432918"/>
<path d="M9.34234 79.8075C18.0563 83.1095 25.6753 75.8385 34.3213 77.4655C34.6453 77.5265 34.9713 77.3255 34.9723 76.9705C34.9783 68.8475 36.5143 59.0425 29.3203 53.3295C24.0873 49.1725 16.8853 49.5755 12.9283 55.1045C12.8573 55.2025 12.8423 55.2975 12.8483 55.3875C12.1833 55.3345 11.5043 55.3235 10.8003 55.3905C5.19034 55.9305 0.721339 60.8675 0.385339 66.4235C0.0263387 72.3805 3.85634 77.7285 9.34234 79.8075ZM1.37834 66.4235C1.75234 60.7525 6.73034 55.9735 12.5043 56.2755C18.5453 56.5915 22.6363 61.4225 25.4813 66.1955C25.6783 66.5265 26.1853 66.2305 25.9973 65.8935C23.3683 61.1865 19.3093 56.4355 13.8533 55.5105C18.6303 49.0005 27.7273 51.1925 31.6203 57.3515C34.0723 61.2295 33.9813 65.7485 33.9733 70.1735C33.9713 71.5935 34.5563 74.7165 33.5063 75.7245C32.5863 76.6085 31.1063 76.0615 29.8523 76.1875C27.1423 76.4605 24.5783 77.4835 22.0003 78.2885C17.6273 79.6545 13.3963 80.4415 9.03534 78.5095C4.30234 76.4115 1.02934 71.7285 1.37834 66.4235Z" fill="#432918"/>
<path d="M115.498 35.8985C117.239 33.3175 119.986 31.5535 123 30.8555C123.211 30.8065 123.3 31.1235 123.09 31.1805C120.116 31.9995 117.783 33.7085 115.942 36.1565C115.748 36.4155 115.31 36.1785 115.498 35.8985Z" fill="#432918"/>
<path d="M115.883 37.8595C117.934 36.2235 120.144 34.7275 122.297 33.2285C122.384 33.1675 122.496 33.3105 122.412 33.3775C120.364 35.0155 118.306 36.7105 116.156 38.2125C115.949 38.3575 115.683 38.0195 115.883 37.8595Z" fill="#432918"/>
<path d="M123.868 15.2655C124.785 16.9615 125.087 18.8125 124.8 20.7165C124.781 20.8445 124.555 20.8155 124.572 20.6855C124.815 18.8305 124.477 17.0725 123.588 15.4285C123.489 15.2465 123.768 15.0825 123.868 15.2655Z" fill="#432918"/>
<path d="M121.582 14.9665C122.119 16.4195 122.846 17.7645 123.775 19.0025C123.889 19.1545 123.627 19.3585 123.51 19.2075C122.531 17.9445 121.756 16.5705 121.202 15.0715C121.114 14.8325 121.495 14.7295 121.582 14.9665Z" fill="#432918"/>
<path d="M87.2553 6.22846C89.0833 4.34546 91.4223 3.26046 94.0403 3.07346C94.2813 3.05646 94.2763 3.42446 94.0403 3.44646C91.5463 3.67546 89.3243 4.75946 87.5983 6.57146C87.3823 6.79746 87.0373 6.45246 87.2553 6.22846Z" fill="#432918"/>
<path d="M87.2775 3.92147C87.4965 3.69547 87.7195 3.47547 87.9465 3.25747C88.0775 3.13247 88.2705 3.32547 88.1455 3.45647C87.9275 3.68347 87.7075 3.90647 87.4815 4.12547C87.3485 4.25447 87.1485 4.05447 87.2775 3.92147Z" fill="#432918"/>
<path d="M93.5644 30.9815C93.6324 30.8075 93.9144 30.8785 93.8494 31.0595C93.5294 31.9525 93.2094 32.8445 92.8894 33.7375C92.8064 33.9675 92.4344 33.8625 92.5234 33.6365C92.8704 32.7525 93.2174 31.8665 93.5644 30.9815Z" fill="#432918"/>
<path d="M89.8693 33.2535L91.5723 30.9415C91.6933 30.7775 91.9713 30.9315 91.8513 31.1045C91.3073 31.8895 90.7643 32.6745 90.2213 33.4595C90.0723 33.6755 89.7153 33.4635 89.8693 33.2535Z" fill="#432918"/>
<path d="M83.8682 33.9185C84.6492 32.6975 85.4302 31.4765 86.2102 30.2555C86.2782 30.1495 86.4452 30.2455 86.3802 30.3545C85.6402 31.5995 84.8992 32.8435 84.1592 34.0885C84.0482 34.2755 83.7502 34.1015 83.8682 33.9185Z" fill="#432918"/>
<path d="M80.5253 33.1695C81.8933 31.8705 83.2603 30.5715 84.6283 29.2725C84.7593 29.1475 84.9533 29.3415 84.8273 29.4715C83.5143 30.8255 82.2013 32.1795 80.8893 33.5325C80.6583 33.7705 80.2863 33.3975 80.5253 33.1695Z" fill="#432918"/>
<path d="M72.6404 40.1095C72.8644 40.0315 72.9554 40.3815 72.7374 40.4625C69.4004 41.7025 67.1664 44.6035 66.6364 48.0965C66.5824 48.4505 66.0514 48.2975 66.1004 47.9485C66.6124 44.3095 69.1974 41.3115 72.6404 40.1095Z" fill="#432918"/>
<path d="M70.5772 44.1345C70.7352 44.0455 70.8522 44.2675 70.7152 44.3715C69.0732 45.6165 67.9242 47.1125 67.3042 49.0955C67.2122 49.3875 66.7552 49.2655 66.8432 48.9685C67.4282 46.9855 68.7632 45.1595 70.5772 44.1345Z" fill="#432918"/>
<path d="M96.3273 69.2775C97.1893 71.8795 99.3943 73.7445 102.088 74.2095C102.295 74.2455 102.205 74.5515 102.002 74.5215C99.1413 74.0925 96.8073 72.1295 95.8393 69.4115C95.7293 69.1065 96.2243 68.9685 96.3273 69.2775Z" fill="#432918"/>
<path d="M98.5473 68.5925C99.6423 70.3475 101.193 71.6675 103.136 72.3955C103.319 72.4645 103.245 72.7585 103.054 72.6935C101.003 72.0045 99.2713 70.6815 98.1223 68.8405C97.9543 68.5715 98.3793 68.3235 98.5473 68.5925Z" fill="#432918"/>
<path d="M60.3375 64.8755C62.3925 64.3315 64.2635 63.5065 65.9785 62.2405C66.0965 62.1535 66.2524 62.3535 66.1364 62.4445C64.4494 63.7595 62.5324 64.7635 60.4444 65.2615C60.1934 65.3215 60.0875 64.9425 60.3375 64.8755Z" fill="#432918"/>
<path d="M59.6364 63.0725C61.2484 62.6855 62.7314 61.9905 64.0634 61.0055C64.2284 60.8835 64.4474 61.1635 64.2844 61.2925C62.9344 62.3625 61.4334 63.1125 59.7644 63.5405C59.4624 63.6185 59.3334 63.1455 59.6364 63.0725Z" fill="#432918"/>
<path d="M53.9444 26.8465C54.1444 26.7415 54.3194 27.0375 54.1214 27.1505C52.3904 28.1385 51.2474 29.7915 50.9234 31.7555C50.8654 32.1085 50.3094 31.9635 50.3814 31.6065C50.7954 29.5485 52.0864 27.8215 53.9444 26.8465Z" fill="#432918"/>
<path d="M48.2154 30.9275C48.7774 30.0425 49.3384 29.1565 49.9004 28.2715C50.0164 28.0885 50.3064 28.2555 50.1924 28.4415C49.6434 29.3335 49.0934 30.2265 48.5444 31.1185C48.4154 31.3265 48.0844 31.1345 48.2154 30.9275Z" fill="#432918"/>
<path d="M4.81323 62.8805C4.96223 62.6705 5.29923 62.8545 5.16523 63.0865C3.93423 65.2175 3.81123 67.5225 4.88623 69.7245C4.77523 68.0705 5.09123 66.3955 5.88223 64.9265C5.98423 64.7385 6.31723 64.8685 6.23623 65.0755C5.56123 66.7905 5.30223 68.4575 5.56623 70.2915C5.62323 70.6855 5.02023 70.8555 4.96223 70.4575C4.94923 70.3685 4.94423 70.2795 4.93423 70.1905C4.81923 70.3545 4.55723 70.4125 4.43323 70.1855C3.18423 67.8975 3.29223 65.0195 4.81323 62.8805Z" fill="#432918"/>
</svg>
